<?xml version="1.0" encoding="UTF-8"?>
<svg id="Layer_2" data-name="Layer 2" xmlns="http://www.w3.org/2000/svg" viewBox="0 0 302.28 439.23">
  <defs>
    <style>
      .cls-1 {
        stroke: #643d19;
        stroke-miterlimit: 10;
        stroke-width: 6px;
      }

      .cls-1, .cls-2 {
        fill: none;
      }

      .cls-3, .cls-4, .cls-5 {
        fill: #f4cdcb;
      }

      .cls-6 {
        fill: #f7d4ce;
      }

      .cls-7, .cls-8, .cls-9 {
        fill: #eb8986;
      }

      .cls-10 {
        fill: #fbecea;
      }

      .cls-11 {
        fill: #643d19;
      }

      .cls-8, .cls-9, .cls-4, .cls-5 {
        stroke-linecap: round;
      }

      .cls-8, .cls-9, .cls-4, .cls-5, .cls-2 {
        stroke-linejoin: round;
        stroke-width: .25px;
      }

      .cls-8, .cls-5 {
        stroke: #fdf4f3;
      }

      .cls-9, .cls-4, .cls-2 {
        stroke: #fbecea;
      }

      .cls-12 {
        opacity: .5;
      }
    </style>
  </defs>
  <g id="Layer_2-2" data-name="Layer 2">
    <g id="third_try" data-name="third try" class="cls-12">
      <g>
        <g>
          <g>
            <path class="cls-4" d="m243.21,37.7c-5.53-3.17-8.33-9.13-14.22-12.2-2.77-1.44-6.06-2.24-8.85-.69-1.49.83-2.89,1.99-3.46,3.77-.81,2.58-1.8,6.53-.04,8.83,2.14,2.78,5.86,4.63,9.21,5.07,3.49.46,6.53-.1,9.72-1.32,2.28-.87,4.59-2.84,7.64-3.47Z"/>
            <path class="cls-10" d="m219.02,35.44c2.17,4.89,12.94,5.14,16.85,2.3-3.96,2.52-14.53,2.32-16.85-2.3h0Z"/>
            <path class="cls-4" d="m241.69,38.13c-2.01-3.23-5.11-5.49-8-7.88-1.44-1.19-2.84-2.44-4.05-3.87s-.78-3.32-1.08-5.11c-.25-1.56-.23-3.11.01-4.7.33-2.13,1.82-3.95,4.16-3.66,2.18.27,4.3,1.06,6.25,2.02,2.3,1.13,4.76,2.01,6.36,4.11,2.31,3.05,1.95,6.93.58,10.28-1.07,2.6-3.43,5.38-4.24,8.81h0Z"/>
            <path class="cls-5" d="m239.72,39.02c6.15-1.06,11.96,1.58,18.31.22,2.99-.64,5.97-2.07,7.1-4.9.96-2.38-.85-3.75-1.67-5.9-.47-1.26-.75-2.52-1.13-3.77-.33-1.07-1.34-1.45-2.39-1.67-3.34-.73-7.3.2-10.11,1.92-2.92,1.8-4.87,4.06-6.52,6.9-1.18,2.02-1.7,4.88-3.61,7.21h.01Z"/>
            <path class="cls-10" d="m259.03,25.61c-4.51-1.76-13.5,5.36-15.28,9.44,1.95-3.81,10.89-10.94,15.28-9.44h0Z"/>
            <path class="cls-10" d="m260.15,52.53c-.16-1.98-1.89-3.4-3.18-4.73-4.28-3.88-9.34-7.21-14.96-8.7,5.54,1.73,10.5,5.03,14.85,8.81,1.3,1.32,3.04,2.65,3.3,4.61h0Z"/>
            <g>
              <path class="cls-3" d="m237.73,37.55c3.63,6.42,2.75,14.08,6.82,20.6,1.91,3.07,4.77,5.78,8.57,5.81,5.36.05,12.08-4.81,11.44-10.78-.43-4.06-3.07-8.08-6.19-10.47-3.26-2.49-6.7-3.67-10.71-4.28-2.85-.43-6.45.23-9.93-.88Z"/>
              <path class="cls-2" d="m237.73,37.55c3.63,6.42,2.75,14.08,6.82,20.6,1.91,3.07,4.77,5.78,8.57,5.81,5.36.05,12.08-4.81,11.44-10.78-.43-4.06-3.07-8.08-6.19-10.47-3.26-2.49-6.7-3.67-10.71-4.28-2.85-.43-6.45.23-9.93-.88,0,0,3.49,1.11,0,0Z"/>
            </g>
            <path class="cls-10" d="m260.93,53.65c-.1-4.76-10.58-11.85-15-12.74,4.2,1.1,14.71,8.2,15,12.74h0Z"/>
            <path class="cls-4" d="m240.06,36.36c-5.8,3.59-13.27,2.47-19.12,6.5-2.75,1.9-5.06,4.78-4.71,8.72.51,5.58,4.15,4.2,7.85,5.21-.69,3.73-1.04,7.38,3.69,6.97,3.86-.34,7.46-2.95,9.43-6.13,2.06-3.31,2.84-6.85,3.01-11,.13-2.95-.89-6.7-.18-10.29l.02.02Z"/>
            <path class="cls-10" d="m227.84,59.8c5.06-.04,10.81-10.43,10.8-15.05-.17,1.62-.65,3.19-1.28,4.69-1.55,3.4-5.44,10.12-9.52,10.36h0Z"/>
            <path class="cls-10" d="m237.42,39.52l-.1-2.07c-.02-.37.11-.72.35-1l1.38-1.53c.38-.42.97-.58,1.51-.38l.81.28c.53.19.89.69.92,1.25l.1,2.07c.02.37-.11.72-.35,1l-1.38,1.53c-.38.42-.97.58-1.51.38l-.81-.28c-.53-.19-.89-.69-.92-1.25Z"/>
            <path class="cls-10" d="m232.9,13.93c-1.3,1.39-1.21,3.52-1.06,5.29.68,5.43,2.9,11.06,7.11,14.68-3.96-3.19-9.33-15.49-6.05-19.98h0Z"/>
          </g>
          <g>
            <path class="cls-9" d="m106.4,357.81c-6.41,4.92-14.7,5.78-21.17,11.14-3.04,2.52-5.59,5.86-5.16,9.52.23,1.95.88,3.94,2.66,5.23,2.58,1.86,6.69,4.45,10.23,3.35,4.29-1.33,8.26-4.74,10.43-8.27s3.11-7.24,3.27-11.23c.12-2.84-1.03-6.14-.26-9.74h0Z"/>
            <path class="cls-9" d="m106.16,359.65c-4.74,1-8.89,3.59-13.1,5.88-2.1,1.14-4.23,2.22-6.49,3.02s-4.23-.38-6.45-.73c-1.92-.31-3.73-.91-5.44-1.78-2.31-1.16-3.68-3.49-2.19-5.96,1.4-2.31,3.35-4.35,5.43-6.15,2.44-2.12,4.68-4.5,7.9-5.48,4.67-1.41,9.01.45,12.21,3.21,2.5,2.15,4.55,5.81,8.12,7.99h0Z"/>
            <path class="cls-8" d="m106.21,362.17c1.81-7.18,7.74-12.62,9.29-20.14.73-3.54.54-7.38-2.18-9.69-2.28-1.94-4.78-.47-7.67-.38-1.7.06-3.29-.12-4.95-.16-1.4-.04-2.34.95-3.11,2.01-2.49,3.43-3.37,8.14-2.76,11.88.64,3.9,2.31,6.9,4.79,9.79,1.76,2.07,4.82,3.71,6.58,6.69h0Z"/>
            <path class="cls-10" d="m131.96,344.66c-2.44-.54-4.85.82-7.03,1.75-6.55,3.27-12.88,7.52-17.49,13.27,4.8-5.57,11.07-9.76,17.57-13.12,2.17-.93,4.52-2.35,6.97-1.9h0Z"/>
            <g>
              <path class="cls-7" d="m103.57,364.12c6.88-1.26,13.31,2.49,20.44.83,3.36-.78,6.71-2.64,8.04-6.44,1.88-5.38-.07-13.95-5.54-15.54-3.72-1.08-8.15.06-11.32,2.32-3.3,2.34-5.52,5.37-7.43,9.17-1.36,2.7-2.01,6.57-4.18,9.66Z"/>
              <path class="cls-2" d="m103.57,364.12c6.88-1.26,13.31,2.49,20.44.83,3.36-.78,6.71-2.64,8.04-6.44,1.88-5.38-.07-13.95-5.54-15.54-3.72-1.08-8.15.06-11.32,2.32-3.3,2.34-5.52,5.37-7.43,9.17-1.36,2.7-2.01,6.57-4.18,9.66,0,0,2.17-3.09,0,0Z"/>
            </g>
            <path class="cls-9" d="m103.29,360.79c1.3,7.74-3.69,15.57-1.89,23.55.85,3.75,3.05,7.39,7.8,8.47,6.73,1.53,6.91-3,9.92-6.72,3.99,2.15,8.05,3.92,9.91-1.46,1.51-4.4.26-9.35-2.46-12.71-2.82-3.51-6.54-5.7-11.27-7.45-3.36-1.24-8.21-1.54-12.02-3.66h.01Z"/>
          </g>
          <g>
            <path class="cls-4" d="m14.31,236.71c-.58,3.99-3.24,7.19-3.68,11.36-.21,1.96.05,4.05,1.47,5.2.76.62,1.69,1.1,2.77.94,1.57-.24,3.94-.74,4.82-2.37,1.07-1.97,1.3-4.58.84-6.59-.47-2.1-1.41-3.67-2.74-5.15-.95-1.06-2.51-1.84-3.49-3.39h0Z"/>
            <path class="cls-4" d="m14.86,237.46c-1.35,2.01-1.92,4.38-2.63,6.67-.35,1.14-.74,2.27-1.27,3.34s-1.65,1.34-2.56,1.99c-.8.56-1.65.98-2.56,1.27-1.23.39-2.53.04-2.86-1.37-.3-1.31-.32-2.72-.2-4.09.13-1.61.1-3.24.91-4.71,1.18-2.13,3.37-2.97,5.48-3.11,1.64-.1,3.65.49,5.68.02h0Z"/>
            <path class="cls-5" d="m15.75,238.34c-1.86-3.2-1.63-7.2-3.7-10.44-.97-1.52-2.37-2.83-4.16-2.7-1.49.1-1.87,1.49-2.87,2.54-.59.61-1.22,1.1-1.82,1.67-.51.48-.5,1.16-.41,1.8.31,2.09,1.63,4.08,3.16,5.2,1.59,1.17,3.23,1.66,5.12,1.83,1.35.13,3.02-.36,4.68.1Z"/>
            <g>
              <path class="cls-3" d="m18.85,223.11c-1.3.55-2.56,5-2.93,6.85-.5,2.47-.83,4.86-.6,7.07"/>
              <path class="cls-10" d="m18.85,223.11c-1.08.63-1.48,1.97-1.95,3.06-1.22,3.45-2,7.19-1.58,10.86-.15-3.66.63-7.32,1.76-10.79.44-1.1.76-2.41,1.77-3.12h0Z"/>
            </g>
            <g>
              <path class="cls-3" d="m15.49,239.96c2.02-2.85,5.63-3.75,7.6-6.83.92-1.45,1.48-3.28.63-5.1-1.21-2.57-4.89-4.96-7.4-3.61-1.71.91-2.89,2.87-3.24,4.77s-.11,3.84.54,5.87c.46,1.44,1.57,3.05,1.87,4.91h0Z"/>
              <path class="cls-2" d="m15.49,239.96c2.02-2.85,5.63-3.75,7.6-6.83.92-1.45,1.48-3.28.63-5.1-1.21-2.57-4.89-4.96-7.4-3.61-3.66,2.09-4,6.92-2.69,10.64.46,1.44,1.57,3.05,1.87,4.91h0Z"/>
            </g>
            <path class="cls-4" d="m14.24,238.87c3.17,2.32,4.1,6.85,7.54,9.07,1.61,1.04,3.67,1.58,5.74.31,2.94-1.8,1.42-3.49,1.2-5.86,2.18-.61,4.24-1.41,3.03-3.98-.99-2.1-3.17-3.43-5.31-3.69s-4.33.25-6.62,1.26c-1.64.73-3.47,2.32-5.57,2.88h-.01Z"/>
          </g>
          <g>
            <path class="cls-11" d="m17.77,435.27c24.08-22.97,42.44-52.02,52.1-83.89,9.25-30.82,10.43-63.71,15.79-94.63,1.83-9.92,3.81-20.23,7.28-29.68,6.89-19.14,18.19-36.72,32.27-51.46,7.17-7.47,14.19-15.37,21.97-22.33,37.49-35.12,85.77-69.05,98.5-121.72,2.33-10.37,3.03-21.04,2.25-31.56.96,22.42-5.85,44.6-18.13,63.23-24.26,36.51-61.39,60.81-93.94,89.41-9.63,9.24-19.5,18.24-28.34,28.38-14.13,16.68-25.14,36.27-30.84,57.48-12.55,45.25-11.47,93.88-35.39,134.99-9.84,17.46-22.72,33.11-37.73,46.34-4.34,3.85-4.74,10.49-.91,14.82,3.93,4.46,10.87,4.75,15.15.6h-.01Z"/>
            <path class="cls-11" d="m35.14,430.5c2.63-11.05,8.06-21.32,12.76-31.93,8.42-18.05,11.2-35.2,7.39-54.92-5.31-29.36-23.79-54.33-13.68-85.15,9.78-33.12,44.23-60.35,37.46-97.59,1.89,11.79-1.15,23.68-6.24,34.28-16.58,33.1-46.36,56.91-38.94,98.23,3.88,23.44,15.08,44.59,13.32,68.49-.68,17.55-10.07,32.26-17.69,47.74-2.67,5.5-5.15,11.33-6.94,17.56-2.12,8.5,10.19,11.85,12.58,3.27h0l-.02.02Z"/>
            <path class="cls-11" d="m72.99,325.21c27.04-91.1,63.72-29.4,112.69-106.5,11.11-17.42,19.51-36.12,31.47-52.88,11.77-16.89,28.21-29.47,44.72-41.52l33.08-24.32-33.6,23.61c-16.8,11.7-33.77,24.17-45.98,40.94-23.72,31.68-37.21,76.27-76.93,91.6-14.42,5.28-31.1,6.78-43.53,17.08-15.38,12.37-22.35,31.82-28.58,49.79-1.37,4.41,5.04,6.67,6.65,2.19h0Z"/>
            <path class="cls-11" d="m173.58,236.34c6.7-9.08,14.25-18.92,25.24-22.54,5.57-1.8,11.14-.74,16.76.68,12.68,3.67,23.85-1.6,33.69-9.28,9.34-7.19,17.77-15.86,29.11-19.79,5.54-1.95,11.72-2.46,17.3-.36-5.55-2.26-11.82-1.94-17.46-.11-17.16,5.29-28.15,21.87-45.17,27.24-5.58,1.79-11.26,1.53-16.87-.12-5.73-1.69-12.22-2.93-18.18-1.13-5.98,1.71-11.23,5.3-15.69,9.49-4.46,4.14-8.27,8.83-11.92,13.54-.67.88-.51,2.13.35,2.81.89.69,2.19.5,2.85-.41h0Z"/>
            <path class="cls-11" d="m32.25,274.95c-13.63-4.07-10.12-21.78-16.57-31.72-2.29-3.64-5.93-6.82-10.37-7.14,4.32.56,7.71,3.84,9.72,7.51,4.24,7.72,2.78,16.91,6.56,24.96,1.43,3.08,3.63,6.04,6.62,7.87,1.43.68,4.33,2.7,5.19.39.24-.84-.3-1.71-1.15-1.88h0Z"/>
            <path class="cls-11" d="m50.02,396.9c3.94-5.06,9.78-8.77,16.18-10.13,6.53-1.37,14.48-.03,20.4-4.12,6.04-3.9,9.76-9.98,14.05-15.48l12.46-16.53-13.24,15.92c-4.39,5.09-8.44,10.99-14.29,14.38-6.15,3.65-13.07,1.71-19.94,2.89-7.17,1.17-13.9,4.95-18.72,10.55-1.69,2.09,1.37,4.63,3.1,2.53h0Z"/>
          </g>
          <g>
            <path class="cls-4" d="m55.83,206.44c4.72-.75,9.16,1.4,14.05.41,2.3-.47,4.6-1.56,5.49-3.77.47-1.18.75-2.52.24-3.83-.73-1.89-2.02-4.66-4.14-5.17-2.56-.62-5.61.07-7.76,1.39-2.25,1.37-3.77,3.13-5.06,5.35-.92,1.58-1.34,3.82-2.82,5.63Z"/>
            <path class="cls-10" d="m71.02,196.34c-2.98-1.53-7.19,1.45-9.18,3.61-.77.87-1.4,1.89-1.73,3,1.24-3.36,7.29-8.11,10.91-6.6h0Z"/>
            <path class="cls-4" d="m56.51,205.47c2.69.94,5.58.79,8.38.84,1.4.02,2.81.08,4.18.35s2.02,1.56,3.03,2.47c.88.79,1.6,1.7,2.21,2.75.81,1.4.8,3.16-.7,4.09-1.41.87-3.01,1.41-4.6,1.77-1.87.42-3.72,1.08-5.65.59-2.79-.69-4.4-3.12-5.19-5.72-.61-2.02-.53-4.75-1.68-7.14h0Z"/>
            <path class="cls-5" d="m57.26,204.02c-3.09,3.51-7.72,4.71-10.8,8.51-1.44,1.79-2.51,4.02-1.83,6.21.56,1.83,2.26,1.79,3.76,2.66.87.51,1.62,1.12,2.44,1.67.69.47,1.46.21,2.18-.15,2.29-1.16,4.17-3.56,4.99-5.89s.93-4.66.55-7.11c-.27-1.74-1.31-3.66-1.3-5.9h0Z"/>
            <path class="cls-10" d="m52.3,220.95c3.58-1.2,5.36-9.37,4.46-12.71.57,3.27-1.16,11.34-4.46,12.71h0Z"/>
            <path class="cls-10" d="m38.96,205.78c3,2.64,13.5,1.07,16.92-.72-4.05,1.58-8.5,1.98-12.83,1.83-1.38-.16-3.02-.11-4.1-1.12h0Z"/>
            <g>
              <path class="cls-3" d="m59.12,203.93c-5.15-2.04-8.25-6.91-13.7-8.8-2.56-.88-5.5-1.12-7.73.65-3.15,2.5-4.79,8.5-1.59,11.69,2.17,2.17,5.6,3.27,8.55,3.19s5.64-1.02,8.26-2.55c1.87-1.09,3.65-3.17,6.22-4.17h0Z"/>
              <path class="cls-2" d="m59.12,203.93c-5.15-2.04-8.25-6.91-13.7-8.8-2.56-.88-5.5-1.12-7.73.65-3.15,2.5-4.79,8.5-1.59,11.69,2.17,2.17,5.6,3.27,8.55,3.19,3.07-.09,5.64-1.02,8.26-2.55,1.87-1.09,3.65-3.17,6.22-4.17,0,0-2.57,1,0,0h0Z"/>
            </g>
            <path class="cls-10" d="m37.97,205.48c2.48,2.79,11.62,1.96,14.76.35-3.59,1.31-7.54,1.43-11.3,1-1.2-.23-2.64-.36-3.46-1.36h0Z"/>
            <path class="cls-4" d="m58.31,205.73c1.7-4.83,6.57-7.69,8.09-12.8.71-2.41.71-5.18-1.36-7.31-2.93-3.02-4.4-.5-7.04.66-1.36-2.5-2.87-4.8-5.44-2.33-2.09,2.02-2.96,5.24-2.62,8.03s1.57,5.33,3.42,7.84c1.32,1.78,3.67,3.5,4.95,5.92h0Z"/>
            <path class="cls-10" d="m54.38,186.29c-3,2.53-1.46,11.08.8,13.88-1.91-2.86-3.48-11.3-.8-13.88h0Z"/>
            <path class="cls-10" d="m58.36,202.64l1.03,1.16c.18.2.28.48.26.75l-.08,1.55c-.02.43-.29.79-.7.93l-.6.22c-.4.14-.84.03-1.13-.29l-1.03-1.16c-.18-.2-.28-.48-.26-.75l.08-1.55c.02-.43.29-.79.7-.93l.6-.22c.4-.14.84-.03,1.13.29Z"/>
            <path class="cls-10" d="m73.06,215.45c-.12-4.46-8.89-8.98-12.95-8.81,3.93.11,12.6,4.54,12.95,8.81h0Z"/>
          </g>
          <g>
            <path class="cls-4" d="m155.73,148.34c3.69-5.07,9.82-7.2,13.45-12.64,1.71-2.56,2.83-5.7,1.62-8.59-.65-1.55-1.64-3.05-3.32-3.79-2.43-1.07-6.21-2.46-8.65-.97-2.96,1.81-5.15,5.25-5.94,8.48-.82,3.37-.59,6.39.26,9.66.61,2.31,2.29,4.8,2.6,7.84h-.01Z"/>
            <path class="cls-10" d="m160.51,124.89c-5.03,1.6-6.42,12.12-4.04,16.25-2.03-4.17-.75-14.43,4.04-16.25h0Z"/>
            <path class="cls-4" d="m155.48,146.8c3.38-1.62,5.92-4.42,8.57-6.99,1.32-1.28,2.69-2.52,4.22-3.55,1.49-1.01,3.33-.42,5.11-.5,1.55-.08,3.07.11,4.59.51,2.05.55,3.68,2.2,3.14,4.46-.5,2.11-1.5,4.1-2.64,5.91-1.35,2.14-2.47,4.45-4.7,5.79-3.23,1.94-6.99,1.18-10.12-.51-2.44-1.32-4.9-3.93-8.18-5.09v-.02Z"/>
            <path class="cls-5" d="m154.82,144.77c.39,6.13-2.82,11.54-2.16,17.91.31,2.99,1.39,6.06,4.05,7.47,2.22,1.19,3.76-.43,5.96-1,1.29-.34,2.54-.47,3.82-.71,1.08-.21,1.55-1.17,1.88-2.15,1.07-3.2.58-7.17-.81-10.09-1.45-3.05-3.46-5.2-6.07-7.12-1.86-1.37-4.6-2.19-6.67-4.3h0Z"/>
            <path class="cls-10" d="m165.89,165.11c2.21-4.23-3.82-13.78-7.62-15.96,3.53,2.34,9.54,11.79,7.62,15.96h0Z"/>
            <path class="cls-10" d="m139.42,163.36c1.95.05,3.52-1.48,4.97-2.61,4.25-3.78,8.05-8.38,10.1-13.73-2.28,5.24-6.04,9.74-10.21,13.61-1.43,1.14-2.93,2.69-4.86,2.74h0Z"/>
            <g>
              <path class="cls-3" d="m156.47,142.98c-6.67,2.88-14.08,1.2-20.89,4.5-3.21,1.55-6.16,4.06-6.59,7.77-.61,5.25,3.42,12.34,9.34,12.35,4.03,0,8.24-2.15,10.91-4.95s4.3-6.17,5.33-10.03c.73-2.75.46-6.34,1.91-9.64h0Z"/>
              <path class="cls-2" d="m156.47,142.98c-6.67,2.88-14.08,1.2-20.89,4.5-3.21,1.55-6.16,4.06-6.59,7.77-.61,5.25,3.42,12.34,9.34,12.35,4.03,0,8.24-2.15,10.91-4.95,2.77-2.93,4.3-6.17,5.33-10.03.73-2.75.46-6.34,1.91-9.64,0,0-1.45,3.3,0,0h0Z"/>
            </g>
            <path class="cls-10" d="m138.24,164c4.67.4,12.73-9.1,14.06-13.34-1.53,4-9.58,13.54-14.06,13.34h0Z"/>
            <path class="cls-4" d="m157.38,145.39c-2.89-6.06-1-13.25-4.34-19.4-1.57-2.9-4.15-5.47-8.05-5.53-5.52-.09-4.55,3.61-5.94,7.14-3.58-1.07-7.12-1.81-7.22,2.88-.08,3.82,2.09,7.62,5,9.89,3.03,2.36,6.41,3.51,10.45,4.12,2.87.44,6.65-.15,10.09.92Z"/>
            <path class="cls-10" d="m135.72,130.94c-.51,4.95,9.07,11.7,13.6,12.18-1.57-.34-3.06-.97-4.46-1.75-3.16-1.88-9.34-6.4-9.13-10.42h0Z"/>
            <path class="cls-10" d="m154.34,142.46l2.38.14c.28.02.53.14.72.34l1.59,1.77c.28.32.35.78.16,1.16l-.56,1.15c-.18.38-.58.61-1.01.58l-2.38-.14c-.28-.02-.53-.14-.72-.34l-1.59-1.77c-.28-.32-.35-.78-.16-1.16l.56-1.15c.18-.38.58-.61,1.01-.58Z"/>
            <path class="cls-10" d="m180.1,140.76c-1.22-1.43-3.31-1.56-5.07-1.61-5.38.09-11.13,1.67-15.13,5.41,1.36-1.21,2.94-2.14,4.59-2.88,3.84-1.61,12.18-3.99,15.61-.92h0Z"/>
          </g>
          <g>
            <path class="cls-4" d="m275.77,111.86c.49-4.76,3.71-8.5,4.02-13.48.14-2.34-.32-4.84-2.23-6.28-1.02-.76-2.24-1.38-3.64-1.22-2.01.23-5.03.75-6.06,2.67-1.25,2.32-1.38,5.43-.67,7.86.75,2.53,2.06,4.44,3.87,6.26,1.29,1.29,3.35,2.28,4.71,4.17h0Z"/>
            <path class="cls-10" d="m269.94,94.59c-2.25,2.48-.46,7.32,1.12,9.81.64.97,1.46,1.84,2.45,2.45-2.92-2.06-5.96-9.13-3.57-12.25h0Z"/>
            <path class="cls-4" d="m275.02,110.95c1.6-2.36,2.21-5.18,2.97-7.88.38-1.35.8-2.7,1.41-3.95s2.04-1.55,3.17-2.29c.99-.64,2.06-1.11,3.22-1.43,1.56-.42,3.26.04,3.77,1.73.47,1.58.59,3.27.52,4.9-.07,1.92.07,3.87-.87,5.61-1.38,2.52-4.16,3.45-6.87,3.54-2.11.07-4.74-.71-7.33-.22h0Z"/>
            <path class="cls-5" d="m273.81,109.87c2.61,3.89,2.56,8.68,5.44,12.62,1.35,1.85,3.24,3.46,5.53,3.38,1.92-.07,2.32-1.73,3.54-2.94.72-.71,1.5-1.28,2.24-1.94.63-.55.58-1.37.42-2.14-.52-2.52-2.37-4.94-4.41-6.34s-4.27-2.09-6.73-2.37c-1.74-.19-3.86.32-6.04-.27h0Z"/>
            <path class="cls-10" d="m288.88,119.01c-.24-3.76-7.68-7.59-11.13-7.59,3.31.29,10.66,4.04,11.13,7.59h0Z"/>
            <path class="cls-10" d="m270.79,128c3.33-2.25,4.51-12.73,3.66-16.54.48,4.32-.28,8.73-1.53,12.86-.51,1.29-.88,2.89-2.13,3.68h0Z"/>
            <g>
              <path class="cls-3" d="m274.2,108.05c-3.29,4.45-8.81,6.19-12.04,10.97-1.51,2.25-2.5,5.03-1.36,7.64,1.61,3.68,6.98,6.81,10.88,4.55,2.66-1.54,4.61-4.57,5.28-7.44.71-2.99.47-5.71-.34-8.64-.57-2.09-2.13-4.35-2.43-7.08h0Z"/>
              <path class="cls-2" d="m274.2,108.05c-3.29,4.45-8.81,6.19-12.04,10.97-1.51,2.25-2.5,5.03-1.36,7.64,1.61,3.68,6.98,6.81,10.88,4.55,2.66-1.54,4.61-4.57,5.28-7.44.71-2.99.47-5.71-.34-8.64-.57-2.09-2.13-4.35-2.43-7.08,0,0,.31,2.73,0,0h0Z"/>
            </g>
            <path class="cls-10" d="m270.25,128.87c3.34-1.67,4.9-10.72,4.15-14.17.35,3.81-.55,7.66-1.94,11.18-.54,1.1-1.03,2.46-2.21,3h0Z"/>
            <path class="cls-4" d="m275.73,109.29c-4.23-2.88-5.74-8.33-10.29-11.12-2.14-1.31-4.83-2.01-7.42-.57-3.67,2.06-1.61,4.12-1.17,6.97-2.77.67-5.38,1.54-3.64,4.66,1.41,2.55,4.3,4.21,7.08,4.6,2.9.4,5.56-.15,8.45-1.29,2.06-.81,4.32-2.65,7-3.26h0Z"/>
            <path class="cls-10" d="m255.94,108.07c1.68,3.55,10.34,4.26,13.62,2.81-3.26,1.11-11.81.45-13.62-2.81h0Z"/>
            <path class="cls-10" d="m272.75,108.44l1.38-.7c.24-.13.54-.14.79-.06l1.48.48c.4.14.69.49.72.91l.05.64c.03.42-.19.82-.57,1.01l-1.38.7c-.24.13-.54.14-.79.06l-1.48-.48c-.4-.14-.69-.49-.72-.91l-.05-.64c-.03-.42.19-.82.57-1.01Z"/>
            <path class="cls-10" d="m288.92,97.54c-4.3-1.05-11,6.3-11.85,10.24,1.1-3.74,7.67-11.02,11.85-10.24h0Z"/>
          </g>
          <g>
            <path class="cls-4" d="m183.44,200.18c.49-4.76,3.71-8.5,4.02-13.48.14-2.34-.32-4.84-2.23-6.28-1.02-.76-2.24-1.38-3.64-1.22-2.01.23-5.03.75-6.06,2.67-1.25,2.32-1.38,5.43-.67,7.86.75,2.53,2.06,4.44,3.87,6.26,1.29,1.29,3.35,2.28,4.71,4.17h0Z"/>
            <path class="cls-10" d="m177.59,182.91c-2.25,2.48-.46,7.32,1.12,9.81.64.97,1.46,1.84,2.45,2.45-2.92-2.06-5.96-9.13-3.57-12.25h0Z"/>
            <path class="cls-4" d="m182.68,199.26c1.6-2.36,2.21-5.18,2.97-7.88.38-1.35.8-2.7,1.41-3.95s2.04-1.55,3.17-2.29c.99-.64,2.06-1.11,3.22-1.43,1.56-.42,3.26.04,3.77,1.73.47,1.58.59,3.27.52,4.9-.07,1.92.07,3.87-.87,5.61-1.38,2.52-4.16,3.45-6.87,3.54-2.11.07-4.74-.71-7.33-.22h0Z"/>
            <path class="cls-5" d="m181.47,198.17c2.61,3.89,2.56,8.68,5.44,12.62,1.35,1.85,3.24,3.46,5.53,3.38,1.92-.07,2.32-1.73,3.54-2.94.72-.71,1.5-1.28,2.24-1.94.63-.55.58-1.37.42-2.14-.52-2.52-2.37-4.94-4.41-6.34s-4.27-2.09-6.73-2.37c-1.74-.19-3.86.32-6.04-.27h0Z"/>
            <path class="cls-10" d="m196.55,207.33c-.24-3.76-7.68-7.59-11.13-7.59,3.31.29,10.66,4.04,11.13,7.59h0Z"/>
            <path class="cls-10" d="m178.45,216.31c3.33-2.25,4.51-12.73,3.66-16.54.48,4.32-.28,8.73-1.53,12.86-.51,1.29-.88,2.89-2.13,3.68h0Z"/>
            <g>
              <path class="cls-3" d="m181.87,196.36c-3.29,4.45-8.81,6.19-12.04,10.97-1.51,2.25-2.5,5.03-1.36,7.64,1.61,3.68,6.98,6.81,10.88,4.55,2.66-1.54,4.61-4.57,5.28-7.44s.47-5.71-.34-8.64c-.57-2.09-2.13-4.35-2.43-7.08h0Z"/>
              <path class="cls-2" d="m181.87,196.36c-3.29,4.45-8.81,6.19-12.04,10.97-1.51,2.25-2.5,5.03-1.36,7.64,1.61,3.68,6.98,6.81,10.88,4.55,2.66-1.54,4.61-4.57,5.28-7.44.71-2.99.47-5.71-.34-8.64-.57-2.09-2.13-4.35-2.43-7.08,0,0,.31,2.73,0,0h0Z"/>
            </g>
            <path class="cls-10" d="m177.91,217.18c3.34-1.67,4.9-10.72,4.15-14.17.35,3.81-.55,7.66-1.94,11.18-.54,1.1-1.03,2.46-2.21,3h0Z"/>
            <path class="cls-4" d="m183.4,197.6c-4.23-2.88-5.74-8.33-10.29-11.12-2.14-1.31-4.83-2.01-7.42-.57-3.67,2.06-1.61,4.12-1.17,6.97-2.77.67-5.38,1.54-3.64,4.66,1.41,2.55,4.3,4.21,7.08,4.6,2.9.4,5.56-.15,8.45-1.29,2.06-.81,4.32-2.65,7-3.26h0Z"/>
            <path class="cls-10" d="m163.61,196.38c1.68,3.55,10.34,4.26,13.62,2.81-3.26,1.11-11.81.45-13.62-2.81h0Z"/>
            <path class="cls-10" d="m180.42,196.76l1.38-.7c.24-.13.54-.14.79-.06l1.48.48c.4.14.69.49.72.91l.05.64c.03.42-.19.82-.57,1.01l-1.38.7c-.24.13-.54.14-.79.06l-1.48-.48c-.4-.14-.69-.49-.72-.91l-.05-.64c-.03-.42.19-.82.57-1.01Z"/>
            <path class="cls-10" d="m196.58,185.85c-4.3-1.05-11,6.3-11.85,10.24,1.1-3.74,7.67-11.02,11.85-10.24h0Z"/>
          </g>
          <g>
            <path class="cls-9" d="m211.53,77.07c-6.09.57-11.75-2.21-18.06-1.37-2.97.39-5.94,1.51-7.14,4.02-.64,1.34-1.02,2.88-.39,4.42.91,2.24,2.49,5.53,5.22,6.26,3.28.88,7.2.28,10.02-1.11,2.92-1.45,4.9-3.4,6.62-5.89,1.21-1.77,1.81-4.35,3.75-6.34h-.01Z"/>
            <path class="cls-6" d="m191.8,87.8c3.58,1.89,8.99-1.06,11.72-3.48,1.07-.95,1.96-2.13,2.46-3.47-1.81,4.14-9.8,8.93-14.18,6.95h0Z"/>
            <path class="cls-9" d="m210.63,78.15c-3.45-1.26-7.14-1.28-10.76-1.5-1.8-.11-3.61-.28-5.37-.68s-2.56-1.94-3.84-3.07c-1.11-.98-2.02-2.08-2.78-3.33-1.01-1.67-.96-3.72.99-4.69,1.83-.91,3.9-1.44,5.96-1.76,2.41-.37,4.81-1.01,7.27-.33,3.57.97,5.59,3.9,6.54,6.97.73,2.39.57,5.55,2,8.39h0Z"/>
            <path class="cls-8" d="m209.66,79.78c4.05-3.88,10.04-4.97,14.06-9.17,1.89-1.97,3.32-4.51,2.5-7.09-.68-2.16-2.87-2.23-4.77-3.32-1.11-.65-2.06-1.4-3.11-2.1-.89-.59-1.88-.33-2.81.04-2.98,1.19-5.43,3.86-6.54,6.5-1.16,2.75-1.29,5.35-.87,8.2.31,2.03,1.6,4.33,1.53,6.93h0Z"/>
            <path class="cls-6" d="m216.4,60.46c-4.39.99-7.11,10.5-6.02,14.46-.21-1.37-.16-2.77.06-4.14.64-3.25,2.46-9.3,5.96-10.32h0Z"/>
            <path class="cls-10" d="m233.21,78.91c-3.7-3.21-17.3-2.1-21.77-.24,5.33-1.6,11.02-1.77,16.53-1.32,1.77.27,3.84.31,5.22,1.57h.01Z"/>
            <g>
              <path class="cls-7" d="m207.18,79.97c4.92,1.97,7.54,6.95,12.78,8.76,2.46.85,5.36,1.01,7.74-.9,3.37-2.69,5.57-8.98,2.7-12.2-1.95-2.2-5.25-3.24-8.19-3.07-3.05.18-5.7,1.22-8.45,2.9-1.96,1.19-3.93,3.41-6.57,4.52h0Z"/>
              <path class="cls-2" d="m207.18,79.97c4.92,1.97,7.54,6.95,12.78,8.76,2.46.85,5.36,1.01,7.74-.9,3.37-2.69,5.57-8.98,2.7-12.2-1.95-2.2-5.25-3.24-8.19-3.07-3.05.18-5.7,1.22-8.45,2.9-1.96,1.19-3.93,3.41-6.57,4.52,0,0,2.64-1.11,0,0h0Z"/>
            </g>
            <path class="cls-6" d="m226.85,79.05c-.96-.96-2.46-1.05-3.73-1.29-3.95-.5-8.09-.51-11.95.61,3.9-.88,7.96-.84,11.93-.45,1.27.22,2.75.25,3.76,1.12h0Z"/>
            <path class="cls-9" d="m208.34,77.73c-2.28,5.5-8.63,8.49-10.68,14.33-.97,2.74-1.02,5.96,1.6,8.57,3.69,3.68,5.65.86,9.07-.32,1.69,2.98,3.58,5.75,6.95,3.05,2.74-2.21,3.92-5.88,3.54-9.14-.4-3.38-1.9-6.29-4.22-9.3-1.65-2.14-4.65-4.29-6.23-7.18l-.02-.02Z"/>
            <path class="cls-6" d="m212.94,100.52c3.86-2.57,2-13.05-.71-16.14,2.39,3.18,4.29,13.47.71,16.14h0Z"/>
            <path class="cls-6" d="m208.25,81.36l-1.3-1.4c-.25-.28-.38-.65-.36-1.02l.12-1.55c.05-.57.45-1.05,1-1.2l.78-.21c.48-.13,1,.02,1.34.39l1.3,1.4c.25.28.38.65.36,1.02l-.12,1.55c-.05.57-.45,1.05-1,1.2l-.78.21c-.48.13-1-.02-1.34-.39Z"/>
            <path class="cls-6" d="m189.6,65.51c-.14,1.8,1.3,3.25,2.48,4.44,3.82,3.48,8.74,6.22,13.97,6.61-4.56-.19-16.23-6.03-16.44-11.04h0Z"/>
          </g>
          <g>
            <path class="cls-9" d="m49.13,260.42c-6.09.57-11.75-2.21-18.06-1.37-2.97.39-5.94,1.51-7.14,4.02-.64,1.34-1.02,2.88-.39,4.42.91,2.24,2.49,5.53,5.22,6.26,3.28.88,7.2.28,10.02-1.11s4.9-3.4,6.62-5.89c1.21-1.77,1.81-4.35,3.75-6.34h-.01Z"/>
            <path class="cls-6" d="m29.4,271.16c3.58,1.89,8.99-1.06,11.72-3.48,1.07-.95,1.96-2.13,2.46-3.47-1.81,4.14-9.8,8.93-14.18,6.95h0Z"/>
            <path class="cls-9" d="m48.23,261.51c-3.45-1.26-7.14-1.28-10.76-1.5-1.8-.11-3.61-.28-5.37-.68-1.73-.38-2.56-1.94-3.84-3.07-1.11-.98-2.02-2.08-2.78-3.33-1.01-1.67-.96-3.72.99-4.69,1.83-.91,3.9-1.44,5.96-1.76,2.41-.37,4.81-1.01,7.27-.33,3.57.97,5.59,3.9,6.54,6.97.73,2.39.57,5.55,2,8.39h0Z"/>
            <path class="cls-8" d="m47.25,263.13c4.05-3.88,10.04-4.97,14.06-9.17,1.89-1.97,3.32-4.51,2.5-7.09-.68-2.16-2.87-2.23-4.77-3.32-1.11-.65-2.06-1.4-3.11-2.1-.89-.59-1.88-.33-2.81.04-2.98,1.19-5.43,3.86-6.54,6.5-1.16,2.75-1.29,5.35-.87,8.2.31,2.03,1.6,4.33,1.53,6.93h0Z"/>
            <path class="cls-6" d="m54,243.82c-4.39.99-7.11,10.5-6.02,14.46-.21-1.37-.16-2.77.06-4.14.64-3.25,2.46-9.3,5.96-10.32h0Z"/>
            <path class="cls-10" d="m70.81,262.27c-3.7-3.21-17.3-2.1-21.77-.24,5.33-1.6,11.02-1.77,16.53-1.32,1.77.27,3.84.31,5.22,1.57h.01Z"/>
            <g>
              <path class="cls-7" d="m44.77,263.32c4.92,1.97,7.54,6.95,12.78,8.76,2.46.85,5.36,1.01,7.74-.9,3.37-2.69,5.57-8.98,2.7-12.2-1.95-2.2-5.25-3.24-8.19-3.07-3.05.18-5.7,1.22-8.45,2.9-1.96,1.19-3.93,3.41-6.57,4.52h0Z"/>
              <path class="cls-2" d="m44.77,263.32c4.92,1.97,7.54,6.95,12.78,8.76,2.46.85,5.36,1.01,7.74-.9,3.37-2.69,5.57-8.98,2.7-12.2-1.95-2.2-5.25-3.24-8.19-3.07-3.05.18-5.7,1.22-8.45,2.9-1.96,1.19-3.93,3.41-6.57,4.52,0,0,2.64-1.11,0,0h0Z"/>
            </g>
            <path class="cls-6" d="m64.45,262.41c-.96-.96-2.46-1.05-3.73-1.29-3.95-.5-8.09-.51-11.95.61,3.9-.88,7.96-.84,11.93-.45,1.27.22,2.75.25,3.76,1.12h0Z"/>
            <path class="cls-9" d="m45.94,261.09c-2.28,5.5-8.63,8.49-10.68,14.33-.97,2.74-1.02,5.96,1.6,8.57,3.69,3.68,5.65.86,9.07-.32,1.69,2.98,3.58,5.75,6.95,3.05,2.74-2.21,3.92-5.88,3.54-9.14-.4-3.38-1.9-6.29-4.22-9.3-1.65-2.14-4.65-4.29-6.23-7.18l-.02-.02Z"/>
            <path class="cls-6" d="m50.54,283.88c3.86-2.57,2-13.05-.71-16.14,2.39,3.18,4.29,13.47.71,16.14h0Z"/>
            <path class="cls-6" d="m45.84,264.71l-1.3-1.4c-.25-.28-.38-.65-.36-1.02l.12-1.55c.05-.57.45-1.05,1-1.2l.78-.21c.48-.13,1,.02,1.34.39l1.3,1.4c.25.28.38.65.36,1.02l-.12,1.55c-.05.57-.45,1.05-1,1.2l-.78.21c-.48.13-1-.02-1.34-.39Z"/>
            <path class="cls-6" d="m27.2,248.87c-.14,1.8,1.3,3.25,2.48,4.44,3.82,3.48,8.74,6.22,13.97,6.61-4.56-.19-16.23-6.03-16.44-11.04h0Z"/>
          </g>
          <g>
            <path class="cls-9" d="m244.83,54.23c-3.12,2.33-7.11,2.71-10.26,5.26-1.48,1.2-2.72,2.8-2.53,4.56.1.94.4,1.9,1.25,2.54,1.24.91,3.19,2.18,4.91,1.67,2.07-.62,4.01-2.24,5.07-3.93s1.53-3.47,1.63-5.39c.07-1.36-.46-2.96-.08-4.69h0Z"/>
            <path class="cls-6" d="m237.69,66.62c3.26-.25,6.02-5.49,5.39-8.49.09.9-.05,1.81-.32,2.66-.85,2.3-2.43,5.34-5.06,5.84h0Z"/>
            <path class="cls-9" d="m244.71,55.12c-2.29.46-4.3,1.68-6.35,2.76-1.01.54-2.05,1.05-3.14,1.42-1.07.36-2.03-.2-3.1-.38-.93-.16-1.79-.46-2.62-.88-1.1-.57-1.76-1.7-1.03-2.88.69-1.11,1.64-2.08,2.65-2.94,1.18-1.01,2.28-2.14,3.84-2.6,2.25-.65,4.33.25,5.87,1.61,1.19,1.05,2.16,2.82,3.87,3.89h.01Z"/>
            <path class="cls-8" d="m244.71,56.33c.9-3.45,3.79-6.04,4.59-9.66.37-1.7.3-3.55-1-4.68-1.09-.95-2.29-.25-3.7-.23-.82.01-1.58-.07-2.39-.1-.68-.02-1.14.44-1.51.95-1.22,1.63-1.66,3.9-1.38,5.71s1.07,3.33,2.26,4.74c.84,1,2.3,1.82,3.14,3.26h0Z"/>
            <path class="cls-6" d="m241.96,43.6c-.73.56-.88,1.57-.93,2.43-.1,1.79.29,3.58,1,5.22.36.82.85,1.58,1.48,2.2-1.68-2.02-3.34-7.66-1.53-9.86h-.01Z"/>
            <path class="cls-10" d="m257.22,48.02c-1.17-.3-2.36.33-3.42.76-3.19,1.52-6.28,3.55-8.48,6.36,2.4-2.6,5.42-4.57,8.56-6.18,1.04-.45,2.17-1.14,3.34-.92h0Z"/>
            <g>
              <path class="cls-7" d="m243.43,57.26c3.33-.57,6.41,1.26,9.85.51,1.62-.36,3.25-1.24,3.91-3.06.93-2.58.03-6.73-2.59-7.51-1.79-.54-3.93-.01-5.47,1.06-1.6,1.11-2.69,2.55-3.64,4.39-.67,1.3-1,3.16-2.06,4.64h0Z"/>
              <path class="cls-2" d="m243.43,57.26c3.33-.57,6.41,1.26,9.85.51,1.62-.36,3.25-1.24,3.91-3.06.93-2.58.03-6.73-2.59-7.51-1.79-.54-3.93-.01-5.47,1.06-1.6,1.11-2.69,2.55-3.64,4.39-.67,1.3-1,3.16-2.06,4.64,0,0,1.06-1.49,0,0h0Z"/>
            </g>
            <path class="cls-6" d="m253.81,50.2c-.84-.21-1.69.22-2.48.5-2.32,1.03-4.58,2.41-6.27,4.35,1.86-1.73,4.07-3.06,6.34-4.17.76-.31,1.56-.81,2.4-.68h0Z"/>
            <path class="cls-9" d="m243.32,55.65c.58,3.74-1.86,7.48-1.03,11.34.39,1.82,1.44,3.57,3.71,4.12,3.23.78,3.35-1.42,4.82-3.18,1.91,1.06,3.86,1.93,4.78-.66.76-2.11.17-4.5-1.12-6.14-1.34-1.71-3.13-2.78-5.39-3.64-1.62-.62-3.95-.78-5.78-1.83h0Z"/>
            <path class="cls-6" d="m253.4,66.5c.5-.82.18-1.85-.13-2.69-.7-1.72-1.86-3.22-3.25-4.43-.7-.6-1.5-1.1-2.37-1.41,2.41,1.11,6.66,5.74,5.76,8.53h0Z"/>
            <path class="cls-6" d="m244.48,57.65l-1.18-.33c-.23-.07-.42-.22-.54-.44l-.45-.88c-.16-.32-.11-.72.15-.99l.36-.37c.22-.23.54-.32.85-.24l1.18.33c.23.07.42.22.54.44l.45.88c.16.32.11.72-.15.99l-.36.37c-.22.23-.54.32-.85.24Z"/>
            <path class="cls-6" d="m229.08,55.26c1.94,2.93,9.9,2.2,12.61.52-2.74,1.34-10.58,2.1-12.61-.52h0Z"/>
          </g>
          <g>
            <path class="cls-9" d="m289.44,179.62c-3.12,2.33-7.11,2.71-10.26,5.26-1.48,1.2-2.72,2.8-2.53,4.56.1.94.4,1.9,1.25,2.54,1.24.91,3.19,2.18,4.91,1.67,2.07-.62,4.01-2.24,5.07-3.93,1.1-1.76,1.53-3.47,1.63-5.39.07-1.36-.46-2.96-.08-4.69h0Z"/>
            <path class="cls-6" d="m282.29,192.02c3.26-.25,6.02-5.49,5.39-8.49.09.9-.05,1.81-.32,2.66-.85,2.3-2.43,5.34-5.06,5.84h0Z"/>
            <path class="cls-9" d="m289.3,180.51c-2.29.46-4.3,1.68-6.35,2.76-1.01.54-2.05,1.05-3.14,1.42s-2.03-.2-3.1-.38c-.93-.16-1.79-.46-2.62-.88-1.1-.57-1.76-1.7-1.03-2.88.69-1.11,1.64-2.08,2.65-2.94,1.18-1.01,2.28-2.14,3.84-2.6,2.25-.65,4.33.25,5.87,1.61,1.19,1.05,2.16,2.82,3.87,3.89h.01Z"/>
            <path class="cls-8" d="m289.32,181.73c.9-3.45,3.79-6.04,4.59-9.66.37-1.7.3-3.55-1-4.68-1.09-.95-2.29-.25-3.7-.23-.82.01-1.58-.07-2.39-.1-.68-.02-1.14.44-1.51.95-1.22,1.63-1.66,3.9-1.38,5.71s1.07,3.33,2.26,4.74c.84,1,2.3,1.82,3.14,3.26h0Z"/>
            <path class="cls-6" d="m286.55,168.99c-.73.56-.88,1.57-.93,2.43-.1,1.79.29,3.58,1,5.22.36.82.85,1.58,1.48,2.2-1.68-2.02-3.34-7.66-1.53-9.86h-.01Z"/>
            <path class="cls-10" d="m301.82,173.42c-1.17-.3-2.36.33-3.42.76-3.19,1.52-6.28,3.55-8.48,6.36,2.4-2.6,5.42-4.57,8.56-6.18,1.04-.45,2.17-1.14,3.34-.92h0Z"/>
            <g>
              <path class="cls-7" d="m288.04,182.65c3.33-.57,6.41,1.26,9.85.51,1.62-.36,3.25-1.24,3.91-3.06.93-2.58.03-6.73-2.59-7.51-1.79-.54-3.93-.01-5.47,1.06-1.6,1.11-2.69,2.55-3.64,4.39-.67,1.3-1,3.16-2.06,4.64h0Z"/>
              <path class="cls-2" d="m288.04,182.65c3.33-.57,6.41,1.26,9.85.51,1.62-.36,3.25-1.24,3.91-3.06.93-2.58.03-6.73-2.59-7.51-1.79-.54-3.93-.01-5.47,1.06-1.6,1.11-2.69,2.55-3.64,4.39-.67,1.3-1,3.16-2.06,4.64,0,0,1.06-1.49,0,0h0Z"/>
            </g>
            <path class="cls-6" d="m298.41,175.6c-.84-.21-1.69.22-2.48.5-2.32,1.03-4.58,2.41-6.27,4.35,1.86-1.73,4.07-3.06,6.34-4.17.76-.31,1.56-.81,2.4-.68h0Z"/>
            <path class="cls-9" d="m287.92,181.05c.58,3.74-1.86,7.48-1.03,11.34.39,1.82,1.44,3.57,3.71,4.12,3.23.78,3.35-1.42,4.82-3.18,1.91,1.06,3.86,1.93,4.78-.66.76-2.11.17-4.5-1.12-6.14-1.3-1.64-3.13-2.78-5.39-3.64-1.62-.62-3.95-.78-5.78-1.83h0Z"/>
            <path class="cls-6" d="m298,191.89c.5-.82.18-1.85-.13-2.69-.7-1.72-1.86-3.22-3.25-4.43-.7-.6-1.5-1.1-2.37-1.41,2.41,1.11,6.66,5.74,5.76,8.53h0Z"/>
            <path class="cls-6" d="m289.07,183.05l-1.18-.33c-.23-.07-.42-.22-.54-.44l-.45-.88c-.16-.32-.11-.72.15-.99l.36-.37c.22-.23.54-.32.85-.24l1.18.33c.23.07.42.22.54.44l.45.88c.16.32.11.72-.15.99l-.36.37c-.22.23-.54.32-.85.24Z"/>
            <path class="cls-6" d="m273.69,180.65c1.94,2.93,9.9,2.2,12.61.52-2.74,1.34-10.58,2.1-12.61-.52h0Z"/>
          </g>
          <g>
            <path class="cls-9" d="m122.92,150.27c-6.45,4.82-14.73,5.59-21.24,10.87-3.06,2.48-5.64,5.78-5.27,9.43.21,1.95.83,3.95,2.59,5.25,2.56,1.9,6.61,4.51,10.17,3.46,4.29-1.27,8.29-4.63,10.5-8.13s3.18-7.19,3.4-11.16c.15-2.83-.95-6.14-.15-9.71h0Z"/>
            <path class="cls-6" d="m108.1,175.9c6.38-.38,12.41-11.69,11.17-17.57.92,5.82-4.94,16.9-11.17,17.57h0Z"/>
            <path class="cls-9" d="m122.65,152.1c-4.74.95-8.92,3.48-13.13,5.71-2.1,1.11-4.25,2.17-6.5,2.93-2.21.75-4.21-.42-6.43-.81-1.92-.33-3.71-.95-5.41-1.83-2.29-1.19-3.63-3.52-2.11-5.96,1.42-2.28,3.39-4.3,5.48-6.07,2.46-2.08,4.72-4.43,7.95-5.37,4.68-1.35,8.97.55,12.13,3.34,2.46,2.18,4.46,5.84,8.01,8.07h0Z"/>
            <path class="cls-8" d="m122.66,154.62c1.89-7.14,7.86-12.49,9.51-19.98.78-3.52.63-7.35-2.06-9.69-2.25-1.96-4.76-.53-7.65-.46-1.7.04-3.28-.16-4.93-.22-1.4-.06-2.35.92-3.13,1.97-2.53,3.38-3.46,8.07-2.88,11.81.59,3.9,2.22,6.91,4.66,9.82,1.74,2.08,4.76,3.77,6.49,6.75h0Z"/>
            <path class="cls-6" d="m116.99,128.25c-4.21,3.93-.7,16.83,3.15,20.4-3.55-3.67-7.08-16.4-3.15-20.4h0Z"/>
            <path class="cls-10" d="m148.56,137.45c-2.43-.57-4.84.76-7.03,1.66-6.57,3.17-12.94,7.35-17.61,13.03,4.85-5.5,11.16-9.6,17.68-12.88,2.18-.9,4.54-2.29,6.97-1.81h0Z"/>
            <g>
              <path class="cls-7" d="m120,156.53c6.89-1.17,13.25,2.64,20.38,1.06,3.35-.74,6.73-2.55,8.1-6.34,1.93-5.34.09-13.92-5.34-15.57-3.7-1.12-8.13-.03-11.32,2.17-3.32,2.3-5.57,5.28-7.52,9.07-1.39,2.68-2.08,6.53-4.29,9.6h0Z"/>
              <path class="cls-2" d="m120,156.53c6.89-1.17,13.25,2.64,20.38,1.06,3.35-.74,6.73-2.55,8.1-6.34,1.93-5.34.09-13.92-5.34-15.57-3.7-1.12-8.13-.03-11.32,2.17-3.32,2.3-5.57,5.28-7.52,9.07-1.39,2.68-2.08,6.53-4.29,9.6,0,0,2.21-3.06,0,0h0Z"/>
            </g>
            <path class="cls-6" d="m141.5,141.97c-1.74-.4-3.48.53-5.08,1.14-4.78,2.16-9.44,4.99-13.03,8.87,3.76-3.7,8.36-6.46,13.09-8.72,1.59-.62,3.27-1.6,5.01-1.29h0Z"/>
            <path class="cls-9" d="m119.78,153.21c1.2,7.74-3.86,15.49-2.17,23.46.8,3.76,2.95,7.4,7.68,8.54,6.69,1.61,6.94-2.91,9.98-6.58,3.95,2.2,7.98,4,9.9-1.35,1.57-4.37.36-9.32-2.3-12.71-2.77-3.53-6.45-5.77-11.15-7.56-3.34-1.28-8.17-1.63-11.95-3.8h0Z"/>
            <path class="cls-6" d="m140.62,175.68c.99-1.7.3-3.81-.38-5.51-2.27-5.15-6.26-9.94-11.52-12.16,5.13,2.45,9,7.14,11.36,12.22.68,1.68,1.43,3.72.52,5.45h0Z"/>
            <path class="cls-6" d="m122.17,157.35l-2.43-.69c-.47-.13-.88-.46-1.09-.91l-.93-1.83c-.34-.67-.22-1.48.3-2.03l.74-.77c.45-.48,1.14-.67,1.76-.48l2.43.69c.47.13.88.46,1.09.91l.93,1.83c.34.67.22,1.48-.3,2.03l-.74.77c-.45.48-1.14.67-1.76.48Z"/>
            <path class="cls-6" d="m90.31,152.35c1.09,2.12,3.71,2.74,5.84,3.27,6.69,1.28,14.08.97,20.24-2.15-6.25,2.87-13.51,3.14-20.21,1.99-2.13-.52-4.71-1.05-5.88-3.1h0Z"/>
          </g>
          <g>
            <path class="cls-9" d="m215.48,159.32c2.36,7.71.27,15.76,3.03,23.67,1.3,3.73,3.53,7.26,7.09,8.14,1.9.46,3.99.55,5.81-.66,2.65-1.76,6.48-4.7,6.7-8.4.26-4.47-1.55-9.38-4.09-12.63s-5.68-5.43-9.35-6.97c-2.6-1.1-6.1-1.18-9.18-3.15h0Z"/>
            <path class="cls-6" d="m234.58,181.94c1.8-6.14-6.8-15.64-12.75-16.46,5.75,1.08,14.25,10.41,12.75,16.46h0Z"/>
            <path class="cls-9" d="m217.12,160.19c-.71,4.78.25,9.56.92,14.29.33,2.36.6,4.73.57,7.11-.04,2.33-1.82,3.82-2.93,5.78-.96,1.69-2.15,3.16-3.56,4.47-1.89,1.75-4.54,2.23-6.32-.03-1.66-2.12-2.9-4.65-3.85-7.22-1.13-3.02-2.58-5.94-2.36-9.3.32-4.86,3.55-8.26,7.25-10.29,2.88-1.59,7-2.22,10.3-4.81h0Z"/>
            <path class="cls-8" d="m219.48,161.03c-6.08-4.2-9.09-11.63-15.58-15.72-3.05-1.92-6.69-3.08-9.82-1.34-2.62,1.46-2.1,4.3-3.03,7.04-.54,1.6-1.26,3.04-1.88,4.57-.52,1.29.06,2.52.79,3.61,2.33,3.52,6.43,5.99,10.15,6.72,3.86.76,7.26.25,10.82-1.05,2.54-.93,5.16-3.22,8.55-3.81h0Z"/>
            <path class="cls-6" d="m192.75,157.45c2.31,5.31,15.57,6.35,20.26,3.93-4.69,2.1-17.79,1.12-20.26-3.93h0Z"/>
            <path class="cls-10" d="m212.1,130.85c-1.36,2.09-.93,4.81-.82,7.18.77,7.27,2.54,14.65,6.3,20.97-3.53-6.43-5.25-13.75-6.13-20.99-.11-2.35-.61-5.04.66-7.17h0Z"/>
            <g>
              <path class="cls-7" d="m220.38,164.17c1.23-6.88,6.97-11.58,7.91-18.82.44-3.4-.13-7.19-3.22-9.76-4.37-3.63-13.06-4.79-16.46-.24-2.3,3.1-2.79,7.64-1.79,11.39,1.05,3.9,3.09,7.03,5.98,10.15,2.06,2.22,5.44,4.17,7.57,7.28h0Z"/>
              <path class="cls-2" d="m220.38,164.17c1.23-6.88,6.97-11.58,7.91-18.82.44-3.4-.13-7.19-3.22-9.76-4.37-3.63-13.06-4.79-16.46-.24-2.3,3.1-2.79,7.64-1.79,11.39,1.05,3.9,3.09,7.03,5.98,10.15,2.06,2.22,5.44,4.17,7.57,7.28,0,0-2.13-3.11,0,0h0Z"/>
            </g>
            <path class="cls-6" d="m213.96,139.02c-.97,1.51-.68,3.46-.65,5.17.42,5.24,1.5,10.57,3.94,15.26-2.2-4.79-3.25-10.06-3.77-15.27-.05-1.7-.39-3.62.48-5.15h0Z"/>
            <path class="cls-9" d="m217.18,163.27c7.7,1.49,13.26,8.87,21.35,9.97,3.8.51,7.96-.27,10.63-4.34,3.78-5.75-.39-7.52-2.81-11.61,3.4-2.97,6.47-6.16,2.09-9.77-3.58-2.94-8.64-3.5-12.74-2.14-4.26,1.42-7.61,4.13-10.89,7.93-2.34,2.71-4.3,7.14-7.62,9.95h0Z"/>
            <path class="cls-6" d="m245.37,151.26c-1.27-1.51-3.49-1.57-5.32-1.51-5.61.39-11.47,2.52-15.34,6.72,4.05-4,9.76-6.04,15.35-6.56,1.81-.06,3.98-.08,5.31,1.35h0Z"/>
            <path class="cls-6" d="m221.89,162.43l-1.47,2.04c-.29.4-.73.67-1.22.73l-2.04.26c-.75.09-1.47-.3-1.81-.97l-.47-.96c-.29-.59-.24-1.29.14-1.82l1.47-2.04c.29-.4.73-.67,1.22-.73l2.04-.26c.75-.09,1.47.3,1.81.97l.47.96c.29.59.24,1.29-.14,1.82Z"/>
            <path class="cls-6" d="m206.4,190.7c2.36-.31,3.83-2.56,5.06-4.39,3.47-5.86,5.68-12.93,4.83-19.77.58,6.85-1.61,13.78-4.97,19.68-1.21,1.83-2.59,4.08-4.91,4.47h0Z"/>
          </g>
          <g>
            <path class="cls-4" d="m256.89,205.63c-5.53-3.17-8.33-9.13-14.22-12.2-2.77-1.44-6.06-2.24-8.85-.69-1.49.83-2.89,1.99-3.46,3.77-.81,2.58-1.8,6.53-.04,8.83,2.14,2.78,5.86,4.63,9.21,5.07s6.53-.1,9.72-1.32c2.28-.87,4.59-2.84,7.64-3.47Z"/>
            <path class="cls-10" d="m232.7,203.38c2.17,4.89,12.94,5.14,16.85,2.3-3.96,2.52-14.53,2.32-16.85-2.3h0Z"/>
            <path class="cls-4" d="m255.36,206.06c-2.01-3.23-5.11-5.49-8-7.88-1.44-1.19-2.84-2.44-4.05-3.87s-.78-3.32-1.08-5.11c-.25-1.56-.23-3.11.01-4.7.33-2.13,1.82-3.95,4.16-3.66,2.18.27,4.3,1.06,6.25,2.02,2.3,1.13,4.76,2.01,6.36,4.11,2.31,3.05,1.95,6.93.58,10.28-1.07,2.6-3.43,5.38-4.24,8.81h0Z"/>
            <path class="cls-5" d="m253.39,206.95c6.15-1.06,11.96,1.58,18.31.22,2.99-.64,5.97-2.07,7.1-4.9.96-2.38-.85-3.75-1.67-5.9-.47-1.26-.75-2.52-1.13-3.77-.33-1.07-1.34-1.45-2.39-1.67-3.34-.73-7.3.2-10.11,1.92s-4.87,4.06-6.52,6.9c-1.18,2.02-1.7,4.88-3.61,7.21h.01Z"/>
            <path class="cls-10" d="m272.71,193.55c-4.51-1.76-13.5,5.36-15.28,9.44,1.95-3.81,10.89-10.94,15.28-9.44h0Z"/>
            <path class="cls-10" d="m273.83,220.46c-.16-1.98-1.89-3.4-3.18-4.73-4.28-3.88-9.34-7.21-14.96-8.7,5.54,1.73,10.5,5.03,14.85,8.81,1.3,1.32,3.04,2.65,3.3,4.61h0Z"/>
            <g>
              <path class="cls-3" d="m251.4,205.48c3.63,6.42,2.75,14.08,6.82,20.6,1.91,3.07,4.77,5.78,8.57,5.81,5.36.05,12.08-4.81,11.44-10.78-.43-4.06-3.07-8.08-6.19-10.47-3.26-2.49-6.7-3.67-10.71-4.28-2.85-.43-6.45.23-9.93-.88Z"/>
              <path class="cls-2" d="m251.4,205.48c3.63,6.42,2.75,14.08,6.82,20.6,1.91,3.07,4.77,5.78,8.57,5.81,5.36.05,12.08-4.81,11.44-10.78-.43-4.06-3.07-8.08-6.19-10.47-3.26-2.49-6.7-3.67-10.71-4.28-2.85-.43-6.45.23-9.93-.88,0,0,3.49,1.11,0,0Z"/>
            </g>
            <path class="cls-10" d="m274.61,221.58c-.1-4.76-10.58-11.85-15-12.74,4.2,1.1,14.71,8.2,15,12.74h0Z"/>
            <path class="cls-4" d="m253.73,204.28c-5.8,3.59-13.27,2.47-19.12,6.5-2.75,1.9-5.06,4.78-4.71,8.72.51,5.58,4.15,4.2,7.85,5.21-.69,3.73-1.04,7.38,3.69,6.97,3.86-.34,7.46-2.95,9.43-6.13,2.06-3.31,2.84-6.85,3.01-11,.13-2.95-.89-6.7-.18-10.29l.02.02Z"/>
            <path class="cls-10" d="m241.52,227.72c5.06-.04,10.81-10.43,10.8-15.05-.17,1.62-.65,3.19-1.28,4.69-1.55,3.4-5.44,10.12-9.52,10.36h0Z"/>
            <path class="cls-10" d="m251.09,207.46l-.1-2.07c-.02-.37.11-.72.35-1l1.38-1.53c.38-.42.97-.58,1.51-.38l.81.28c.53.19.89.69.92,1.25l.1,2.07c.02.37-.11.72-.35,1l-1.38,1.53c-.38.42-.97.58-1.51.38l-.81-.28c-.53-.19-.89-.69-.92-1.25Z"/>
            <path class="cls-10" d="m246.59,181.86c-1.3,1.39-1.21,3.52-1.06,5.29.68,5.43,2.9,11.06,7.11,14.68-3.96-3.18-9.33-15.49-6.05-19.98h0Z"/>
          </g>
          <g>
            <path class="cls-4" d="m92.87,383.63c4.94.76,8.66,4.33,13.85,4.91,2.43.28,5.07-.07,6.66-1.99.85-1.03,1.55-2.27,1.46-3.73-.13-2.12-.52-5.29-2.47-6.47-2.35-1.43-5.59-1.72-8.16-1.11-2.68.64-4.74,1.91-6.73,3.71-1.42,1.28-2.56,3.37-4.6,4.7v-.02Z"/>
            <path class="cls-10" d="m111.19,378.46c-2.44-2.47-7.65-.86-10.28.65-1.05.61-1.99,1.43-2.68,2.42,2.27-2.93,9.89-5.74,12.96-3.07h0Z"/>
            <path class="cls-4" d="m93.85,382.89c2.37,1.8,5.29,2.57,8.07,3.51,1.38.48,2.76.98,4.05,1.69,1.26.69,1.51,2.2,2.22,3.43.62,1.07,1.05,2.21,1.31,3.43.36,1.65-.22,3.4-2,3.85-1.68.42-3.44.43-5.14.29-2-.17-4.05-.13-5.81-1.22-2.55-1.57-3.38-4.52-3.33-7.35.04-2.21.99-4.9.62-7.63h0Z"/>
            <path class="cls-5" d="m95.05,381.69c-4.2,2.51-9.19,2.22-13.45,5-2.01,1.31-3.78,3.2-3.82,5.59-.02,2,1.68,2.5,2.88,3.85.7.78,1.26,1.63,1.9,2.44.54.68,1.39.68,2.21.55,2.65-.41,5.28-2.21,6.85-4.25,1.63-2.13,2.41-4.34,2.83-6.89.3-1.81-.13-4.05.6-6.29h0Z"/>
            <path class="cls-10" d="m84.7,396.94c3.9-.03,8.35-7.63,8.51-11.21-.45,3.41-4.8,10.94-8.51,11.21h0Z"/>
            <path class="cls-10" d="m76.29,377.57c2.11,3.57,13.11,5.39,17.06,4.7-4.53.27-9.09-.75-13.34-2.28-1.33-.59-2.97-1.08-3.71-2.42h0Z"/>
            <g>
              <path class="cls-3" d="m96.93,382.2c-4.47-3.67-5.99-9.52-10.8-13.13-2.27-1.7-5.11-2.88-7.9-1.83-3.94,1.48-7.48,6.92-5.33,11.11,1.46,2.85,4.52,5.05,7.48,5.91s5.93.8,9.04.11c2.21-.49,4.65-1.98,7.51-2.16Z"/>
              <path class="cls-2" d="m96.93,382.2c-4.47-3.67-5.99-9.52-10.8-13.13-2.27-1.7-5.11-2.88-7.9-1.83-3.94,1.48-7.48,6.92-5.33,11.11,1.46,2.85,4.52,5.05,7.48,5.91,3.08.9,5.93.8,9.04.11,2.21-.49,4.65-1.98,7.51-2.16,0,0-2.86.18,0,0Z"/>
            </g>
            <path class="cls-10" d="m75.41,376.97c1.54,3.54,10.96,5.68,14.57,5.08-3.99.16-7.96-.97-11.57-2.62-1.12-.62-2.51-1.2-3-2.46h0Z"/>
            <path class="cls-4" d="m95.54,383.73c3.23-4.26,9-5.54,12.15-10.15,1.48-2.17,2.35-4.92.98-7.71-1.94-3.94-4.22-1.91-7.21-1.6-.55-2.92-1.32-5.69-4.67-4.05-2.73,1.33-4.62,4.27-5.17,7.15s-.15,5.81.9,8.89c.74,2.19,2.53,4.65,3.03,7.47h0Z"/>
            <path class="cls-10" d="m97.88,363.14c-3.77,1.56-4.98,10.56-3.66,14.06-1.01-3.47.14-12.35,3.66-14.06h0Z"/>
            <path class="cls-10" d="m96.49,380.45l.81,1.82c.08.17.09.38.02.57l-.71,1.86c-.1.28-.37.47-.67.48l-1.14.03c-.3.01-.58-.17-.69-.44l-.81-1.82c-.08-.17-.09-.38-.02-.57l.71-1.86c.1-.28.37-.47.67-.48l1.14-.03c.3-.01.58.17.69.44Z"/>
            <path class="cls-10" d="m107.11,398.11c1.32-4.43-5.99-11.8-10.06-12.91,3.85,1.33,11.1,8.58,10.06,12.91h0Z"/>
          </g>
          <g>
            <path class="cls-4" d="m133,263.62c4.23-2.24,9.13-1.63,13.44-4.13,2.03-1.18,3.85-2.95,3.98-5.33.07-1.28-.1-2.64-1-3.7-1.31-1.55-3.42-3.77-5.58-3.56-2.62.24-5.28,1.86-6.91,3.81s-2.55,4.18-3.06,6.69c-.36,1.79-.04,4.05-.86,6.23h0Z"/>
            <path class="cls-10" d="m144.12,249.18c-3.31-.49-6.35,3.68-7.53,6.36-.45,1.07-.72,2.24-.68,3.39.1-3.57,4.29-10.03,8.21-9.76h0Z"/>
            <path class="cls-4" d="m133.34,262.49c2.86.02,5.53-1.05,8.21-1.91,1.33-.43,2.68-.82,4.07-1.02,1.36-.19,2.41.83,3.66,1.37,1.09.47,2.06,1.1,2.98,1.89,1.22,1.07,1.78,2.74.65,4.1-1.05,1.28-2.4,2.29-3.78,3.16-1.64,1.01-3.18,2.21-5.16,2.38-2.86.24-5.18-1.54-6.75-3.75-1.23-1.72-2.03-4.33-3.89-6.22h0Z"/>
            <path class="cls-5" d="m133.57,260.88c-1.79,4.32-5.8,6.95-7.48,11.52-.79,2.15-1.08,4.62.26,6.48,1.12,1.56,2.72.97,4.41,1.31.99.2,1.9.54,2.85.79.81.23,1.46-.27,2.01-.84,1.8-1.83,2.79-4.71,2.83-7.18.03-2.57-.63-4.71-1.77-6.91-.81-1.56-2.41-3.04-3.12-5.18h0Z"/>
            <path class="cls-10" d="m134.32,278.5c3-2.29,2.06-10.6.14-13.47,1.59,2.88,2.55,11.15-.14,13.47h0Z"/>
            <path class="cls-10" d="m116.8,268.43c3.69,1.54,13.13-3.33,15.78-6.12-3.33,2.8-7.41,4.61-11.55,5.87-1.36.29-2.9.87-4.24.26h0Z"/>
            <g>
              <path class="cls-3" d="m135.3,260.2c-5.52-.27-10.04-3.9-15.8-3.93-2.71-.01-5.57.7-7.12,3.1-2.18,3.38-1.8,9.59,2.25,11.58,2.75,1.35,6.35,1.3,9.12.27s5.01-2.78,7-5.08c1.42-1.64,2.44-4.19,4.54-5.94h0Z"/>
              <path class="cls-2" d="m135.3,260.2c-5.52-.27-10.04-3.9-15.8-3.93-2.71-.01-5.57.7-7.12,3.1-2.18,3.38-1.8,9.59,2.25,11.58,2.75,1.35,6.35,1.3,9.12.27,2.88-1.07,5.01-2.78,7-5.08,1.42-1.64,2.44-4.19,4.54-5.94,0,0-2.1,1.77,0,0h0Z"/>
            </g>
            <path class="cls-10" d="m115.78,268.47c3.25,1.85,11.63-1.87,14.09-4.41-2.97,2.4-6.68,3.78-10.38,4.59-1.21.17-2.61.51-3.71-.18h0Z"/>
            <path class="cls-4" d="m135.11,262.16c.05-5.11,3.75-9.4,3.54-14.73-.1-2.51-1.01-5.13-3.65-6.48-3.74-1.91-4.32.94-6.45,2.89-2.08-1.93-4.27-3.62-5.9-.46-1.33,2.59-1.12,5.92.11,8.44,1.27,2.63,3.21,4.54,5.77,6.32,1.82,1.26,4.6,2.12,6.59,4.01Z"/>
            <path class="cls-10" d="m125.15,245.02c-2.03,3.36,2.19,10.96,5.22,12.88-2.72-2.06-6.94-9.61-5.22-12.88h0Z"/>
            <path class="cls-10" d="m134.16,259.21l1.35.76c.24.14.41.36.49.62l.42,1.49c.11.41-.03.85-.36,1.1l-.51.4c-.33.27-.79.3-1.16.09l-1.35-.76c-.24-.14-.41-.36-.49-.62l-.42-1.49c-.11-.41.03-.85.36-1.1l.51-.4c.33-.27.79-.3,1.16-.09Z"/>
            <path class="cls-10" d="m152.2,266.61c-1.55-4.18-11.31-5.65-15.09-4.17,3.75-1.16,13.39.24,15.09,4.17h0Z"/>
          </g>
        </g>
        <path class="cls-1" d="m7.9,435.37c7.31,1.85,15.33.68,21.82-3.18"/>
      </g>
    </g>
  </g>
</svg>