<?xml version="1.0" encoding="UTF-8"?>
<svg id="Layer_2" data-name="Layer 2" xmlns="http://www.w3.org/2000/svg" xmlns:xlink="http://www.w3.org/1999/xlink" viewBox="0 0 503.47 234.22">
  <defs>
    <style>
      .cls-1, .cls-2, .cls-3, .cls-4 {
        stroke-linejoin: round;
      }

      .cls-1, .cls-3 {
        fill: #db2e27;
        stroke: #db2e27;
      }

      .cls-1, .cls-4 {
        stroke-linecap: round;
        stroke-width: 8px;
      }

      .cls-5 {
        clip-path: url(#clippath-1);
      }

      .cls-2 {
        fill: #231f20;
        stroke: #231f20;
      }

      .cls-2, .cls-3 {
        stroke-width: 2px;
      }

      .cls-6 {
        clip-path: url(#clippath);
      }

      .cls-7, .cls-4 {
        fill: none;
      }

      .cls-4 {
        stroke: #010101;
      }
    </style>
    <clipPath id="clippath">
      <rect class="cls-7" y="48.18" width="83.92" height="15.11"/>
    </clipPath>
    <clipPath id="clippath-1">
      <rect class="cls-7" x="76.72" y="48.18" width="83.92" height="15.11"/>
    </clipPath>
  </defs>
  <g id="Layer_2-2" data-name="Layer 2">
    <g id="Right">
      <circle class="cls-1" cx="124.5" cy="69.02" r="65.02"/>
      <g>
        <path id="Left" class="cls-4" d="m29.58,59.13c.24,41.22.27,82.45.09,123.67"/>
        <line id="bund_straight" data-name="bund straight" class="cls-4" x1="14.46" y1="78.09" x2="148.56" y2="78.09"/>
        <line id="Mid_small" data-name="Mid small" class="cls-4" x1="81.22" y1="59.94" x2="81.22" y2="78.09"/>
        <path id="Right-2" class="cls-4" d="m132.27,59.13c.25,41.22.28,82.45.09,123.67"/>
        <g>
          <g id="_Mirror_Repeat_" data-name=" Mirror Repeat ">
            <g class="cls-6">
              <path class="cls-4" d="m4,52.18c24.37,8.77,50.95,7.37,75.92,6.34"/>
            </g>
          </g>
          <g id="_Mirror_Repeat_-2" data-name=" Mirror Repeat -2">
            <g class="cls-5">
              <path class="cls-4" d="m156.65,52.18c-24.37,8.77-50.95,7.37-75.92,6.34"/>
            </g>
          </g>
        </g>
      </g>
      <g>
        <path class="cls-2" d="m188.51,185.61c5.95-.09,11.9-.19,17.85-.28,3.13-25.14,9.36-49.9,18.49-73.53,1.94,22.83,3.89,45.67,5.83,68.5.12,1.46.35,3.1,1.52,3.97,1.32.98,3.3.45,4.46-.72s1.68-2.8,2.17-4.37c9.44-30.31,18.87-60.62,28.31-90.93-2.61-.74-5.27-1.5-7.99-1.46s-5.55.99-7.25,3.1c-1.78,2.21-2.05,5.24-2.27,8.07-1.74,21.88-5.54,43.6-11.34,64.76-3.63-26.14-5.3-52.54-4.99-78.93-1.79-.21-2.57-.7-3.42.97s-1.41,3.45-2.11,5.14l-4.22,10.28c-2.83,6.91-5.67,13.82-8.5,20.73-5.65,13.76-11.29,27.53-16.94,41.29-3.2,7.79-6.4,15.59-9.59,23.38v.03Z"/>
        <path class="cls-2" d="m280.75,145.65c-8.67,13.4-17.35,26.79-26.02,40.19-.71-5.6.29-11.27,1.28-16.83,1.03-5.77,2.07-11.54,3.1-17.31.45-2.5.72-3.04,3.32-3.42,2.94-.43,5.89-.85,8.83-1.27,3.16-.45,6.33-.88,9.49-1.36Z"/>
        <path class="cls-2" d="m329.58,151.3c3.77,3.45,6.75,7.94,7.63,12.97s-.61,10.6-4.45,13.96c-3.67,3.21-8.79,4.02-13.61,4.7-2.95.42-5.89.84-8.84,1.25-1.26.18-2.56.36-3.8.08s-2.44-1.13-2.76-2.36c-.45-1.71.99-3.46,2.69-3.97s3.51-.09,5.21.4c1.7.5,3.68.02,5.43-.15,2.32-.24,3.51-.76,5.85-2.15,3.61-2.14,6.8-5.77,7.07-9.97.15-2.46-.9-4.87-2.43-6.81s-3.5-3.46-5.46-4.96c-2.36-1.8-4.76-3.59-7.44-4.88-5.93-2.84-13.1-2.96-19.12-.3-.45.2-1.35-2.96-1.05-3.47.43-.73,2.49-1.09,3.25-1.33,2.6-.81,5.3-1.27,8.02-1.4,5.49-.26,11.04.83,16.02,3.17,2.84,1.34,5.49,3.08,7.8,5.2v.02Z"/>
        <path class="cls-2" d="m388.44,152.27c3.69,3.53,6.59,8.07,7.36,13.12s-.83,10.59-4.74,13.87c-3.74,3.13-8.87,3.84-13.71,4.42-2.95.36-5.91.71-8.86,1.07-1.27.15-2.56.3-3.8,0-1.24-.31-2.42-1.18-2.71-2.42-.41-1.72,1.07-3.44,2.77-3.91,1.7-.47,3.51-.02,5.2.51s3.68.1,5.44-.04c2.32-.19,3.53-.69,5.89-2.03,3.66-2.07,6.92-5.63,7.27-9.82.21-2.46-.8-4.89-2.28-6.86s-3.42-3.54-5.35-5.07c-2.33-1.85-4.69-3.69-7.34-5.03-5.87-2.97-13.04-3.23-19.11-.7-.46.19-1.29-2.99-.98-3.49.45-.72,2.52-1.04,3.28-1.26,2.61-.76,5.33-1.16,8.05-1.23,5.49-.15,11.03,1.06,15.95,3.5,2.81,1.39,5.42,3.19,7.69,5.36h-.02Z"/>
        <circle class="cls-3" cx="425.33" cy="164.15" r="21.5"/>
        <circle class="cls-3" cx="272.87" cy="131.55" r="8.35"/>
        <path class="cls-2" d="m467.45,152.25c3.12.82,6.25,1.64,9.37,2.46,1.22.32,2.47.66,3.48,1.42,1.68,1.28,2.34,3.48,2.86,5.54,1.84,7.42,3.08,14.99,3.68,22.61,5.21-1.23,10.42-2.46,15.63-3.69-3.87-2.83-6.24-7.28-8-11.75-2.56-6.51-4.1-13.37-5.62-20.19-8.64-3.56-17.9-5.61-27.22-6-3.03,14.12-6.99,28.04-11.85,41.63,2.95-.95,5.9-1.9,8.86-2.85,2.17-.7,3.77-.84,4.05-3.28.65-5.55.98-11,2.19-16.49.7-3.18,1.56-6.32,2.57-9.41h0Z"/>
      </g>
    </g>
    <path class="cls-2" d="m290.91,196.04c-4.78,12.4-9.57,24.79-14.36,37.18,5.84-25.13,10.46-50.72,13.84-76.54-.13.95-.25-.66.47-.69,1.53-.05,13.87.31,13.86,3.89,0,1.66-1.44,4.12-2.01,5.59-.73,1.88-1.45,3.77-2.18,5.65-1.5,3.87-2.99,7.75-4.49,11.63-1.71,4.43-3.42,8.86-5.13,13.28h0Z"/>
    <path class="cls-2" d="m348.06,195.77c-4.78,12.4-9.57,24.79-14.36,37.18,5.84-25.13,10.46-50.72,13.84-76.54-.13.95-.25-.66.47-.69,1.53-.05,13.87.31,13.86,3.89,0,1.66-1.44,4.12-2.01,5.59-.73,1.88-1.45,3.77-2.18,5.65-1.5,3.87-2.99,7.75-4.49,11.63-1.71,4.43-3.42,8.86-5.13,13.28h0Z"/>
  </g>
</svg>