<?xml version="1.0" encoding="UTF-8"?>
<svg id="Layer_2" data-name="Layer 2" xmlns="http://www.w3.org/2000/svg" viewBox="0 0 356.88 381.88">
  <defs>
    <style>
      .cls-1 {
        stroke: #643d19;
        stroke-miterlimit: 10;
        stroke-width: 6px;
      }

      .cls-1, .cls-2 {
        fill: none;
      }

      .cls-3, .cls-4, .cls-5 {
        fill: #f4cdcb;
      }

      .cls-6 {
        fill: #f7d4ce;
      }

      .cls-7, .cls-8, .cls-9 {
        fill: #eb8986;
      }

      .cls-10 {
        fill: #fbecea;
      }

      .cls-11 {
        fill: #643d19;
      }

      .cls-8, .cls-9, .cls-4, .cls-5 {
        stroke-linecap: round;
      }

      .cls-8, .cls-9, .cls-4, .cls-5, .cls-2 {
        stroke-linejoin: round;
        stroke-width: .25px;
      }

      .cls-8, .cls-5 {
        stroke: #fdf4f3;
      }

      .cls-9, .cls-4, .cls-2 {
        stroke: #fbecea;
      }

      .cls-12 {
        opacity: .5;
      }
    </style>
  </defs>
  <g id="Layer_2-2" data-name="Layer 2">
    <g id="third_try" data-name="third try" class="cls-12">
      <g>
        <g>
          <g>
            <path class="cls-4" d="m319.22,35.9c-4.75-4.25-6.25-10.66-11.38-14.89-2.41-1.99-5.47-3.45-8.51-2.51-1.63.5-3.24,1.34-4.16,2.97-1.33,2.35-3.12,6.01-1.87,8.63,1.52,3.16,4.77,5.75,7.95,6.88,3.32,1.18,6.41,1.26,9.78.73,2.41-.37,5.08-1.82,8.19-1.81Z"/>
            <path class="cls-10" d="m296.02,28.66c1.1,5.23,11.59,7.72,16,5.75-4.39,1.64-14.69-.75-16-5.75h0Z"/>
            <path class="cls-4" d="m317.64,36c-1.29-3.58-3.86-6.44-6.19-9.37-1.16-1.47-2.27-2.98-3.16-4.63s-.08-3.41.01-5.22c.08-1.57.42-3.09.99-4.6.77-2.01,2.6-3.49,4.83-2.71,2.07.72,3.99,1.93,5.7,3.27,2.01,1.58,4.24,2.96,5.36,5.35,1.63,3.46.47,7.19-1.57,10.18-1.58,2.33-4.47,4.55-5.98,7.74h0Z"/>
            <path class="cls-5" d="m315.52,36.46c6.23.25,11.37,4.03,17.87,4.03,3.06,0,6.27-.78,7.97-3.32,1.43-2.13-.05-3.84-.4-6.12-.2-1.33-.21-2.62-.32-3.93-.1-1.11-1.01-1.69-1.99-2.13-3.12-1.41-7.19-1.32-10.29-.22-3.23,1.15-5.6,2.96-7.82,5.4-1.58,1.73-2.68,4.42-5.03,6.3h.01Z"/>
            <path class="cls-10" d="m337.2,27.37c-4.05-2.66-14.32,2.43-16.91,6.06,2.7-3.33,12.92-8.44,16.91-6.06h0Z"/>
            <path class="cls-10" d="m332.7,53.92c.25-1.97-1.14-3.72-2.13-5.29-3.38-4.68-7.64-9-12.83-11.62,5.06,2.84,9.23,7.11,12.69,11.71,1,1.56,2.42,3.23,2.27,5.19h0Z"/>
            <g>
              <path class="cls-3" d="m313.88,34.61c2.21,7.03-.23,14.35,2.39,21.57,1.23,3.4,3.46,6.64,7.17,7.46,5.23,1.16,12.82-2.19,13.44-8.17.42-4.06-1.32-8.54-3.88-11.52-2.67-3.11-5.79-4.98-9.59-6.41-2.7-1.02-6.36-1.11-9.53-2.93Z"/>
              <path class="cls-2" d="m313.88,34.61c2.21,7.03-.23,14.35,2.39,21.57,1.23,3.4,3.46,6.64,7.17,7.46,5.23,1.16,12.82-2.19,13.44-8.17.42-4.06-1.32-8.54-3.88-11.52-2.67-3.11-5.79-4.98-9.59-6.41-2.7-1.02-6.36-1.11-9.53-2.93,0,0,3.18,1.81,0,0Z"/>
            </g>
            <path class="cls-10" d="m333.23,55.18c.89-4.68-7.88-13.79-12.02-15.58,3.88,1.95,12.69,11.08,12.02,15.58h0Z"/>
            <path class="cls-4" d="m316.41,33.94c-6.42,2.3-13.49-.35-20.05,2.38-3.08,1.29-5.95,3.63-6.42,7.55-.66,5.56,3.19,4.97,6.6,6.73-1.45,3.5-2.55,7.01,2.16,7.59,3.85.47,7.91-1.34,10.5-4.04,2.7-2.81,4.21-6.11,5.24-10.13.74-2.86.53-6.74,1.96-10.1v.02Z"/>
            <path class="cls-10" d="m299.59,54.32c4.95,1.02,12.75-7.95,13.69-12.48-.5,1.55-1.29,2.99-2.22,4.32-2.22,3-7.43,8.77-11.47,8.16h0Z"/>
            <path class="cls-10" d="m313.17,36.48l.33-2.04c.06-.36.26-.68.55-.9l1.67-1.21c.46-.33,1.07-.36,1.55-.06l.74.44c.47.3.73.86.64,1.41l-.33,2.04c-.06.36-.26.68-.55.9l-1.67,1.21c-.46.33-1.07.36-1.55.06l-.74-.44c-.47-.3-.73-.86-.64-1.41Z"/>
            <path class="cls-10" d="m314.07,10.51c-1.56,1.09-1.92,3.19-2.14,4.96-.46,5.45.54,11.42,3.9,15.84-3.21-3.94-5.91-17.1-1.76-20.8h0Z"/>
          </g>
          <g>
            <path class="cls-9" d="m118.84,320.57c-7.29,3.48-15.58,2.6-23.03,6.5-3.5,1.83-6.69,4.57-7.03,8.24-.18,1.95.05,4.04,1.52,5.67,2.14,2.36,5.61,5.74,9.31,5.4,4.47-.41,9.07-2.92,11.92-5.92s4.55-6.44,5.54-10.3c.71-2.75.27-6.22,1.77-9.58h0Z"/>
            <path class="cls-9" d="m118.22,322.32c-4.85,0-9.45,1.66-14.03,3.02-2.29.68-4.6,1.29-6.97,1.61s-4.06-1.25-6.16-2.06c-1.82-.71-3.45-1.67-4.95-2.87-2.01-1.62-2.88-4.18-.9-6.28,1.85-1.97,4.18-3.56,6.59-4.89,2.83-1.57,5.51-3.43,8.87-3.71,4.86-.4,8.72,2.31,11.28,5.68,1.99,2.62,3.24,6.63,6.28,9.5h0Z"/>
            <path class="cls-8" d="m117.74,324.79c3.26-6.65,10.19-10.73,13.28-17.77,1.45-3.31,2.06-7.1-.12-9.93-1.83-2.37-4.57-1.45-7.43-1.97-1.68-.3-3.19-.8-4.81-1.18-1.36-.33-2.48.44-3.46,1.31-3.15,2.83-4.99,7.26-5.17,11.05-.19,3.95.83,7.23,2.65,10.58,1.3,2.39,3.95,4.63,5.05,7.91h0Z"/>
            <path class="cls-10" d="m146.57,313.02c-2.27-1.04-4.91-.21-7.24.25-7.09,1.83-14.16,4.67-19.87,9.34,5.86-4.45,12.86-7.24,19.91-9.18,2.32-.46,4.91-1.36,7.21-.41h0Z"/>
            <g>
              <path class="cls-7" d="m114.75,326.15c7,.2,12.51,5.2,19.82,5.06,3.45-.06,7.12-1.18,9.2-4.63,2.96-4.87,2.83-13.66-2.19-16.35-3.42-1.83-7.99-1.64-11.56-.08-3.72,1.6-6.51,4.1-9.17,7.43-1.9,2.36-3.33,6.01-6.1,8.58Z"/>
              <path class="cls-2" d="m114.75,326.15c7,.2,12.51,5.2,19.82,5.06,3.45-.06,7.12-1.18,9.2-4.63,2.96-4.87,2.83-13.66-2.19-16.35-3.42-1.83-7.99-1.64-11.56-.08-3.72,1.6-6.51,4.1-9.17,7.43-1.9,2.36-3.33,6.01-6.1,8.58,0,0,2.77-2.57,0,0Z"/>
            </g>
            <path class="cls-9" d="m115.18,322.84c-.34,7.85-6.85,14.46-6.74,22.64.05,3.84,1.45,7.86,5.87,9.91,6.26,2.9,7.39-1.5,11.1-4.51,3.45,2.94,7.06,5.5,9.99.63,2.39-3.99,2.19-9.09.24-12.94-2.03-4.02-5.21-6.94-9.47-9.63-3.03-1.91-7.71-3.21-11-6.08h.01Z"/>
          </g>
          <g>
            <path class="cls-4" d="m53.94,182.97c-1.4,3.78-4.66,6.36-5.96,10.35-.61,1.87-.8,3.97.35,5.39.61.77,1.43,1.43,2.52,1.5,1.59.09,4,.1,5.21-1.31,1.46-1.7,2.22-4.21,2.2-6.28-.03-2.15-.62-3.88-1.61-5.61-.71-1.23-2.07-2.32-2.71-4.04h0Z"/>
            <path class="cls-4" d="m54.32,183.82c-1.74,1.69-2.79,3.89-3.96,5.97-.58,1.04-1.2,2.07-1.93,3s-1.89.97-2.91,1.41c-.9.38-1.81.61-2.77.7-1.29.12-2.48-.49-2.51-1.93-.02-1.34.25-2.73.65-4.04.46-1.54.77-3.15,1.87-4.42,1.6-1.84,3.92-2.21,6.01-1.9,1.63.24,3.47,1.24,5.55,1.2h0Z"/>
            <path class="cls-5" d="m55.01,184.86c-1.15-3.52-.1-7.39-1.45-10.99-.63-1.69-1.73-3.26-3.5-3.51-1.48-.21-2.14,1.07-3.34,1.89-.71.47-1.42.83-2.13,1.25-.6.36-.73,1.03-.78,1.68-.14,2.11.74,4.33,2.01,5.74,1.31,1.47,2.81,2.29,4.63,2.85,1.3.41,3.03.28,4.56,1.07Z"/>
            <g>
              <path class="cls-3" d="m61.21,170.61c-1.38.26-3.54,4.36-4.29,6.09-1,2.31-1.82,4.58-2.06,6.79"/>
              <path class="cls-10" d="m61.21,170.61c-1.18.4-1.86,1.61-2.55,2.59-1.91,3.12-3.45,6.62-3.8,10.29.62-3.61,2.14-7.03,3.96-10.18.66-.98,1.24-2.2,2.38-2.69h0Z"/>
            </g>
            <g>
              <path class="cls-3" d="m54.41,186.39c2.57-2.37,6.29-2.5,8.85-5.1,1.2-1.23,2.13-2.9,1.67-4.86-.65-2.77-3.75-5.87-6.48-5.07-1.86.54-3.42,2.2-4.16,4s-.9,3.74-.69,5.85c.15,1.5.91,3.31.81,5.19h0Z"/>
              <path class="cls-2" d="m54.41,186.39c2.57-2.37,6.29-2.5,8.85-5.1,1.2-1.23,2.13-2.9,1.67-4.86-.65-2.77-3.75-5.87-6.48-5.07-4.02,1.29-5.35,5.94-4.85,9.85.15,1.5.91,3.31.81,5.19h0Z"/>
            </g>
            <path class="cls-4" d="m53.42,185.06c2.62,2.93,2.59,7.55,5.49,10.44,1.36,1.35,3.26,2.31,5.55,1.49,3.25-1.15,2.12-3.11,2.39-5.48,2.26-.15,4.44-.49,3.79-3.26-.53-2.26-2.38-4.01-4.43-4.71s-4.28-.66-6.74-.14c-1.75.37-3.88,1.54-6.05,1.66h-.01Z"/>
          </g>
          <g>
            <path class="cls-11" d="m16.04,377.9c28.33-17.46,52.33-42.06,68.4-71.22,15.45-28.22,23.45-60.15,35.12-89.28,3.85-9.32,7.94-19,13.29-27.52,10.72-17.29,25.42-32.14,42.26-43.62,8.57-5.82,17.07-12.08,26.13-17.28,43.97-26.56,98.25-49.71,121.65-98.59,4.44-9.65,7.34-19.95,8.76-30.4-3.72,22.13-14.99,42.41-30.88,58.08-31.32,30.67-72.69,46.71-110.47,67.92-11.34,7.03-22.87,13.79-33.62,21.87-17.29,13.38-32.13,30.25-42.12,49.81-21.68,41.65-30.74,89.44-62.68,124.69-13.25,15.03-29.1,27.66-46.54,37.48-5.04,2.86-6.82,9.27-3.97,14.31,2.92,5.18,9.64,6.9,14.69,3.74h-.01Z"/>
            <path class="cls-11" d="m34.02,376.85c4.87-10.26,12.32-19.18,19.12-28.58,11.99-15.91,18.27-32.1,18.65-52.18.91-29.82-11.97-58.09,4.32-86.14,16.45-30.37,55.81-49.83,56.93-87.67-.61,11.92-6.05,22.93-13.23,32.23-23.1,28.93-57.18,46.02-58.52,87.99-1.08,23.73,5.48,46.75-1.21,69.76-4.32,17.03-16.56,29.46-27.23,43.02-3.75,4.83-7.39,10.01-10.44,15.73-3.84,7.87,7.5,13.71,11.62,5.82h-.02Z"/>
            <path class="cls-11" d="m92.93,281.73c45.39-83.49,68.44-15.5,132.37-80.75,14.49-14.73,26.59-31.27,41.77-45.18,15.02-14.07,33.72-22.96,52.38-31.32l37.42-16.92-37.77,16.11c-18.87,7.95-38.06,16.62-53.49,30.48-29.79,26.06-52.25,66.87-94.3,73.61-15.2,2.17-31.83.17-46.13,7.65-17.62,8.9-28.47,26.48-38.3,42.76-2.26,4.03,3.55,7.57,6.05,3.53h0Z"/>
            <path class="cls-11" d="m209.8,215.72c8.44-7.49,17.87-15.55,29.38-16.8,5.82-.6,11.05,1.59,16.25,4.15,11.64,6.22,23.66,3.39,34.88-2.07,10.63-5.09,20.68-11.82,32.59-13.31,5.82-.76,11.97.03,17,3.25-4.96-3.36-11.16-4.35-17.06-3.74-17.88,1.61-32.08,15.53-49.84,17.25-5.83.59-11.33-.85-16.48-3.62-5.26-2.84-11.35-5.41-17.55-4.89-6.21.42-12.09,2.85-17.32,6.02-5.23,3.12-9.93,6.91-14.47,10.76-.84.72-.94,1.98-.24,2.82.73.86,2.04.94,2.87.19h0Z"/>
            <path class="cls-11" d="m63.54,224.1c-12.48-6.81-5.37-23.41-9.61-34.47-1.48-4.04-4.38-7.91-8.66-9.14,4.11,1.44,6.74,5.36,7.95,9.37,2.54,8.43-.8,17.11,1.23,25.78.76,3.32,2.3,6.66,4.84,9.08,1.25.96,3.67,3.54,4.99,1.46.41-.77.06-1.74-.74-2.08h0Z"/>
            <path class="cls-11" d="m55.56,347.08c4.91-4.13,11.39-6.55,17.93-6.55,6.67.02,14.17,2.98,20.81.21,6.72-2.56,11.62-7.73,16.97-12.22l15.63-13.58-16.26,12.81c-5.35,4.07-10.54,9-16.97,11.1-6.78,2.29-13.14-1.05-20.1-1.32-7.26-.35-14.63,1.96-20.51,6.43-2.09,1.69.38,4.81,2.5,3.11h0Z"/>
          </g>
          <g>
            <path class="cls-4" d="m100.84,161.99c4.78.24,8.67,3.27,13.66,3.32,2.34.02,4.82-.57,6.15-2.55.71-1.06,1.26-2.31,1.03-3.7-.32-2-1.01-4.98-2.98-5.92-2.37-1.14-5.5-1.1-7.88-.26-2.49.87-4.34,2.28-6.06,4.18-1.23,1.35-2.1,3.46-3.93,4.92Z"/>
            <path class="cls-10" d="m117.8,155.27c-2.6-2.12-7.34-.08-9.73,1.62-.94.69-1.76,1.55-2.32,2.57,1.91-3.03,8.81-6.42,12.05-4.18h0Z"/>
            <path class="cls-4" d="m101.71,161.19c2.44,1.48,5.29,1.93,8.03,2.56,1.37.31,2.73.66,4.02,1.21s1.65,1.95,2.45,3.05c.7.96,1.21,2,1.59,3.15.5,1.54.13,3.26-1.53,3.85-1.56.56-3.24.75-4.86.78-1.92.03-3.87.28-5.65-.6-2.58-1.26-3.66-3.97-3.89-6.68-.17-2.1.47-4.76-.15-7.34h0Z"/>
            <path class="cls-5" d="m102.74,159.92c-3.76,2.79-8.54,3-12.33,6.08-1.78,1.45-3.29,3.41-3.08,5.7.17,1.91,1.84,2.22,3.12,3.38.75.68,1.36,1.43,2.04,2.14.58.61,1.39.51,2.16.31,2.48-.66,4.81-2.61,6.1-4.72s1.88-4.37,2.02-6.84c.1-1.76-.52-3.85-.04-6.05h0Z"/>
            <path class="cls-10" d="m94.38,175.45c3.75-.43,7.2-8.05,7.01-11.5-.13,3.32-3.49,10.85-7.01,11.5h0Z"/>
            <path class="cls-10" d="m84.48,157.84c2.39,3.21,12.98,3.85,16.7,2.81-4.29.7-8.72.17-12.93-.87-1.32-.44-2.93-.73-3.78-1.94h0Z"/>
            <g>
              <path class="cls-3" d="m104.58,160.22c-4.61-3.06-6.63-8.48-11.57-11.46-2.32-1.4-5.15-2.24-7.7-.97-3.6,1.79-6.45,7.32-3.99,11.1,1.68,2.57,4.8,4.36,7.7,4.89s5.73.18,8.61-.78c2.05-.68,4.23-2.35,6.95-2.79h0Z"/>
              <path class="cls-2" d="m104.58,160.22c-4.61-3.06-6.63-8.48-11.57-11.46-2.32-1.4-5.15-2.24-7.7-.97-3.6,1.79-6.45,7.32-3.99,11.1,1.68,2.57,4.8,4.36,7.7,4.89,3.02.55,5.73.18,8.61-.78,2.05-.68,4.23-2.35,6.95-2.79,0,0-2.72.44,0,0h0Z"/>
            </g>
            <path class="cls-10" d="m83.57,157.34c1.84,3.24,10.96,4.34,14.36,3.42-3.79.54-7.67-.16-11.26-1.37-1.12-.48-2.51-.9-3.1-2.05h0Z"/>
            <path class="cls-4" d="m103.42,161.81c2.66-4.37,8.03-6.16,10.57-10.84,1.2-2.21,1.77-4.92.19-7.44-2.24-3.56-4.2-1.4-7.02-.81-.81-2.73-1.81-5.29-4.84-3.41-2.47,1.54-3.98,4.51-4.23,7.31s.43,5.54,1.72,8.38c.92,2.01,2.86,4.18,3.61,6.82h0Z"/>
            <path class="cls-10" d="m103.62,141.98c-3.46,1.85-3.73,10.53-2.11,13.74-1.28-3.19-1.06-11.78,2.11-13.74h0Z"/>
            <path class="cls-10" d="m104.11,158.8l.77,1.35c.14.24.17.52.1.78l-.4,1.5c-.11.41-.45.71-.88.77l-.63.09c-.42.05-.83-.15-1.04-.52l-.77-1.35c-.14-.24-.17-.52-.1-.78l.4-1.5c.11-.41.45-.71.88-.77l.63-.09c.42-.05.83.15,1.04.52Z"/>
            <path class="cls-10" d="m115.82,174.39c.81-4.39-6.83-10.64-10.83-11.31,3.82.93,11.38,7.06,10.83,11.31h0Z"/>
          </g>
          <g>
            <path class="cls-4" d="m210.64,125.93c4.67-4.2,11.1-5,15.78-9.57,2.2-2.15,3.95-4.99,3.37-8.07-.32-1.65-.97-3.32-2.46-4.39-2.16-1.55-5.56-3.7-8.26-2.74-3.27,1.15-6.13,4.06-7.58,7.06-1.5,3.12-1.91,6.13-1.76,9.5.12,2.39,1.25,5.17.91,8.21h-.01Z"/>
            <path class="cls-10" d="m220.19,103.98c-5.25.52-8.8,10.52-7.33,15.05-1.12-4.5,2.26-14.27,7.33-15.05h0Z"/>
            <path class="cls-4" d="m210.71,124.37c3.64-.88,6.71-3.09,9.84-5.05,1.56-.98,3.15-1.91,4.86-2.6,1.67-.68,3.34.28,5.11.57,1.53.24,2.98.74,4.39,1.46,1.89.96,3.14,2.91,2.15,5.01-.93,1.96-2.31,3.7-3.81,5.24-1.76,1.81-3.34,3.84-5.8,4.68-3.56,1.22-7.09-.3-9.8-2.61-2.12-1.8-3.97-4.86-6.94-6.68v-.02Z"/>
            <path class="cls-5" d="m210.5,122.25c-.9,6.08-5.16,10.7-5.84,17.07-.32,2.99.1,6.22,2.4,8.15,1.93,1.63,3.77.36,6.04.26,1.33-.06,2.58.07,3.89.1,1.1.02,1.76-.82,2.29-1.72,1.71-2.9,2.06-6.9,1.31-10.04-.78-3.28-2.3-5.8-4.46-8.23-1.53-1.72-4.04-3.09-5.64-5.59h0Z"/>
            <path class="cls-10" d="m217.09,144.45c3.04-3.68-.87-14.28-4.13-17.2,2.97,3.02,6.88,13.52,4.13,17.2h0Z"/>
            <path class="cls-10" d="m191.57,137.23c1.9.45,3.76-.72,5.41-1.52,4.95-2.81,9.61-6.52,12.73-11.33-3.32,4.65-7.94,8.27-12.81,11.19-1.63.82-3.42,2.03-5.32,1.67h0Z"/>
            <g>
              <path class="cls-3" d="m212.48,120.84c-7.12,1.43-14.02-1.75-21.37.06-3.46.85-6.87,2.69-8.06,6.23-1.69,5,.78,12.78,6.56,14.02,3.94.84,8.5-.39,11.7-2.57s5.49-5.14,7.3-8.71c1.28-2.54,1.77-6.1,3.88-9.03h0Z"/>
              <path class="cls-2" d="m212.48,120.84c-7.12,1.43-14.02-1.75-21.37.06-3.46.85-6.87,2.69-8.06,6.23-1.69,5,.78,12.78,6.56,14.02,3.94.84,8.5-.39,11.7-2.57,3.32-2.29,5.49-5.14,7.3-8.71,1.28-2.54,1.77-6.1,3.88-9.03,0,0-2.11,2.92,0,0h0Z"/>
            </g>
            <path class="cls-10" d="m190.28,137.61c4.49,1.37,14.34-6.26,16.53-10.13-2.32,3.6-12.19,11.25-16.53,10.13h0Z"/>
            <path class="cls-4" d="m212.87,123.39c-1.57-6.53,1.77-13.17-.21-19.88-.93-3.16-2.92-6.21-6.72-7.08-5.38-1.24-5.21,2.59-7.29,5.75-3.27-1.79-6.59-3.25-7.66,1.31-.87,3.72.46,7.89,2.84,10.71,2.47,2.94,5.54,4.76,9.37,6.2,2.72,1.03,6.54,1.23,9.68,2.99Z"/>
            <path class="cls-10" d="m194.69,104.75c-1.53,4.74,6.43,13.33,10.77,14.74-1.47-.66-2.79-1.58-4-2.64-2.7-2.5-7.8-8.2-6.77-12.09h0Z"/>
            <path class="cls-10" d="m210.5,119.89l2.3.64c.27.08.49.25.63.48l1.19,2.07c.21.37.18.83-.08,1.16l-.78,1.01c-.26.33-.7.48-1.1.36l-2.3-.64c-.27-.08-.49-.25-.63-.48l-1.19-2.07c-.21-.37-.18-.83.08-1.16l.78-1.01c.26-.33.7-.48,1.1-.36Z"/>
            <path class="cls-10" d="m236.06,123.59c-.9-1.65-2.91-2.22-4.63-2.63-5.28-1.03-11.23-.68-15.93,2.14,1.58-.9,3.32-1.48,5.09-1.87,4.09-.77,12.75-1.37,15.46,2.35h0Z"/>
          </g>
          <g>
            <path class="cls-4" d="m335.65,115.21c1.47-4.56,5.39-7.54,6.73-12.35.62-2.26.69-4.8-.87-6.6-.84-.96-1.91-1.81-3.31-1.95-2.02-.2-5.08-.31-6.48,1.35-1.71,2.01-2.48,5.02-2.29,7.55.2,2.63,1.09,4.77,2.49,6.93.99,1.53,2.8,2.93,3.74,5.06h0Z"/>
            <path class="cls-10" d="m333.53,97.11c-2.72,1.96-1.97,7.06-.95,9.83.42,1.08,1.05,2.1,1.88,2.9-2.43-2.62-3.93-10.17-.94-12.72h0Z"/>
            <path class="cls-4" d="m335.1,114.16c2.06-1.97,3.24-4.61,4.54-7.09.65-1.24,1.34-2.47,2.21-3.57s2.31-1.09,3.58-1.58c1.1-.42,2.25-.66,3.45-.73,1.62-.09,3.18.72,3.33,2.48.13,1.64-.1,3.32-.51,4.9-.47,1.87-.73,3.81-2.02,5.31-1.88,2.17-4.79,2.51-7.45,2.03-2.07-.37-4.49-1.68-7.12-1.74h0Z"/>
            <path class="cls-5" d="m334.14,112.85c1.74,4.35.7,9.02,2.7,13.47.94,2.09,2.45,4.06,4.71,4.45,1.89.33,2.63-1.21,4.07-2.14.85-.55,1.73-.94,2.6-1.43.74-.41.85-1.22.86-2.01.02-2.57-1.29-5.33-2.99-7.12s-3.74-2.94-6.09-3.72c-1.67-.55-3.85-.49-5.85-1.52h0Z"/>
            <path class="cls-10" d="m346.98,124.93c.55-3.73-5.93-9.02-9.31-9.73,3.17.97,9.59,6.17,9.31,9.73h0Z"/>
            <path class="cls-10" d="m327.41,129.96c3.73-1.51,7.06-11.52,7.02-15.41-.43,4.33-2.08,8.48-4.17,12.26-.77,1.16-1.46,2.65-2.85,3.15h0Z"/>
            <g>
              <path class="cls-3" d="m334.9,111.16c-4.14,3.67-9.9,4.22-14.05,8.23-1.95,1.89-3.49,4.4-2.92,7.19.81,3.94,5.41,8.12,9.7,6.71,2.92-.95,5.46-3.51,6.71-6.18,1.32-2.78,1.65-5.48,1.47-8.52-.12-2.16-1.18-4.7-.9-7.43h0Z"/>
              <path class="cls-2" d="m334.9,111.16c-4.14,3.67-9.9,4.22-14.05,8.23-1.95,1.89-3.49,4.4-2.92,7.19.81,3.94,5.41,8.12,9.7,6.71,2.92-.95,5.46-3.51,6.71-6.18,1.32-2.78,1.65-5.48,1.47-8.52-.12-2.16-1.18-4.7-.9-7.43,0,0-.27,2.73,0,0h0Z"/>
            </g>
            <path class="cls-10" d="m326.7,130.7c3.61-.94,7.02-9.47,7.01-13-.45,3.8-2.13,7.37-4.23,10.53-.75.96-1.52,2.19-2.78,2.47h0Z"/>
            <path class="cls-4" d="m336.14,112.68c-3.54-3.7-3.88-9.34-7.76-13.01-1.82-1.72-4.3-2.97-7.14-2.1-4.02,1.25-2.43,3.7-2.6,6.57-2.85.08-5.58.39-4.53,3.8.85,2.78,3.33,5.01,5.97,5.97,2.75.99,5.47,1.01,8.53.5,2.18-.37,4.77-1.69,7.53-1.73h0Z"/>
            <path class="cls-10" d="m317.03,107.38c.9,3.82,9.23,6.31,12.74,5.58-3.42.41-11.65-2.02-12.74-5.58h0Z"/>
            <path class="cls-10" d="m333.4,111.24l1.5-.4c.27-.07.55-.03.79.1l1.34.77c.36.22.57.62.52,1.04l-.08.64c-.06.42-.36.77-.77.87l-1.5.4c-.27.07-.55.03-.79-.1l-1.34-.77c-.36-.22-.57-.62-.52-1.04l.08-.64c.06-.42.36-.77.77-.87Z"/>
            <path class="cls-10" d="m351.48,103.94c-3.99-1.92-12.07,3.88-13.72,7.55,1.85-3.43,9.79-9.19,13.72-7.55h0Z"/>
          </g>
          <g>
            <path class="cls-4" d="m226.97,182.4c1.47-4.56,5.39-7.54,6.73-12.35.62-2.26.69-4.8-.87-6.6-.84-.96-1.91-1.81-3.31-1.95-2.02-.2-5.08-.31-6.48,1.35-1.71,2.01-2.48,5.02-2.29,7.55.2,2.63,1.09,4.77,2.49,6.93.99,1.53,2.8,2.93,3.74,5.06h0Z"/>
            <path class="cls-10" d="m224.84,164.29c-2.72,1.96-1.97,7.06-.95,9.83.42,1.08,1.05,2.1,1.88,2.9-2.43-2.62-3.93-10.17-.94-12.72h0Z"/>
            <path class="cls-4" d="m226.42,181.34c2.06-1.97,3.24-4.61,4.54-7.09.65-1.24,1.34-2.47,2.21-3.57s2.31-1.09,3.58-1.58c1.1-.42,2.25-.66,3.45-.73,1.62-.09,3.18.72,3.33,2.48.13,1.64-.1,3.32-.51,4.9-.47,1.87-.73,3.81-2.02,5.31-1.88,2.17-4.79,2.51-7.45,2.03-2.07-.37-4.49-1.68-7.12-1.74h0Z"/>
            <path class="cls-5" d="m225.45,180.03c1.74,4.35.7,9.02,2.7,13.47.94,2.09,2.45,4.06,4.71,4.45,1.89.33,2.63-1.21,4.07-2.14.85-.55,1.73-.94,2.6-1.43.74-.41.85-1.22.86-2.01.02-2.57-1.29-5.33-2.99-7.12s-3.74-2.94-6.09-3.72c-1.67-.55-3.85-.49-5.85-1.52h0Z"/>
            <path class="cls-10" d="m238.3,192.12c.55-3.73-5.93-9.02-9.31-9.73,3.17.97,9.59,6.17,9.31,9.73h0Z"/>
            <path class="cls-10" d="m218.73,197.14c3.73-1.51,7.06-11.52,7.02-15.41-.43,4.33-2.08,8.48-4.17,12.26-.77,1.16-1.46,2.65-2.85,3.15h0Z"/>
            <g>
              <path class="cls-3" d="m226.22,178.34c-4.14,3.67-9.9,4.22-14.05,8.23-1.95,1.89-3.49,4.4-2.92,7.19.81,3.94,5.41,8.12,9.7,6.71,2.92-.95,5.46-3.51,6.71-6.18s1.65-5.48,1.47-8.52c-.12-2.16-1.18-4.7-.9-7.43h0Z"/>
              <path class="cls-2" d="m226.22,178.34c-4.14,3.67-9.9,4.22-14.05,8.23-1.95,1.89-3.49,4.4-2.92,7.19.81,3.94,5.41,8.12,9.7,6.71,2.92-.95,5.46-3.51,6.71-6.18,1.32-2.78,1.65-5.48,1.47-8.52-.12-2.16-1.18-4.7-.9-7.43,0,0-.27,2.73,0,0h0Z"/>
            </g>
            <path class="cls-10" d="m218.03,197.88c3.61-.94,7.02-9.47,7.01-13-.45,3.8-2.13,7.37-4.23,10.53-.75.96-1.52,2.19-2.78,2.47h0Z"/>
            <path class="cls-4" d="m227.46,179.87c-3.54-3.7-3.88-9.34-7.76-13.01-1.82-1.72-4.3-2.97-7.14-2.1-4.02,1.25-2.43,3.7-2.6,6.57-2.85.08-5.58.39-4.53,3.8.85,2.78,3.33,5.01,5.97,5.97,2.75.99,5.47,1.01,8.53.5,2.18-.37,4.77-1.69,7.53-1.73h0Z"/>
            <path class="cls-10" d="m208.36,174.56c.9,3.82,9.23,6.31,12.74,5.58-3.42.41-11.65-2.02-12.74-5.58h0Z"/>
            <path class="cls-10" d="m224.73,178.42l1.5-.4c.27-.07.55-.03.79.1l1.34.77c.36.22.57.62.52,1.04l-.08.64c-.06.42-.36.77-.77.87l-1.5.4c-.27.07-.55.03-.79-.1l-1.34-.77c-.36-.22-.57-.62-.52-1.04l.08-.64c.06-.42.36-.77.77-.87Z"/>
            <path class="cls-10" d="m242.8,171.12c-3.99-1.92-12.07,3.88-13.72,7.55,1.85-3.43,9.79-9.19,13.72-7.55h0Z"/>
          </g>
          <g>
            <path class="cls-9" d="m280.04,67.82c-6.07-.71-11.04-4.6-17.38-5.1-2.99-.23-6.13.24-7.82,2.45-.91,1.18-1.6,2.61-1.3,4.25.43,2.38,1.29,5.93,3.8,7.21,3.03,1.54,6.99,1.77,10.03,1,3.16-.81,5.5-2.3,7.7-4.38,1.55-1.48,2.68-3.87,4.99-5.43h-.01Z"/>
            <path class="cls-6" d="m258.51,74.22c3.11,2.59,9.02.83,12.19-.97,1.24-.71,2.36-1.67,3.13-2.88-2.63,3.67-11.44,6.69-15.31,3.85h0Z"/>
            <path class="cls-9" d="m278.94,68.69c-3.11-1.95-6.72-2.73-10.21-3.71-1.74-.48-3.47-1.02-5.11-1.78s-2.1-2.43-3.12-3.8c-.89-1.19-1.55-2.46-2.03-3.83-.64-1.84-.17-3.83,1.95-4.38,1.98-.51,4.11-.6,6.19-.48,2.44.14,4.92.01,7.18,1.19,3.29,1.69,4.66,4.98,4.95,8.18.22,2.49-.59,5.55.21,8.62h0Z"/>
            <path class="cls-8" d="m277.64,70.08c4.77-2.95,10.85-2.78,15.66-6.05,2.26-1.53,4.18-3.72,3.92-6.42-.22-2.26-2.35-2.77-3.97-4.24-.95-.86-1.72-1.79-2.6-2.7-.74-.76-1.77-.72-2.75-.55-3.16.55-6.12,2.65-7.75,5-1.71,2.45-2.38,4.97-2.56,7.84-.12,2.05.66,4.56.05,7.1h0Z"/>
            <path class="cls-6" d="m288.26,52.59c-4.5.06-9.13,8.79-8.9,12.89.08-1.39.42-2.74.92-4.03,1.3-3.04,4.34-8.58,7.98-8.85h0Z"/>
            <path class="cls-10" d="m300.87,74.13c-2.95-3.91-16.49-5.65-21.24-4.76,5.55-.46,11.14.56,16.44,2.15,1.67.63,3.69,1.1,4.78,2.62h.01Z"/>
            <g>
              <path class="cls-7" d="m275.18,69.76c4.4,2.95,5.93,8.37,10.68,11.22,2.23,1.34,5.04,2.1,7.76.73,3.85-1.93,7.31-7.62,5.17-11.37-1.45-2.55-4.46-4.26-7.37-4.71-3.02-.46-5.83.01-8.87,1.07-2.17.75-4.55,2.51-7.36,3.05h0Z"/>
              <path class="cls-2" d="m275.18,69.76c4.4,2.95,5.93,8.37,10.68,11.22,2.23,1.34,5.04,2.1,7.76.73,3.85-1.93,7.31-7.62,5.17-11.37-1.45-2.55-4.46-4.26-7.37-4.71-3.02-.46-5.83.01-8.87,1.07-2.17.75-4.55,2.51-7.36,3.05,0,0,2.81-.54,0,0h0Z"/>
            </g>
            <path class="cls-6" d="m294.62,72.94c-.74-1.13-2.19-1.54-3.39-2.03-3.76-1.31-7.81-2.18-11.82-1.89,4-.05,7.96.83,11.76,2.04,1.19.48,2.64.81,3.44,1.88h0Z"/>
            <path class="cls-9" d="m276.78,67.81c-3.38,4.9-10.2,6.52-13.43,11.8-1.52,2.48-2.23,5.62-.22,8.71,2.85,4.37,5.35,2.01,8.93,1.58,1.03,3.27,2.31,6.37,6.16,4.43,3.14-1.59,5.06-4.94,5.36-8.2.31-3.39-.55-6.55-2.2-9.98-1.17-2.44-3.65-5.16-4.6-8.32v-.02Z"/>
            <path class="cls-6" d="m276.55,91.05c4.31-1.72,4.67-12.35,2.66-15.94,1.68,3.61,1.39,14.07-2.66,15.94h0Z"/>
            <path class="cls-6" d="m275.94,71.33l-.98-1.64c-.19-.32-.24-.71-.14-1.07l.44-1.5c.16-.54.66-.94,1.22-.97l.81-.04c.5-.03.97.22,1.23.66l.98,1.64c.19.32.24.71.14,1.07l-.44,1.5c-.16.54-.66.94-1.22.97l-.81.04c-.5.03-.97-.22-1.23-.66Z"/>
            <path class="cls-6" d="m260.99,51.96c-.52,1.73.6,3.45,1.5,4.86,3.02,4.2,7.26,7.9,12.29,9.37-4.42-1.14-14.62-9.28-13.78-14.22h0Z"/>
          </g>
          <g>
            <path class="cls-9" d="m83.07,213.4c-6.07-.71-11.04-4.6-17.38-5.1-2.99-.23-6.13.24-7.82,2.45-.91,1.18-1.6,2.61-1.3,4.25.43,2.38,1.29,5.93,3.8,7.21,3.03,1.54,6.99,1.77,10.03,1s5.5-2.3,7.7-4.38c1.55-1.48,2.68-3.87,4.99-5.43h-.01Z"/>
            <path class="cls-6" d="m61.53,219.8c3.11,2.59,9.02.83,12.19-.97,1.24-.71,2.36-1.67,3.13-2.88-2.63,3.67-11.44,6.69-15.31,3.85h0Z"/>
            <path class="cls-9" d="m81.96,214.27c-3.11-1.95-6.72-2.73-10.21-3.71-1.74-.48-3.47-1.02-5.11-1.78-1.61-.74-2.1-2.43-3.12-3.8-.89-1.19-1.55-2.46-2.03-3.83-.64-1.84-.17-3.83,1.95-4.38,1.98-.51,4.11-.6,6.19-.48,2.44.14,4.92.01,7.18,1.19,3.29,1.69,4.66,4.98,4.95,8.18.22,2.49-.59,5.55.21,8.62h0Z"/>
            <path class="cls-8" d="m80.66,215.66c4.77-2.95,10.85-2.78,15.66-6.05,2.26-1.53,4.18-3.72,3.92-6.42-.22-2.26-2.35-2.77-3.97-4.24-.95-.86-1.72-1.79-2.6-2.7-.74-.76-1.77-.72-2.75-.55-3.16.55-6.12,2.65-7.75,5-1.71,2.45-2.38,4.97-2.56,7.84-.12,2.05.66,4.56.05,7.1h0Z"/>
            <path class="cls-6" d="m91.28,198.18c-4.5.06-9.13,8.79-8.9,12.89.08-1.39.42-2.74.92-4.03,1.3-3.04,4.34-8.58,7.98-8.85h0Z"/>
            <path class="cls-10" d="m103.89,219.72c-2.95-3.91-16.49-5.65-21.24-4.76,5.55-.46,11.14.56,16.44,2.15,1.67.63,3.69,1.1,4.78,2.62h.01Z"/>
            <g>
              <path class="cls-7" d="m78.2,215.33c4.4,2.95,5.93,8.37,10.68,11.22,2.23,1.34,5.04,2.1,7.76.73,3.85-1.93,7.31-7.62,5.17-11.37-1.45-2.55-4.46-4.26-7.37-4.71-3.02-.46-5.83.01-8.87,1.07-2.17.75-4.55,2.51-7.36,3.05h0Z"/>
              <path class="cls-2" d="m78.2,215.33c4.4,2.95,5.93,8.37,10.68,11.22,2.23,1.34,5.04,2.1,7.76.73,3.85-1.93,7.31-7.62,5.17-11.37-1.45-2.55-4.46-4.26-7.37-4.71-3.02-.46-5.83.01-8.87,1.07-2.17.75-4.55,2.51-7.36,3.05,0,0,2.81-.54,0,0h0Z"/>
            </g>
            <path class="cls-6" d="m97.64,218.53c-.74-1.13-2.19-1.54-3.39-2.03-3.76-1.31-7.81-2.18-11.82-1.89,4-.05,7.96.83,11.76,2.04,1.19.48,2.64.81,3.44,1.88h0Z"/>
            <path class="cls-9" d="m79.81,213.39c-3.38,4.9-10.2,6.52-13.43,11.8-1.52,2.48-2.23,5.62-.22,8.71,2.85,4.37,5.35,2.01,8.93,1.58,1.03,3.27,2.31,6.37,6.16,4.43,3.14-1.59,5.06-4.94,5.36-8.2.31-3.39-.55-6.55-2.2-9.98-1.17-2.44-3.65-5.16-4.6-8.32v-.02Z"/>
            <path class="cls-6" d="m79.57,236.64c4.31-1.72,4.67-12.35,2.66-15.94,1.68,3.61,1.39,14.07-2.66,15.94h0Z"/>
            <path class="cls-6" d="m78.96,216.92l-.98-1.64c-.19-.32-.24-.71-.14-1.07l.44-1.5c.16-.54.66-.94,1.22-.97l.81-.04c.5-.03.97.22,1.23.66l.98,1.64c.19.32.24.71.14,1.07l-.44,1.5c-.16.54-.66.94-1.22.97l-.81.04c-.5.03-.97-.22-1.23-.66Z"/>
            <path class="cls-6" d="m64.02,197.54c-.52,1.73.6,3.45,1.5,4.86,3.02,4.2,7.26,7.9,12.29,9.37-4.42-1.14-14.62-9.28-13.78-14.22h0Z"/>
          </g>
          <g>
            <path class="cls-9" d="m317.36,52.4c-3.54,1.63-7.52,1.18-11.13,3.01-1.7.87-3.24,2.17-3.43,3.94-.1.94,0,1.95.7,2.74,1.02,1.15,2.67,2.8,4.46,2.66,2.16-.17,4.38-1.36,5.77-2.8s2.22-3.08,2.72-4.93c.35-1.32.16-2.99.9-4.6h0Z"/>
            <path class="cls-6" d="m307.8,63.04c3.24.43,7.03-4.12,7.03-7.18-.1.9-.43,1.76-.87,2.53-1.31,2.07-3.49,4.72-6.16,4.66h0Z"/>
            <path class="cls-9" d="m317.05,53.25c-2.34-.03-4.56.75-6.78,1.38-1.1.32-2.23.6-3.37.74-1.12.13-1.95-.62-2.96-1.02-.87-.35-1.65-.82-2.38-1.4-.96-.79-1.37-2.03-.41-3.03.9-.94,2.03-1.69,3.2-2.32,1.37-.74,2.68-1.62,4.29-1.75,2.34-.17,4.19,1.15,5.4,2.79.95,1.27,1.53,3.2,2.98,4.61h.01Z"/>
            <path class="cls-8" d="m316.81,54.43c1.6-3.19,4.97-5.12,6.49-8.5.72-1.59,1.03-3.41,0-4.79-.87-1.15-2.19-.72-3.57-.99-.8-.16-1.53-.4-2.31-.6-.66-.16-1.2.2-1.68.61-1.53,1.34-2.44,3.47-2.54,5.3s.36,3.48,1.22,5.11c.61,1.15,1.87,2.26,2.39,3.84h0Z"/>
            <path class="cls-6" d="m316.76,41.4c-.83.4-1.19,1.35-1.42,2.18-.47,1.73-.46,3.56-.11,5.31.18.88.5,1.73.99,2.46-1.22-2.32-1.67-8.19.55-9.96h-.01Z"/>
            <path class="cls-10" d="m330.77,48.91c-1.08-.53-2.37-.17-3.51.03-3.44.83-6.88,2.17-9.62,4.45,2.89-2.05,6.26-3.35,9.66-4.27,1.12-.23,2.36-.66,3.46-.21h0Z"/>
            <g>
              <path class="cls-7" d="m315.36,55.08c3.37.14,6,2.57,9.53,2.54,1.66-.02,3.44-.54,4.46-2.18,1.45-2.33,1.43-6.57-.98-7.89-1.64-.9-3.84-.83-5.57-.1-1.79.75-3.16,1.94-4.47,3.53-.93,1.13-1.64,2.88-2.98,4.11h0Z"/>
              <path class="cls-2" d="m315.36,55.08c3.37.14,6,2.57,9.53,2.54,1.66-.02,3.44-.54,4.46-2.18,1.45-2.33,1.43-6.57-.98-7.89-1.64-.9-3.84-.83-5.57-.1-1.79.75-3.16,1.94-4.47,3.53-.93,1.13-1.64,2.88-2.98,4.11,0,0,1.35-1.23,0,0h0Z"/>
            </g>
            <path class="cls-6" d="m326.98,50.33c-.77-.38-1.7-.14-2.53-.03-2.49.52-4.98,1.4-7.03,2.95,2.18-1.3,4.62-2.15,7.07-2.76.81-.14,1.69-.47,2.49-.16h0Z"/>
            <path class="cls-9" d="m315.58,53.48c-.21,3.78-3.37,6.93-3.36,10.88,0,1.86.66,3.79,2.77,4.8,3,1.43,3.57-.69,5.38-2.11,1.65,1.43,3.38,2.69,4.82.35,1.18-1.9,1.11-4.36.18-6.24-.95-1.95-2.48-3.37-4.51-4.68-1.45-.94-3.7-1.58-5.27-2.99h0Z"/>
            <path class="cls-6" d="m323.2,66.19c.66-.7.56-1.77.43-2.66-.32-1.83-1.15-3.54-2.26-5.01-.56-.73-1.24-1.39-2.03-1.87,2.12,1.59,5.32,7,3.86,9.54h0Z"/>
            <path class="cls-6" d="m316.31,55.68l-1.08-.57c-.21-.12-.37-.3-.43-.54l-.25-.96c-.09-.35.04-.72.35-.93l.43-.29c.26-.18.6-.2.88-.05l1.08.57c.21.12.37.3.43.54l.25.96c.09.35-.04.72-.35.93l-.43.29c-.26.18-.6.2-.88.05Z"/>
            <path class="cls-6" d="m301.74,50.13c1.29,3.27,9.23,4.21,12.22,3.13-2.96.74-10.79-.15-12.22-3.13h0Z"/>
          </g>
          <g>
            <path class="cls-9" d="m334.92,184.33c-3.54,1.63-7.52,1.18-11.13,3.01-1.7.87-3.24,2.17-3.43,3.94-.1.94,0,1.95.7,2.74,1.02,1.15,2.67,2.8,4.46,2.66,2.16-.17,4.38-1.36,5.77-2.8,1.44-1.49,2.22-3.08,2.72-4.93.35-1.32.16-2.99.9-4.6h0Z"/>
            <path class="cls-6" d="m325.35,194.97c3.24.43,7.03-4.12,7.03-7.18-.1.9-.43,1.76-.87,2.53-1.31,2.07-3.49,4.72-6.16,4.66h0Z"/>
            <path class="cls-9" d="m334.61,185.17c-2.34-.03-4.56.75-6.78,1.38-1.1.32-2.23.6-3.37.74s-1.95-.62-2.96-1.02c-.87-.35-1.65-.82-2.38-1.4-.96-.79-1.37-2.03-.41-3.03.9-.94,2.03-1.69,3.2-2.32,1.37-.74,2.68-1.62,4.29-1.75,2.34-.17,4.19,1.15,5.4,2.79.95,1.27,1.53,3.2,2.98,4.61h.01Z"/>
            <path class="cls-8" d="m334.37,186.37c1.6-3.19,4.97-5.12,6.49-8.5.72-1.59,1.03-3.41,0-4.79-.87-1.15-2.19-.72-3.57-.99-.8-.16-1.53-.4-2.31-.6-.66-.16-1.2.2-1.68.61-1.53,1.34-2.44,3.47-2.54,5.3s.36,3.48,1.22,5.11c.61,1.15,1.87,2.26,2.39,3.84h0Z"/>
            <path class="cls-6" d="m334.31,173.33c-.83.4-1.19,1.35-1.42,2.18-.47,1.73-.46,3.56-.11,5.31.18.88.5,1.73.99,2.46-1.22-2.32-1.67-8.19.55-9.96h-.01Z"/>
            <path class="cls-10" d="m348.33,180.84c-1.08-.53-2.37-.17-3.51.03-3.44.83-6.88,2.17-9.62,4.45,2.89-2.05,6.26-3.35,9.66-4.27,1.12-.23,2.36-.66,3.46-.21h0Z"/>
            <g>
              <path class="cls-7" d="m332.92,187c3.37.14,6,2.57,9.53,2.54,1.66-.02,3.44-.54,4.46-2.18,1.45-2.33,1.43-6.57-.98-7.89-1.64-.9-3.84-.83-5.57-.1-1.79.75-3.16,1.94-4.47,3.53-.93,1.13-1.64,2.88-2.98,4.11h0Z"/>
              <path class="cls-2" d="m332.92,187c3.37.14,6,2.57,9.53,2.54,1.66-.02,3.44-.54,4.46-2.18,1.45-2.33,1.43-6.57-.98-7.89-1.64-.9-3.84-.83-5.57-.1-1.79.75-3.16,1.94-4.47,3.53-.93,1.13-1.64,2.88-2.98,4.11,0,0,1.35-1.23,0,0h0Z"/>
            </g>
            <path class="cls-6" d="m344.53,182.26c-.77-.38-1.7-.14-2.53-.03-2.49.52-4.98,1.4-7.03,2.95,2.18-1.3,4.62-2.15,7.07-2.76.81-.14,1.69-.47,2.49-.16h0Z"/>
            <path class="cls-9" d="m333.14,185.41c-.21,3.78-3.37,6.93-3.36,10.88,0,1.86.66,3.79,2.77,4.8,3,1.43,3.57-.69,5.38-2.11,1.65,1.43,3.38,2.69,4.82.35,1.18-1.9,1.11-4.36.18-6.24-.93-1.88-2.48-3.37-4.51-4.68-1.45-.94-3.7-1.58-5.27-2.99h0Z"/>
            <path class="cls-6" d="m340.75,198.11c.66-.7.56-1.77.43-2.66-.32-1.83-1.15-3.54-2.26-5.01-.56-.73-1.24-1.39-2.03-1.87,2.12,1.59,5.32,7,3.86,9.54h0Z"/>
            <path class="cls-6" d="m333.85,187.61l-1.08-.57c-.21-.12-.37-.3-.43-.54l-.25-.96c-.09-.35.04-.72.35-.93l.43-.29c.26-.18.6-.2.88-.05l1.08.57c.21.12.37.3.43.54l.25.96c.09.35-.04.72-.35.93l-.43.29c-.26.18-.6.2-.88.05Z"/>
            <path class="cls-6" d="m319.3,182.06c1.29,3.27,9.23,4.21,12.22,3.13-2.96.74-10.79-.15-12.22-3.13h0Z"/>
          </g>
          <g>
            <path class="cls-9" d="m178.15,121c-7.31,3.38-15.57,2.4-23.04,6.21-3.51,1.79-6.72,4.48-7.11,8.13-.21,1.95,0,4.03,1.44,5.67,2.11,2.39,5.53,5.78,9.23,5.5,4.46-.35,9.07-2.81,11.96-5.77s4.61-6.37,5.65-10.21c.73-2.73.34-6.2,1.87-9.53h0Z"/>
            <path class="cls-6" d="m158.32,142.99c6.32.95,14.57-8.85,14.58-14.86-.31,5.88-8.35,15.51-14.58,14.86h0Z"/>
            <path class="cls-9" d="m177.5,122.74c-4.83-.06-9.45,1.55-14.03,2.85-2.29.64-4.6,1.24-6.97,1.52-2.31.28-4.03-1.29-6.12-2.13-1.81-.72-3.43-1.7-4.91-2.92-1.99-1.64-2.82-4.2-.83-6.27,1.86-1.94,4.21-3.5,6.62-4.79,2.84-1.52,5.54-3.36,8.9-3.6,4.86-.35,8.66,2.4,11.17,5.79,1.96,2.65,3.15,6.64,6.16,9.56h0Z"/>
            <path class="cls-8" d="m176.99,125.2c3.33-6.6,10.29-10.58,13.46-17.57,1.49-3.28,2.14-7.06,0-9.9-1.8-2.39-4.54-1.51-7.38-2.04-1.67-.31-3.17-.83-4.78-1.24-1.35-.35-2.49.41-3.47,1.27-3.18,2.78-5.06,7.18-5.28,10.96-.23,3.93.74,7.22,2.51,10.57,1.27,2.39,3.88,4.67,4.94,7.95h0Z"/>
            <path class="cls-6" d="m176.92,98.23c-4.94,2.97-4.18,16.32-1.16,20.61-2.71-4.33-3.51-17.51,1.16-20.61h0Z"/>
            <path class="cls-10" d="m205.89,113.79c-2.25-1.06-4.9-.26-7.23.16-7.09,1.74-14.18,4.5-19.93,9.08,5.89-4.37,12.91-7.07,19.97-8.92,2.32-.43,4.92-1.29,7.19-.32h0Z"/>
            <g>
              <path class="cls-7" d="m173.99,126.52c6.98.29,12.41,5.34,19.72,5.28,3.43-.03,7.11-1.09,9.24-4.52,3-4.82,2.98-13.6-1.99-16.34-3.38-1.87-7.95-1.72-11.53-.23-3.73,1.56-6.55,4.01-9.24,7.3-1.92,2.34-3.39,5.95-6.19,8.5h0Z"/>
              <path class="cls-2" d="m173.99,126.52c6.98.29,12.41,5.34,19.72,5.28,3.43-.03,7.11-1.09,9.24-4.52,3-4.82,2.98-13.6-1.99-16.34-3.38-1.87-7.95-1.72-11.53-.23-3.73,1.56-6.55,4.01-9.24,7.3-1.92,2.34-3.39,5.95-6.19,8.5,0,0,2.79-2.53,0,0h0Z"/>
            </g>
            <path class="cls-6" d="m198.04,116.74c-1.62-.75-3.52-.2-5.2.06-5.13,1.12-10.27,2.92-14.59,5.97,4.45-2.84,9.52-4.58,14.62-5.81,1.68-.27,3.53-.89,5.17-.22h0Z"/>
            <path class="cls-9" d="m174.47,123.22c-.43,7.83-7,14.34-7,22.5,0,3.84,1.35,7.86,5.74,9.95,6.21,2.96,7.39-1.41,11.13-4.36,3.41,2.97,6.98,5.57,9.96.74,2.44-3.95,2.29-9.04.4-12.91-1.97-4.03-5.11-6.98-9.33-9.71-3-1.94-7.65-3.29-10.89-6.2h0Z"/>
            <path class="cls-6" d="m190.18,149.53c1.32-1.46,1.08-3.67.78-5.47-1.15-5.51-4.05-11.02-8.74-14.29,4.51,3.47,7.32,8.85,8.57,14.32.31,1.79.62,3.93-.62,5.44h0Z"/>
            <path class="cls-6" d="m175.94,127.77l-2.23-1.18c-.44-.23-.76-.63-.88-1.11l-.53-1.99c-.2-.72.09-1.5.71-1.93l.89-.6c.54-.38,1.25-.41,1.82-.11l2.23,1.18c.44.23.76.63.88,1.11l.53,1.99c.2.72-.09,1.5-.71,1.93l-.89.6c-.54.38-1.25.41-1.82.11Z"/>
            <path class="cls-6" d="m145.82,116.25c.62,2.3,3.06,3.45,5.04,4.41,6.28,2.64,13.57,3.87,20.25,2.11-6.71,1.51-13.87.27-20.18-2.26-1.97-.95-4.39-2.01-5.11-4.26h0Z"/>
          </g>
          <g>
            <path class="cls-9" d="m266.8,149.09c.7,8.03-3.01,15.47-1.96,23.78.49,3.91,1.94,7.84,5.24,9.44,1.76.85,3.79,1.37,5.82.56,2.96-1.17,7.32-3.25,8.3-6.82,1.18-4.32.43-9.49-1.38-13.2s-4.43-6.49-7.69-8.77c-2.32-1.62-5.72-2.42-8.33-4.99h0Z"/>
            <path class="cls-6" d="m280.78,175.19c3.03-5.63-3.4-16.71-9.05-18.75,5.4,2.25,11.77,13.14,9.05,18.75h0Z"/>
            <path class="cls-9" d="m268.22,150.29c-1.69,4.52-1.74,9.41-2.07,14.17-.17,2.37-.4,4.76-.93,7.07-.53,2.27-2.58,3.36-4.07,5.04-1.29,1.45-2.76,2.65-4.41,3.63-2.21,1.32-4.91,1.24-6.18-1.35-1.19-2.42-1.87-5.15-2.27-7.86-.47-3.19-1.28-6.35-.38-9.58,1.32-4.69,5.19-7.34,9.24-8.56,3.15-.95,7.31-.72,11.07-2.56h0Z"/>
            <path class="cls-8" d="m270.36,151.6c-5.08-5.37-6.47-13.27-11.97-18.62-2.59-2.51-5.91-4.4-9.33-3.35-2.86.88-2.95,3.77-4.42,6.26-.86,1.45-1.86,2.71-2.79,4.08-.78,1.16-.46,2.48.02,3.7,1.55,3.93,5.04,7.2,8.53,8.68,3.62,1.55,7.05,1.75,10.81,1.22,2.68-.38,5.71-2.07,9.15-1.95h0Z"/>
            <path class="cls-6" d="m244.96,142.54c1.15,5.67,13.91,9.44,19,8.06-5.02,1.08-17.64-2.61-19-8.06h0Z"/>
            <path class="cls-10" d="m269.41,120.54c-1.77,1.76-1.91,4.51-2.3,6.86-.76,7.27-.57,14.86,1.8,21.82-2.12-7.02-2.28-14.54-1.63-21.81.38-2.33.45-5.06,2.13-6.87h0Z"/>
            <g>
              <path class="cls-7" d="m270.58,154.86c2.63-6.47,9.23-9.88,11.65-16.77,1.14-3.24,1.37-7.06-1.12-10.22-3.52-4.46-11.78-7.4-16.05-3.66-2.9,2.55-4.32,6.89-4.11,10.77.21,4.04,1.56,7.52,3.74,11.17,1.55,2.6,4.45,5.21,5.89,8.7h0Z"/>
              <path class="cls-2" d="m270.58,154.86c2.63-6.47,9.23-9.88,11.65-16.77,1.14-3.24,1.37-7.06-1.12-10.22-3.52-4.46-11.78-7.4-16.05-3.66-2.9,2.55-4.32,6.89-4.11,10.77.21,4.04,1.56,7.52,3.74,11.17,1.55,2.6,4.45,5.21,5.89,8.7,0,0-1.44-3.49,0,0h0Z"/>
            </g>
            <path class="cls-6" d="m269.53,128.92c-1.26,1.27-1.39,3.24-1.71,4.92-.68,5.21-.73,10.65.68,15.75-1.16-5.14-1.09-10.51-.52-15.72.3-1.67.37-3.62,1.54-4.94h0Z"/>
            <path class="cls-9" d="m267.64,153.31c7.22,3.05,11.13,11.44,18.81,14.19,3.61,1.29,7.85,1.39,11.3-2.03,4.89-4.84,1.18-7.44-.34-11.94,3.95-2.2,7.61-4.68,4.07-9.13-2.89-3.62-7.72-5.22-12.01-4.74-4.47.5-8.3,2.46-12.3,5.49-2.85,2.16-5.69,6.09-9.52,8.15h0Z"/>
            <path class="cls-6" d="m297.72,147.43c-.92-1.74-3.09-2.26-4.89-2.59-5.57-.78-11.74.09-16.41,3.38,4.8-3.07,10.8-3.88,16.38-3.22,1.78.31,3.91.75,4.91,2.43h0Z"/>
            <path class="cls-6" d="m272.42,153.46l-1.86,1.69c-.36.33-.85.5-1.35.46l-2.05-.17c-.75-.07-1.38-.6-1.57-1.33l-.27-1.03c-.17-.64.03-1.31.52-1.75l1.86-1.69c.36-.33.85-.5,1.35-.46l2.05.17c.75.07,1.38.6,1.57,1.33l.27,1.03c.17.64-.03,1.31-.52,1.75Z"/>
            <path class="cls-6" d="m251.39,177.9c2.37.19,4.28-1.71,5.86-3.25,4.61-5.01,8.24-11.46,8.84-18.34-.86,6.82-4.44,13.14-8.95,18.22-1.56,1.53-3.38,3.45-5.74,3.35h0Z"/>
          </g>
          <g>
            <path class="cls-4" d="m297.68,203.01c-4.75-4.25-6.25-10.66-11.38-14.89-2.41-1.99-5.47-3.45-8.51-2.51-1.63.5-3.24,1.34-4.16,2.97-1.33,2.35-3.12,6.01-1.87,8.63,1.52,3.16,4.77,5.75,7.95,6.88s6.41,1.26,9.78.73c2.41-.37,5.08-1.82,8.19-1.81Z"/>
            <path class="cls-10" d="m274.49,195.77c1.1,5.23,11.59,7.72,16,5.75-4.39,1.64-14.69-.75-16-5.75h0Z"/>
            <path class="cls-4" d="m296.1,203.11c-1.29-3.58-3.86-6.44-6.19-9.37-1.16-1.47-2.27-2.98-3.16-4.63s-.08-3.41.01-5.22c.08-1.57.42-3.09.99-4.6.77-2.01,2.6-3.49,4.83-2.71,2.07.72,3.99,1.93,5.7,3.27,2.01,1.58,4.24,2.96,5.36,5.35,1.63,3.46.47,7.19-1.57,10.18-1.58,2.33-4.47,4.55-5.98,7.74h0Z"/>
            <path class="cls-5" d="m293.98,203.56c6.23.25,11.37,4.03,17.87,4.03,3.06,0,6.27-.78,7.97-3.32,1.43-2.13-.05-3.84-.4-6.12-.2-1.33-.21-2.62-.32-3.93-.1-1.11-1.01-1.69-1.99-2.13-3.12-1.41-7.19-1.32-10.29-.22s-5.6,2.96-7.82,5.4c-1.58,1.73-2.68,4.42-5.03,6.3h.01Z"/>
            <path class="cls-10" d="m315.67,194.47c-4.05-2.66-14.32,2.43-16.91,6.06,2.7-3.33,12.92-8.44,16.91-6.06h0Z"/>
            <path class="cls-10" d="m311.17,221.03c.25-1.97-1.14-3.72-2.13-5.29-3.38-4.68-7.64-9-12.83-11.62,5.06,2.84,9.23,7.11,12.69,11.71,1,1.56,2.42,3.23,2.27,5.19h0Z"/>
            <g>
              <path class="cls-3" d="m292.34,201.71c2.21,7.03-.23,14.35,2.39,21.57,1.23,3.4,3.46,6.64,7.17,7.46,5.23,1.16,12.82-2.19,13.44-8.17.42-4.06-1.32-8.54-3.88-11.52-2.67-3.11-5.79-4.98-9.59-6.41-2.7-1.02-6.36-1.11-9.53-2.93Z"/>
              <path class="cls-2" d="m292.34,201.71c2.21,7.03-.23,14.35,2.39,21.57,1.23,3.4,3.46,6.64,7.17,7.46,5.23,1.16,12.82-2.19,13.44-8.17.42-4.06-1.32-8.54-3.88-11.52-2.67-3.11-5.79-4.98-9.59-6.41-2.7-1.02-6.36-1.11-9.53-2.93,0,0,3.18,1.81,0,0Z"/>
            </g>
            <path class="cls-10" d="m311.69,222.29c.89-4.68-7.88-13.79-12.02-15.58,3.88,1.95,12.69,11.08,12.02,15.58h0Z"/>
            <path class="cls-4" d="m294.87,201.03c-6.42,2.3-13.49-.35-20.05,2.38-3.08,1.29-5.95,3.63-6.42,7.55-.66,5.56,3.19,4.97,6.6,6.73-1.45,3.5-2.55,7.01,2.16,7.59,3.85.47,7.91-1.34,10.5-4.04,2.7-2.81,4.21-6.11,5.24-10.13.74-2.86.53-6.74,1.96-10.1v.02Z"/>
            <path class="cls-10" d="m278.05,221.42c4.95,1.02,12.75-7.95,13.69-12.48-.5,1.55-1.29,2.99-2.22,4.32-2.22,3-7.43,8.77-11.47,8.16h0Z"/>
            <path class="cls-10" d="m291.62,203.58l.33-2.04c.06-.36.26-.68.55-.9l1.67-1.21c.46-.33,1.07-.36,1.55-.06l.74.44c.47.3.73.86.64,1.41l-.33,2.04c-.06.36-.26.68-.55.9l-1.67,1.21c-.46.33-1.07.36-1.55.06l-.74-.44c-.47-.3-.73-.86-.64-1.41Z"/>
            <path class="cls-10" d="m292.54,177.6c-1.56,1.09-1.92,3.19-2.14,4.96-.46,5.45.54,11.42,3.9,15.84-3.21-3.94-5.91-17.1-1.76-20.8h0Z"/>
          </g>
          <g>
            <path class="cls-4" d="m100.23,343.01c4.68,1.77,7.57,6.03,12.52,7.68,2.32.78,4.97.98,6.93-.56,1.05-.83,1.99-1.9,2.21-3.34.32-2.1.59-5.28-1.07-6.84-2-1.89-5.11-2.85-7.76-2.78-2.75.07-5.03.88-7.36,2.23-1.66.95-3.2,2.77-5.48,3.64v-.02Z"/>
            <path class="cls-10" d="m119.23,341.76c-1.87-2.92-7.3-2.43-10.19-1.5-1.15.38-2.25.98-3.13,1.81,2.83-2.4,10.87-3.56,13.32-.3h0Z"/>
            <path class="cls-4" d="m101.35,342.49c1.95,2.25,4.64,3.62,7.16,5.11,1.25.75,2.5,1.53,3.61,2.5,1.09.93,1.02,2.47,1.46,3.82.38,1.17.56,2.38.57,3.63.01,1.69-.92,3.28-2.76,3.35-1.73.06-3.45-.29-5.09-.79-1.92-.58-3.94-.96-5.43-2.4-2.16-2.07-2.37-5.12-1.73-7.88.5-2.15,1.99-4.59,2.19-7.34h0Z"/>
            <path class="cls-5" d="m102.77,341.56c-4.63,1.58-9.45.26-14.2,2.1-2.23.86-4.36,2.35-4.9,4.68-.44,1.95,1.12,2.8,2.02,4.36.53.91.89,1.85,1.35,2.78.38.78,1.22.96,2.05,1,2.68.15,5.62-1.07,7.58-2.74,2.04-1.75,3.26-3.74,4.2-6.15.67-1.71.72-3.99,1.89-6.03h0Z"/>
            <path class="cls-10" d="m89.48,354.33c3.82.78,9.75-5.73,10.66-9.19-1.15,3.24-6.97,9.7-10.66,9.19h0Z"/>
            <path class="cls-10" d="m85.28,333.64c1.32,3.93,11.7,8,15.71,8.14-4.49-.68-8.74-2.62-12.57-5-1.18-.86-2.68-1.67-3.13-3.14h0Z"/>
            <g>
              <path class="cls-3" d="m104.5,342.45c-3.61-4.51-3.88-10.55-7.84-15.09-1.87-2.14-4.4-3.88-7.35-3.44-4.16.63-8.76,5.21-7.52,9.76.84,3.09,3.37,5.88,6.09,7.34s5.64,2.01,8.82,1.98c2.26-.02,4.96-.97,7.8-.55Z"/>
              <path class="cls-2" d="m104.5,342.45c-3.61-4.51-3.88-10.55-7.84-15.09-1.87-2.14-4.4-3.88-7.35-3.44-4.16.63-8.76,5.21-7.52,9.76.84,3.09,3.37,5.88,6.09,7.34,2.83,1.52,5.64,2.01,8.82,1.98,2.26-.02,4.96-.97,7.8-.55,0,0-2.84-.42,0,0Z"/>
            </g>
            <path class="cls-10" d="m84.54,332.86c.77,3.79,9.54,7.83,13.2,8-3.94-.67-7.58-2.61-10.77-4.97-.97-.84-2.2-1.7-2.42-3.03h0Z"/>
            <path class="cls-4" d="m102.83,343.66c4.05-3.49,9.96-3.55,13.99-7.4,1.89-1.81,3.32-4.33,2.57-7.34-1.08-4.26-3.73-2.74-6.72-3.06.07-2.97-.11-5.84-3.72-4.93-2.95.74-5.41,3.21-6.54,5.92s-1.35,5.65-.97,8.88c.27,2.29,1.51,5.07,1.41,7.94h0Z"/>
            <path class="cls-10" d="m109.39,324.01c-4.01.74-7.07,9.3-6.5,12.99-.26-3.6,2.7-12.05,6.5-12.99h0Z"/>
            <path class="cls-10" d="m104.44,340.65l.41,1.95c.04.19.01.39-.1.56l-1.08,1.67c-.15.26-.47.39-.76.33l-1.12-.21c-.3-.05-.53-.28-.59-.57l-.41-1.95c-.04-.19-.01-.39.1-.56l1.08-1.67c.15-.26.47-.39.76-.33l1.12.21c.3.05.53.28.59.57Z"/>
            <path class="cls-10" d="m111.16,360.13c2.21-4.06-3.41-12.79-7.15-14.72,3.49,2.1,9.07,10.7,7.15,14.72h0Z"/>
          </g>
          <g>
            <path class="cls-4" d="m164.44,233.97c4.6-1.31,9.27.31,14-1.25,2.23-.74,4.38-2.08,5.01-4.39.33-1.23.45-2.6-.21-3.82-.96-1.79-2.56-4.4-4.72-4.65-2.61-.31-5.56.72-7.55,2.29s-3.36,3.56-4.39,5.9c-.73,1.68-.88,3.95-2.13,5.92h0Z"/>
            <path class="cls-10" d="m178.32,222.16c-3.13-1.17-6.97,2.29-8.69,4.66-.67.95-1.17,2.04-1.37,3.18.84-3.47,6.28-8.92,10.06-7.84h0Z"/>
            <path class="cls-4" d="m165,232.93c2.79.62,5.63.13,8.43-.16,1.39-.14,2.8-.25,4.2-.15,1.37.1,2.19,1.31,3.3,2.1.97.68,1.79,1.51,2.52,2.47.97,1.3,1.17,3.05-.21,4.14-1.3,1.03-2.82,1.75-4.36,2.3-1.81.65-3.57,1.5-5.54,1.26-2.85-.36-4.75-2.58-5.82-5.07-.84-1.94-1.09-4.66-2.51-6.9h0Z"/>
            <path class="cls-5" d="m165.57,231.4c-2.65,3.85-7.12,5.59-9.71,9.72-1.22,1.94-2.02,4.29-1.09,6.39.77,1.76,2.46,1.51,4.05,2.2.92.4,1.75.92,2.62,1.37.75.39,1.48.04,2.14-.4,2.15-1.42,3.71-4.02,4.26-6.43.56-2.51.36-4.74-.29-7.13-.47-1.69-1.73-3.48-1.98-5.72h0Z"/>
            <path class="cls-10" d="m162.63,248.79c3.41-1.62,4.22-9.94,2.94-13.14.95,3.15.18,11.43-2.94,13.14h0Z"/>
            <path class="cls-10" d="m147.6,235.3c3.29,2.27,13.53-.52,16.71-2.71-3.84,2.04-8.21,2.97-12.52,3.34-1.39,0-3.02.25-4.2-.62h0Z"/>
            <g>
              <path class="cls-3" d="m167.4,231.1c-5.34-1.41-9.01-5.9-14.64-7.13-2.65-.58-5.6-.47-7.61,1.55-2.84,2.86-3.75,9-.21,11.8,2.41,1.89,5.94,2.59,8.86,2.16s5.48-1.68,7.91-3.51c1.73-1.31,3.25-3.59,5.68-4.87h0Z"/>
              <path class="cls-2" d="m167.4,231.1c-5.34-1.41-9.01-5.9-14.64-7.13-2.65-.58-5.6-.47-7.61,1.55-2.84,2.86-3.75,9-.21,11.8,2.41,1.89,5.94,2.59,8.86,2.16,3.04-.45,5.48-1.68,7.91-3.51,1.73-1.31,3.25-3.59,5.68-4.87,0,0-2.42,1.3,0,0h0Z"/>
            </g>
            <path class="cls-10" d="m146.59,235.13c2.79,2.48,11.77.59,14.7-1.38-3.41,1.73-7.32,2.31-11.11,2.33-1.22-.09-2.66-.04-3.6-.95h0Z"/>
            <path class="cls-4" d="m166.81,232.97c1.11-4.99,5.63-8.41,6.52-13.67.43-2.47.08-5.22-2.22-7.1-3.26-2.65-4.42.02-6.91,1.48-1.64-2.32-3.42-4.42-5.68-1.67-1.84,2.25-2.32,5.56-1.65,8.28.7,2.84,2.19,5.11,4.33,7.38,1.52,1.61,4.06,3.03,5.61,5.3Z"/>
            <path class="cls-10" d="m160.63,214.14c-2.68,2.87-.14,11.18,2.43,13.69-2.23-2.58-4.79-10.85-2.43-13.69h0Z"/>
            <path class="cls-10" d="m166.49,229.89l1.16,1.02c.21.18.33.44.35.71l.1,1.54c.03.42-.2.82-.58,1l-.58.28c-.38.19-.84.13-1.15-.16l-1.16-1.02c-.21-.18-.33-.44-.35-.71l-.1-1.54c-.03-.42.2-.82.58-1l.58-.28c.38-.19.84-.13,1.15.16Z"/>
            <path class="cls-10" d="m182.6,240.89c-.65-4.41-9.89-7.88-13.9-7.22,3.91-.36,13.05,3.02,13.9,7.22h0Z"/>
          </g>
        </g>
        <path class="cls-1" d="m6.36,375.95c6.76,3.33,14.86,3.85,22.01,1.43"/>
      </g>
    </g>
  </g>
</svg>