<?xml version="1.0" encoding="UTF-8"?>
<svg id="Layer_2" data-name="Layer 2" xmlns="http://www.w3.org/2000/svg" viewBox="0 0 492.78 269.27">
  <defs>
    <style>
      .cls-1 {
        fill: #643d19;
      }

      .cls-2 {
        fill: #fbecea;
      }

      .cls-3 {
        stroke: #643d19;
        stroke-miterlimit: 10;
        stroke-width: 6px;
      }

      .cls-3, .cls-4 {
        fill: none;
      }

      .cls-5, .cls-6, .cls-7 {
        fill: #f4cdcb;
      }

      .cls-8, .cls-6, .cls-9, .cls-7 {
        stroke-linecap: round;
      }

      .cls-8, .cls-6, .cls-9, .cls-7, .cls-4 {
        stroke-linejoin: round;
        stroke-width: .25px;
      }

      .cls-8, .cls-9, .cls-10 {
        fill: #eb8986;
      }

      .cls-8, .cls-7 {
        stroke: #fdf4f3;
      }

      .cls-6, .cls-9, .cls-4 {
        stroke: #fbecea;
      }

      .cls-11 {
        fill: #f7d4ce;
      }
    </style>
  </defs>
  <g id="third_try" data-name="third try">
    <g>
      <g>
        <g>
          <path class="cls-6" d="m455.6,104.46c1.2,6.26,5.92,10.85,6.9,17.42.46,3.09.14,6.46-2.23,8.59-1.27,1.14-2.82,2.09-4.69,2.04-2.7-.07-6.76-.42-8.36-2.84-1.93-2.93-2.47-7.05-1.8-10.36.7-3.45,2.22-6.14,4.41-8.76,1.56-1.87,4.18-3.42,5.77-6.09Z"/>
          <path class="cls-2" d="m449.86,128.07c-3.92-3.64-.65-13.91,3.31-16.68-3.67,2.92-6.92,12.98-3.31,16.68h0Z"/>
          <path class="cls-6" d="m454.7,105.76c2.4,2.95,3.53,6.62,4.85,10.13.66,1.75,1.38,3.48,2.34,5.09s2.88,1.82,4.48,2.68c1.39.74,2.87,1.23,4.45,1.52,2.12.38,4.33-.43,4.81-2.74.45-2.15.4-4.41.13-6.57-.32-2.54-.35-5.16-1.82-7.35-2.13-3.18-5.92-4.1-9.53-3.9-2.81.16-6.2,1.49-9.71,1.14Z"/>
          <path class="cls-7" d="m453.22,107.34c3-5.47,2.4-11.82,5.75-17.39,1.58-2.62,3.9-4.97,6.95-5.12,2.56-.13,3.27,2.02,5.04,3.5,1.04.86,2.14,1.53,3.2,2.3.9.66.93,1.74.8,2.8-.4,3.4-2.57,6.84-5.11,8.93-2.65,2.18-5.42,3.28-8.65,3.92-2.3.46-5.17.02-7.99,1.07Z"/>
          <path class="cls-2" d="m472.18,93.44c.2,4.84-9.46,11.02-13.9,11.37,4.24-.6,13.89-6.73,13.9-11.37h0Z"/>
          <path class="cls-2" d="m447.1,83.62c1.82.8,2.6,2.89,3.44,4.55,2.27,5.31,3.78,11.18,3.35,16.98.17-5.8-1.34-11.57-3.5-16.91-.82-1.66-1.52-3.74-3.28-4.62h0Z"/>
          <g>
            <path class="cls-5" d="m453.96,109.7c-4.89-5.52-12.42-7.19-17.26-13.16-2.28-2.81-3.91-6.39-2.7-9.99,1.7-5.08,8.48-9.86,13.92-7.31,3.7,1.73,6.64,5.53,7.88,9.26,1.29,3.89,1.29,7.53.56,11.52-.52,2.84-2.32,6.02-2.4,9.68Z"/>
            <path class="cls-4" d="m453.96,109.7c-4.89-5.52-12.42-7.19-17.26-13.16-2.28-2.81-3.91-6.39-2.7-9.99,1.7-5.08,8.48-9.86,13.92-7.31,3.7,1.73,6.64,5.53,7.88,9.26,1.29,3.89,1.29,7.53.56,11.52-.52,2.84-2.32,6.02-2.4,9.68,0,0,.09-3.66,0,0Z"/>
          </g>
          <path class="cls-2" d="m446.29,82.52c4.47,1.65,7.76,13.86,7.16,18.33.33-4.33-2.96-16.58-7.16-18.33h0Z"/>
          <path class="cls-6" d="m455.84,107.88c-5.28,4.32-6.65,11.74-12.37,15.96-2.69,1.98-6.17,3.23-9.78,1.61-5.11-2.3-2.62-5.29-2.37-9.12-3.75-.56-7.32-1.42-5.39-5.76,1.58-3.54,5.22-6.09,8.87-6.92,3.8-.87,7.4-.46,11.38.73,2.83.84,6.05,3.02,9.67,3.52Z"/>
          <path class="cls-2" d="m429.7,111.8c1.68-4.77,13.38-6.83,17.75-5.31-1.59-.37-3.23-.43-4.85-.32-3.72.36-11.34,1.85-12.9,5.63h0Z"/>
          <path class="cls-2" d="m451.99,109.35l1.92.77c.34.14.72.13,1.06-.01l1.9-.81c.52-.22.86-.73.85-1.3v-.86c-.01-.56-.36-1.07-.88-1.28l-1.92-.77c-.34-.14-.72-.13-1.06.01l-1.9.81c-.52.22-.86.73-.85,1.3v.86c.01.56.36,1.07.88,1.28Z"/>
          <path class="cls-2" d="m474.72,121.95c-1.74.78-3.72,0-5.35-.72-4.91-2.41-9.51-6.34-11.57-11.5,1.73,4.78,11.61,13.87,16.92,12.22h0Z"/>
        </g>
        <g>
          <path class="cls-9" d="m108.39,129.6c-6.74,4.46-10.25,12.02-17.43,16.39-3.37,2.06-7.36,3.38-10.68,1.78-1.77-.85-3.44-2.12-4.08-4.22-.92-3.05-2.03-7.77.16-10.76,2.65-3.62,7.17-6.27,11.22-7.17s7.86-.58,11.68.56c2.72.81,5.47,2.97,9.12,3.42Z"/>
          <path class="cls-9" d="m106.57,129.23c-2.49,4.16-6.29,7.24-9.82,10.47-1.76,1.61-3.48,3.28-4.97,5.15s-1.02,4.12-1.41,6.34c-.33,1.92-.35,3.82-.09,5.72.35,2.56,2.1,4.62,4.92,4.01,2.64-.57,5.2-1.75,7.58-3.13,2.8-1.62,5.78-2.96,7.75-5.69,2.85-3.96,2.51-8.66.94-12.59-1.22-3.06-4.01-6.19-4.91-10.28Z"/>
          <path class="cls-8" d="m104.21,128.37c7.38.63,14.45-3.21,22.07-2.23,3.59.46,7.15,1.89,8.45,5.22,1.09,2.79-1.11,4.67-2.14,7.38-.61,1.59-.96,3.15-1.46,4.73-.42,1.34-1.66,1.9-2.91,2.29-4.05,1.24-8.79.54-12.13-1.26-3.48-1.87-5.77-4.43-7.7-7.72-1.38-2.34-1.94-5.77-4.18-8.4Z"/>
          <path class="cls-2" d="m129.15,109.72c-.28,2.48-2.35,4.32-3.94,6.08-5.22,5.13-11.3,9.73-18.24,12.22,6.83-2.73,12.83-7.29,18.12-12.34,1.59-1.75,3.69-3.51,4.06-5.97h0Z"/>
          <g>
            <path class="cls-10" d="m101.5,130.23c3.43-6.1,1.98-13.4,5.87-19.6,1.83-2.92,4.68-5.49,8.71-5.5,5.7-.03,13.17,4.61,12.89,10.3-.19,3.87-2.71,7.69-5.88,9.95-3.29,2.36-6.87,3.47-11.09,4.04-3,.41-6.87-.24-10.5.81Z"/>
            <path class="cls-4" d="m101.5,130.23c3.43-6.1,1.98-13.4,5.87-19.6,1.83-2.92,4.68-5.49,8.71-5.5,5.7-.03,13.17,4.61,12.89,10.3-.19,3.87-2.71,7.69-5.88,9.95-3.29,2.36-6.87,3.47-11.09,4.04-3,.41-6.87-.24-10.5.81,0,0,3.63-1.05,0,0Z"/>
          </g>
          <path class="cls-9" d="m104.56,131.57c-6.9-3.75-15.92-1.58-22.88-5.88-3.27-2.02-5.99-5.29-5.47-10.13.74-6.86,5.09-5.56,9.58-7.19-.74-4.47-1.08-8.89,4.61-8.89,4.65,0,8.92,2.8,11.22,6.46,2.4,3.81,3.26,8.04,3.38,13.08.08,3.58-1.22,8.26-.45,12.56Z"/>
        </g>
        <g>
          <path class="cls-6" d="m192.91,256.1c-3.96-.75-7.85.72-11.94-.22-1.92-.44-3.81-1.36-4.44-3.08-.34-.92-.49-1.96.01-2.93.74-1.41,1.98-3.48,3.81-3.79,2.21-.37,4.75.26,6.51,1.35,1.83,1.13,3.01,2.53,3.98,4.27.69,1.24.92,2.97,2.07,4.4Z"/>
          <path class="cls-6" d="m192.38,255.34c-2.34.62-4.77.39-7.16.32-1.19-.04-2.39-.04-3.57.11s-1.8,1.12-2.71,1.77c-.79.57-1.46,1.24-2.03,2.01-.77,1.04-.86,2.38.36,3.15,1.14.71,2.47,1.19,3.8,1.52,1.56.4,3.1.96,4.75.67,2.4-.42,3.91-2.22,4.72-4.17.63-1.52.72-3.61,1.83-5.38Z"/>
          <path class="cls-7" d="m191.84,254.21c2.42,2.8,6.28,3.89,8.67,6.9,1.12,1.41,1.9,3.16,1.2,4.81-.58,1.38-2.02,1.28-3.34,1.89-.77.36-1.44.79-2.17,1.18-.62.33-1.26.1-1.84-.2-1.88-.97-3.33-2.87-3.89-4.68-.59-1.88-.52-3.59-.06-5.44.32-1.32,1.32-2.74,1.43-4.46Z"/>
          <g>
            <path class="cls-5" d="m207.25,256.24c-.94,1.05-5.56.79-7.43.54-2.5-.33-4.86-.8-6.88-1.73"/>
            <path class="cls-2" d="m207.25,256.24c-.95.81-2.34.76-3.53.85-3.66.03-7.45-.45-10.78-2.04,3.41,1.33,7.13,1.79,10.77,1.85,1.18-.06,2.53.07,3.53-.66h0Z"/>
          </g>
          <g>
            <path class="cls-5" d="m190.22,253.93c3.35-.98,5.38-4.1,8.93-4.96,1.67-.4,3.58-.33,5.03,1.07,2.04,1.98,3.1,6.24,1.01,8.17-1.42,1.32-3.65,1.8-5.57,1.51s-3.67-1.15-5.37-2.42c-1.21-.9-2.37-2.48-4.03-3.37Z"/>
            <path class="cls-4" d="m190.22,253.93c3.35-.98,5.38-4.1,8.93-4.96,1.67-.4,3.58-.33,5.03,1.07,2.04,1.98,3.1,6.24,1.01,8.17-3.17,2.78-7.85,1.53-10.94-.92-1.21-.9-2.37-2.48-4.03-3.37h0Z"/>
          </g>
          <path class="cls-6" d="m190.85,255.47c-1.16-3.75-5.14-6.11-6.12-10.08-.46-1.86-.3-3.98,1.58-5.53,2.66-2.19,3.76-.21,5.93.77,1.29-1.86,2.71-3.55,4.75-1.57,1.66,1.62,2.21,4.11,1.76,6.22s-1.64,4.01-3.35,5.85c-1.22,1.31-3.32,2.53-4.54,4.33Z"/>
        </g>
        <g>
          <path class="cls-1" d="m6.3,188.19c29.56-15.29,63-23.19,96.28-21.95,32.15,1.29,63.64,10.88,94.61,15.88,9.97,1.5,20.37,2.98,30.43,2.78,20.34-.28,40.64-5.24,59.16-13.76,9.4-4.35,19.15-8.41,28.27-13.5,45.41-24.01,93.21-58.62,147.16-53.5,10.56,1.17,20.88,3.98,30.57,8.15-20.89-8.21-44.07-8.99-65.69-3.44-42.42,11.05-77.48,38.25-115.12,59.71-11.87,6.1-23.6,12.5-36.06,17.56-20.37,7.93-42.48,11.96-64.39,10.45-46.87-2.87-92.5-19.72-139.16-10.49-19.71,3.62-38.7,10.7-56.1,20.59-5.05,2.85-11.46,1.07-14.31-3.97-2.94-5.17-.95-11.82,4.36-14.52h0Z"/>
          <path class="cls-1" d="m16.46,173.32c11.3,1.11,22.78-.68,34.34-1.67,19.81-2.08,36.93.87,54.33,10.89,26.03,14.58,43.63,40.18,76.06,40.66,34.5,1.54,71.46-22.17,104.47-3.65-10.53-5.62-22.77-6.62-34.44-5.26-36.69,4.9-68.9,25.31-105.56,4.84-20.9-11.3-37.25-28.78-60.42-34.89-16.82-5.07-33.78-.98-50.9,1.18-6.07.73-12.39,1.18-18.86.85-8.73-.76-7.89-13.49,1-12.96h0Z"/>
          <path class="cls-1" d="m128.34,171.81c94.94,4.09,48.54-50.68,137.39-71.88,20.09-4.83,40.5-6.69,60.24-12.54,19.8-5.63,37.05-17.08,53.82-28.77,0,0,33.77-23.36,33.77-23.36,0,0-33.26,24.08-33.26,24.08-16.53,12.08-33.85,24.06-53.68,30.15-37.68,12.11-84.23,10.35-111.66,42.92-9.69,11.91-16.54,27.2-30.32,35.6-16.7,10.52-37.36,10.77-56.38,10.81-4.62-.14-4.66-6.94.09-7h0Z"/>
          <path class="cls-1" d="m245.11,105.63c10.77-3.38,22.53-7.31,29.53-16.53,3.51-4.68,4.33-10.29,4.81-16.07.66-13.18,9.28-22.03,19.74-28.83,9.84-6.49,20.78-11.64,28.19-21.08,3.65-4.6,6.14-10.28,5.97-16.24.33,5.98-2.02,11.81-5.58,16.55-10.59,14.5-29.84,19.5-40.46,33.84-3.51,4.69-5.11,10.15-5.38,15.99-.27,5.97-1.21,12.51-4.85,17.56-3.56,5.1-8.67,8.89-14.08,11.75-5.37,2.87-11.04,4.95-16.68,6.86-1.05.35-2.18-.21-2.54-1.25-.36-1.07.24-2.23,1.32-2.56h0Z"/>
          <path class="cls-1" d="m162.6,226.69c-.59,14.21,17.3,16.66,24.6,25.99,2.7,3.35,4.52,7.83,3.37,12.13.88-4.27-1.12-8.54-3.94-11.64-5.92-6.52-15.08-8.13-21.46-14.33-2.45-2.36-4.53-5.4-5.29-8.82-.18-1.57-1.14-4.97,1.32-5.03.87.05,1.52.84,1.4,1.7h0Z"/>
          <path class="cls-1" d="m53.07,170.19c6.07-2.08,11.48-6.39,14.85-12,3.42-5.73,4.74-13.68,10.54-17.95,5.65-4.44,12.61-5.98,19.21-8.25,0,0,19.69-6.4,19.69-6.4,0,0-19.36,7.34-19.36,7.34-6.24,2.49-13.14,4.4-18.25,8.83-5.45,4.63-5.87,11.8-9.22,17.91-3.44,6.4-9.21,11.53-16.07,14.27-2.53.92-3.93-2.8-1.38-3.75h0Z"/>
        </g>
        <g>
          <path class="cls-6" d="m235.05,226.7c2.25-4.22,1.66-9.12,4.19-13.42,1.19-2.02,2.97-3.84,5.35-3.96,1.27-.06,2.63.11,3.7,1.02,1.55,1.31,3.75,3.43,3.54,5.6-.25,2.62-1.89,5.28-3.84,6.89-2.03,1.68-4.19,2.54-6.7,3.04-1.79.36-4.05.02-6.24.83Z"/>
          <path class="cls-2" d="m249.54,215.63c.48,3.32-3.71,6.33-6.4,7.51-1.07.45-2.24.71-3.4.66,3.58-.08,10.04-4.25,9.79-8.17h0Z"/>
          <path class="cls-6" d="m236.19,226.37c-.01-2.85,1.07-5.53,1.94-8.2.44-1.33.84-2.68,1.03-4.07s-.82-2.42-1.35-3.67c-.46-1.09-1.09-2.07-1.88-2.98-1.06-1.22-2.73-1.79-4.09-.67-1.28,1.05-2.31,2.39-3.17,3.77-1.01,1.63-2.23,3.17-2.4,5.15-.25,2.86,1.52,5.18,3.72,6.77,1.71,1.23,4.32,2.05,6.21,3.91Z"/>
          <path class="cls-7" d="m237.8,226.14c-4.33,1.78-6.97,5.77-11.56,7.44-2.16.78-4.62,1.06-6.47-.29-1.55-1.13-.96-2.72-1.29-4.42-.2-.99-.53-1.9-.78-2.85-.22-.81.28-1.45.85-2.01,1.84-1.79,4.72-2.78,7.19-2.8s4.71.64,6.9,1.79c1.56.82,3.03,2.43,5.16,3.15Z"/>
          <path class="cls-2" d="m220.18,225.31c2.3-2.99,10.61-2.02,13.47-.08-2.91-1.6-11.1-2.6-13.47.08h0Z"/>
          <path class="cls-2" d="m230.18,242.87c-1.52-3.7,3.38-13.11,6.19-15.76-2.81,3.32-4.64,7.39-5.91,11.53-.3,1.36-.88,2.89-.28,4.24h0Z"/>
          <g>
            <path class="cls-5" d="m238.49,224.41c.25,5.53,3.85,10.05,3.86,15.82,0,2.71-.73,5.57-3.13,7.1-3.39,2.16-9.6,1.76-11.57-2.3-1.34-2.76-1.27-6.36-.23-9.12s2.8-5,5.1-6.98c1.64-1.41,4.19-2.42,5.97-4.52Z"/>
            <path class="cls-4" d="m238.49,224.41c.25,5.53,3.85,10.05,3.86,15.82,0,2.71-.73,5.57-3.13,7.1-3.39,2.16-9.6,1.76-11.57-2.3-1.34-2.76-1.27-6.36-.23-9.12,1.08-2.87,2.8-5,5.1-6.98,1.64-1.41,4.19-2.42,5.97-4.52,0,0-1.78,2.1,0,0Z"/>
          </g>
          <path class="cls-2" d="m230.14,243.9c-1.83-3.25,1.93-11.63,4.47-14.07-2.41,2.97-3.81,6.66-4.63,10.36-.17,1.21-.52,2.61.16,3.71h0Z"/>
          <path class="cls-6" d="m236.53,224.59c5.12-.03,9.41-3.71,14.74-3.48,2.51.11,5.13,1.02,6.47,3.67,1.9,3.75-.96,4.32-2.92,6.44,1.92,2.1,3.6,4.28.43,5.9-2.59,1.32-5.92,1.09-8.44-.14s-4.53-3.22-6.3-5.79c-1.25-1.83-2.11-4.61-3.99-6.61Z"/>
          <path class="cls-2" d="m253.63,234.63c-3.37,2.01-10.95-2.23-12.86-5.27,2.08,2.74,9.55,6.97,12.86,5.27h0Z"/>
          <path class="cls-2" d="m239.47,225.55l-.76-1.35c-.13-.24-.36-.42-.62-.49l-1.49-.43c-.41-.12-.84.02-1.11.36l-.4.5c-.26.33-.3.79-.09,1.16l.76,1.35c.13.24.36.42.62.49l1.49.43c.41.12.84-.02,1.11-.36l.4-.5c.26-.33.3-.79.09-1.16Z"/>
          <path class="cls-2" d="m232.14,207.48c4.18,1.57,5.6,11.33,4.11,15.11,1.17-3.75-.19-13.39-4.11-15.11h0Z"/>
        </g>
        <g>
          <path class="cls-6" d="m322.51,151.16c6-1.84,10-6.94,16.33-8.6,2.98-.78,6.31-.82,8.65,1.27,1.25,1.12,2.35,2.54,2.5,4.37.22,2.65.31,6.67-1.9,8.49-2.67,2.21-6.64,3.16-9.95,2.86-3.45-.32-6.24-1.52-9.05-3.39-1.99-1.33-3.79-3.73-6.57-5.01Z"/>
          <path class="cls-2" d="m346.24,154.28c-3.15,4.23-13.55,2.12-16.68-1.47,3.28,3.28,13.4,5.41,16.68,1.47h0Z"/>
          <path class="cls-6" d="m323.88,151.9c2.63-2.67,6.11-4.16,9.4-5.83,1.64-.83,3.26-1.72,4.73-2.83,1.44-1.08,1.48-3.01,2.14-4.67.58-1.44.9-2.94,1.01-4.51.15-2.12-.88-4.19-3.19-4.42-2.16-.21-4.36.08-6.45.57-2.46.58-5.01.89-7,2.56-2.88,2.42-3.39,6.23-2.81,9.74.45,2.74,2.12,5.91,2.15,9.39Z"/>
          <path class="cls-7" d="m325.59,153.18c-5.67-2.36-11.83-1.09-17.64-3.79-2.73-1.27-5.28-3.29-5.75-6.26-.4-2.49,1.63-3.42,2.89-5.31.74-1.11,1.27-2.25,1.92-3.38.55-.95,1.61-1.09,2.65-1.08,3.37.03,6.97,1.79,9.28,4.05,2.41,2.36,3.79,4.96,4.76,8.06.69,2.2.57,5.06,1.89,7.71Z"/>
          <path class="cls-2" d="m309.96,136.09c4.72-.71,11.79,8.1,12.61,12.4-1.06-4.1-8.04-12.86-12.61-12.4h0Z"/>
          <path class="cls-2" d="m303,161.69c.59-1.86,2.55-2.85,4.09-3.85,4.96-2.79,10.54-4.88,16.27-5.08-5.7.45-11.18,2.54-16.19,5.22-1.54.98-3.5,1.89-4.17,3.7h0Z"/>
          <g>
            <path class="cls-5" d="m327.82,152.21c-4.89,5.37-5.72,12.92-11.06,18.29-2.51,2.53-5.84,4.5-9.49,3.7-5.16-1.13-10.55-7.25-8.64-12.85,1.31-3.81,4.71-7.09,8.23-8.7s7.23-2.06,11.22-1.77c2.84.21,6.14,1.63,9.74,1.33Z"/>
            <path class="cls-4" d="m327.82,152.21c-4.89,5.37-5.72,12.92-11.06,18.29-2.51,2.53-5.84,4.5-9.49,3.7-5.16-1.13-10.55-7.25-8.64-12.85,1.31-3.81,4.71-7.09,8.23-8.7,3.67-1.67,7.23-2.06,11.22-1.77,2.84.21,6.14,1.63,9.74,1.33,0,0-3.59.3,0,0Z"/>
          </g>
          <path class="cls-2" d="m302.01,162.6c1.14-4.55,12.75-9.07,17.19-8.95-4.28.14-15.92,4.65-17.19,8.95h0Z"/>
          <path class="cls-6" d="m325.84,150.56c4.79,4.71,12.2,5.26,16.93,10.42,2.23,2.43,3.82,5.7,2.61,9.41-1.71,5.25-4.9,3.13-8.68,3.29-.15,3.73-.61,7.32-5.07,5.89-3.64-1.17-6.52-4.46-7.72-7.95-1.25-3.63-1.23-7.2-.49-11.22.52-2.86,2.31-6.24,2.42-9.84Z"/>
          <path class="cls-2" d="m332.45,175.74c-4.85-1.13-8.11-12.38-7.09-16.82-.19,1.6-.08,3.21.2,4.79.75,3.6,3.01,10.91,6.88,12.03h0Z"/>
          <path class="cls-2" d="m327.62,154.39l.64-2.3c.07-.27.04-.55-.09-.79l-1.16-2.08c-.21-.37-.62-.58-1.04-.53l-1.27.15c-.42.05-.77.35-.88.76l-.64,2.3c-.07.27-.04.55.09.79l1.16,2.08c.21.37.62.58,1.04.53l1.27-.15c.42-.05.77-.35.88-.76Z"/>
          <path class="cls-2" d="m337.61,130.58c.95,1.62.4,3.64-.13,5.32-1.84,5.06-5.2,9.98-10.04,12.55,1.59-.89,2.98-2.08,4.22-3.4,2.77-3.11,7.74-10.22,5.95-14.46h0Z"/>
        </g>
        <g>
          <path class="cls-6" d="m396.08,49.53c4.66,1.09,9.24-.74,14.05.59,2.26.63,4.47,1.88,5.21,4.15.39,1.21.57,2.57-.03,3.84-.87,1.83-2.35,4.51-4.5,4.86-2.6.43-5.58-.46-7.65-1.93-2.15-1.53-3.53-3.39-4.66-5.7-.8-1.64-1.07-3.91-2.41-5.81Z"/>
          <path class="cls-2" d="m410.51,60.67c-3.08,1.32-7.07-1.95-8.91-4.25-.71-.92-1.26-1.98-1.52-3.11,1,3.43,6.69,8.61,10.42,7.36h0Z"/>
          <path class="cls-6" d="m396.7,50.54c2.75-.75,5.62-.4,8.42-.24,1.4.08,2.81.12,4.2-.05s2.13-1.42,3.2-2.25c.93-.73,1.72-1.59,2.4-2.58.91-1.34,1.02-3.1-.41-4.13-1.34-.96-2.9-1.62-4.46-2.09-1.84-.56-3.64-1.33-5.59-1-2.83.49-4.62,2.81-5.58,5.34-.75,1.97-.87,4.71-2.18,7Z"/>
          <path class="cls-7" d="m397.33,52.04c-2.83-3.73-7.37-5.25-10.16-9.25-1.31-1.88-2.22-4.19-1.39-6.33.69-1.79,2.39-1.63,3.93-2.39.91-.45,1.7-1,2.56-1.49.73-.42,1.48-.1,2.16.3,2.21,1.31,3.9,3.85,4.56,6.23s.59,4.72.05,7.13c-.39,1.71-1.56,3.55-1.71,5.8Z"/>
          <path class="cls-2" d="m393.59,34.81c3.48,1.45,4.68,9.73,3.55,12.99.8-3.22-.35-11.4-3.55-12.99h0Z"/>
          <path class="cls-2" d="m379.2,48.99c3.21-2.42,13.51-.12,16.83,1.92-3.93-1.86-8.34-2.58-12.66-2.74-1.39.06-3.02-.11-4.17.82h0Z"/>
          <g>
            <path class="cls-5" d="m399.17,52.26c-5.28,1.66-8.72,6.31-14.29,7.81-2.62.7-5.57.73-7.67-1.2-2.96-2.72-4.17-8.82-.76-11.77,2.32-2.01,5.82-2.87,8.75-2.57,3.06.3,5.55,1.41,8.06,3.13,1.79,1.22,3.42,3.43,5.9,4.6Z"/>
            <path class="cls-4" d="m399.17,52.26c-5.28,1.66-8.72,6.31-14.29,7.81-2.62.7-5.57.73-7.67-1.2-2.96-2.72-4.17-8.82-.76-11.77,2.32-2.01,5.82-2.87,8.75-2.57,3.06.3,5.55,1.41,8.06,3.13,1.79,1.22,3.42,3.43,5.9,4.6,0,0-2.48-1.18,0,0Z"/>
          </g>
          <path class="cls-2" d="m378.2,49.22c2.67-2.61,11.73-1.14,14.75.69-3.49-1.57-7.42-1.97-11.2-1.8-1.21.15-2.66.17-3.55,1.11h0Z"/>
          <path class="cls-6" d="m398.5,50.41c1.35,4.94,6.01,8.14,7.16,13.35.54,2.45.33,5.22-1.88,7.2-3.14,2.8-4.42.18-6.97-1.16-1.53,2.4-3.21,4.58-5.59,1.93-1.95-2.16-2.58-5.44-2.04-8.19.57-2.87,1.95-5.21,3.97-7.57,1.44-1.68,3.91-3.22,5.36-5.56Z"/>
          <path class="cls-2" d="m393.21,69.52c-2.81-2.74-.66-11.16,1.78-13.79-2.11,2.72-4.27,11.02-1.78,13.79h0Z"/>
          <path class="cls-2" d="m398.33,53.5l1.11-1.08c.2-.19.31-.46.32-.73l.03-1.55c0-.42-.24-.81-.63-.98l-.59-.26c-.39-.17-.84-.09-1.14.21l-1.11,1.08c-.2.19-.31.46-.32.73l-.03,1.55c0,.42.24.81.63.98l.59.26c.39.17.84.09,1.14-.21Z"/>
          <path class="cls-2" d="m413.9,41.76c-.41,4.41-9.54,8.35-13.54,7.87,3.89.18,12.92-3.66,13.54-7.87h0Z"/>
        </g>
        <g>
          <path class="cls-6" d="m282.52,108.08c4.66,1.09,9.24-.74,14.05.59,2.26.63,4.47,1.88,5.21,4.15.39,1.21.57,2.57-.03,3.84-.87,1.83-2.35,4.51-4.5,4.86-2.6.43-5.58-.46-7.65-1.93-2.15-1.53-3.53-3.39-4.66-5.7-.8-1.64-1.07-3.91-2.41-5.81Z"/>
          <path class="cls-2" d="m296.94,119.23c-3.08,1.32-7.07-1.95-8.91-4.25-.71-.92-1.26-1.98-1.52-3.11,1,3.43,6.69,8.61,10.42,7.36h0Z"/>
          <path class="cls-6" d="m283.14,109.1c2.75-.75,5.62-.4,8.42-.24,1.4.08,2.81.12,4.2-.05s2.13-1.42,3.2-2.25c.93-.73,1.72-1.59,2.4-2.58.91-1.34,1.02-3.1-.41-4.13-1.34-.96-2.9-1.62-4.46-2.09-1.84-.56-3.64-1.33-5.59-1-2.83.49-4.62,2.81-5.58,5.34-.75,1.97-.87,4.71-2.18,7Z"/>
          <path class="cls-7" d="m283.77,110.6c-2.83-3.73-7.37-5.25-10.16-9.25-1.31-1.88-2.22-4.19-1.39-6.33.69-1.79,2.39-1.63,3.93-2.39.91-.45,1.7-1,2.56-1.49.73-.42,1.48-.1,2.16.3,2.21,1.31,3.9,3.85,4.56,6.23s.59,4.72.05,7.13c-.39,1.71-1.56,3.55-1.71,5.8Z"/>
          <path class="cls-2" d="m280.02,93.36c3.48,1.45,4.68,9.73,3.55,12.99.8-3.22-.35-11.4-3.55-12.99h0Z"/>
          <path class="cls-2" d="m265.64,107.55c3.21-2.42,13.51-.12,16.83,1.92-3.93-1.86-8.34-2.58-12.66-2.74-1.39.06-3.02-.11-4.17.82h0Z"/>
          <g>
            <path class="cls-5" d="m285.61,110.81c-5.28,1.66-8.72,6.31-14.29,7.81-2.62.7-5.57.73-7.67-1.2-2.96-2.72-4.17-8.82-.76-11.77,2.32-2.01,5.82-2.87,8.75-2.57s5.55,1.41,8.06,3.13c1.79,1.22,3.42,3.43,5.9,4.6Z"/>
            <path class="cls-4" d="m285.61,110.81c-5.28,1.66-8.72,6.31-14.29,7.81-2.62.7-5.57.73-7.67-1.2-2.96-2.72-4.17-8.82-.76-11.77,2.32-2.01,5.82-2.87,8.75-2.57,3.06.3,5.55,1.41,8.06,3.13,1.79,1.22,3.42,3.43,5.9,4.6,0,0-2.48-1.18,0,0Z"/>
          </g>
          <path class="cls-2" d="m264.64,107.77c2.67-2.61,11.73-1.14,14.75.69-3.49-1.57-7.42-1.97-11.2-1.8-1.21.15-2.66.17-3.55,1.11h0Z"/>
          <path class="cls-6" d="m284.94,108.96c1.35,4.94,6.01,8.14,7.16,13.35.54,2.45.33,5.22-1.88,7.2-3.14,2.8-4.42.18-6.97-1.16-1.53,2.4-3.21,4.58-5.59,1.93-1.95-2.16-2.58-5.44-2.04-8.19.57-2.87,1.95-5.21,3.97-7.57,1.44-1.68,3.91-3.22,5.36-5.56Z"/>
          <path class="cls-2" d="m279.65,128.07c-2.81-2.74-.66-11.16,1.78-13.79-2.11,2.72-4.27,11.02-1.78,13.79h0Z"/>
          <path class="cls-2" d="m284.77,112.05l1.11-1.08c.2-.19.31-.46.32-.73l.03-1.55c0-.42-.24-.81-.63-.98l-.59-.26c-.39-.17-.84-.09-1.14.21l-1.11,1.08c-.2.19-.31.46-.32.73l-.03,1.55c0,.42.24.81.63.98l.59.26c.39.17.84.09,1.14-.21Z"/>
          <path class="cls-2" d="m300.34,100.32c-.41,4.41-9.54,8.35-13.54,7.87,3.89.18,12.92-3.66,13.54-7.87h0Z"/>
        </g>
        <g>
          <path class="cls-9" d="m408.06,121.6c-2.52,5.57-1.74,11.83-4.58,17.52-1.34,2.68-3.36,5.13-6.13,5.44-1.48.17-3.06.03-4.31-1.07-1.82-1.59-4.42-4.16-4.22-6.97.24-3.39,2.08-6.9,4.31-9.11,2.32-2.29,4.81-3.53,7.72-4.34,2.07-.57,4.7-.3,7.22-1.48Z"/>
          <path class="cls-11" d="m391.49,136.76c-.62-4,3.93-8.16,7.11-9.95,1.25-.7,2.65-1.16,4.08-1.2-4.5.36-11.63,6.36-11.19,11.14h0Z"/>
          <path class="cls-9" d="m406.75,122.1c.07,3.67-1.12,7.17-2.08,10.66-.48,1.74-.91,3.5-1.11,5.3s1,3.05,1.65,4.63c.56,1.37,1.31,2.59,2.24,3.71,1.25,1.5,3.2,2.12,4.76.59,1.46-1.43,2.63-3.22,3.6-5.06,1.14-2.16,2.52-4.22,2.68-6.77.24-3.69-1.87-6.56-4.46-8.45-2.02-1.47-5.06-2.35-7.28-4.62Z"/>
          <path class="cls-8" d="m404.89,122.49c4.99-2.57,7.97-7.87,13.25-10.31,2.48-1.15,5.34-1.67,7.52-.05,1.82,1.35,1.17,3.44,1.59,5.59.25,1.26.65,2.4.97,3.62.27,1.03-.3,1.89-.95,2.64-2.1,2.43-5.42,3.88-8.28,4.07-2.98.2-5.48-.52-8.04-1.85-1.82-.95-3.57-2.92-6.06-3.7Z"/>
          <path class="cls-11" d="m425.35,122.4c-2.37,3.83-12.24,3.3-15.63.99,1.23.65,2.57,1.05,3.93,1.29,3.28.45,9.59.7,11.7-2.28h0Z"/>
          <path class="cls-2" d="m413.38,100.5c1.83,4.54-3.65,17.04-6.86,20.66,3.25-4.52,5.26-9.84,6.63-15.2.32-1.76.96-3.73.22-5.45h0Z"/>
          <g>
            <path class="cls-10" d="m403.9,124.77c-.26-5.29-4.12-9.39-4.12-14.93,0-2.6.79-5.4,3.37-7.03,3.64-2.31,10.3-2.34,12.41,1.42,1.44,2.56,1.35,6.02.24,8.74-1.16,2.83-3.01,4.99-5.49,7.05-1.76,1.47-4.5,2.61-6.41,4.74Z"/>
            <path class="cls-4" d="m403.9,124.77c-.26-5.29-4.12-9.39-4.12-14.93,0-2.6.79-5.4,3.37-7.03,3.64-2.31,10.3-2.34,12.41,1.42,1.44,2.56,1.35,6.02.24,8.74-1.16,2.83-3.01,4.99-5.49,7.05-1.76,1.47-4.5,2.61-6.41,4.74,0,0,1.91-2.13,0,0Z"/>
          </g>
          <path class="cls-11" d="m411.18,106.47c.59,1.22.19,2.67,0,3.95-.81,3.9-2.15,7.82-4.47,11.1,2.1-3.4,3.39-7.25,4.31-11.13.2-1.27.66-2.68.16-3.92h0Z"/>
          <path class="cls-9" d="m406.4,124.4c-5.94.37-10.84,5.39-17.03,5.43-2.91.02-5.97-.98-7.58-4.3-2.28-4.69,1.03-5.62,3.25-8.47-2.27-2.57-4.27-5.26-.62-7.56,2.98-1.87,6.84-1.79,9.79-.37,3.07,1.48,5.33,3.84,7.42,7.02,1.49,2.26,2.54,5.79,4.76,8.23Z"/>
          <path class="cls-11" d="m386.35,112.63c3.69-2.81,12.99,2.36,15.03,5.93-2.23-3.3-11.34-8.44-15.03-5.93h0Z"/>
          <path class="cls-11" d="m402.94,123.31l.9,1.68c.18.33.49.57.85.67l1.51.39c.55.14,1.14-.08,1.46-.55l.45-.67c.28-.41.31-.95.07-1.39l-.9-1.68c-.18-.33-.49-.57-.85-.67l-1.51-.39c-.55-.14-1.14.08-1.46.55l-.45.67c-.28.41-.31.95-.07,1.39Z"/>
          <path class="cls-11" d="m411.85,146.1c-1.75-.45-2.65-2.29-3.39-3.79-2.05-4.75-3.03-10.29-1.7-15.36-1.3,4.37.42,17.31,5.09,19.14h0Z"/>
        </g>
        <g>
          <path class="cls-9" d="m181.83,215.46c-2.52,5.57-1.74,11.83-4.58,17.52-1.34,2.68-3.36,5.13-6.13,5.44-1.48.17-3.06.03-4.31-1.07-1.82-1.59-4.42-4.16-4.22-6.97.24-3.39,2.08-6.9,4.31-9.11s4.81-3.53,7.72-4.34c2.07-.57,4.7-.3,7.22-1.48Z"/>
          <path class="cls-11" d="m165.25,230.62c-.62-4,3.93-8.16,7.11-9.95,1.25-.7,2.65-1.16,4.08-1.2-4.5.36-11.63,6.36-11.19,11.14h0Z"/>
          <path class="cls-9" d="m180.51,215.96c.07,3.67-1.12,7.17-2.08,10.66-.48,1.74-.91,3.5-1.11,5.3-.2,1.76,1,3.05,1.65,4.63.56,1.37,1.31,2.59,2.24,3.71,1.25,1.5,3.2,2.12,4.76.59,1.46-1.43,2.63-3.22,3.6-5.06,1.14-2.16,2.52-4.22,2.68-6.77.24-3.69-1.87-6.56-4.46-8.45-2.02-1.47-5.06-2.35-7.28-4.62Z"/>
          <path class="cls-8" d="m178.65,216.36c4.99-2.57,7.97-7.87,13.25-10.31,2.48-1.15,5.34-1.67,7.52-.05,1.82,1.35,1.17,3.44,1.59,5.59.25,1.26.65,2.4.97,3.62.27,1.03-.3,1.89-.95,2.64-2.1,2.43-5.42,3.88-8.28,4.07-2.98.2-5.48-.52-8.04-1.85-1.82-.95-3.57-2.92-6.06-3.7Z"/>
          <path class="cls-11" d="m199.11,216.26c-2.37,3.83-12.24,3.3-15.63.99,1.23.65,2.57,1.05,3.93,1.29,3.28.45,9.59.7,11.7-2.28h0Z"/>
          <path class="cls-2" d="m187.14,194.36c1.83,4.54-3.65,17.04-6.86,20.66,3.25-4.52,5.26-9.84,6.63-15.2.32-1.76.96-3.73.22-5.45h0Z"/>
          <g>
            <path class="cls-10" d="m177.67,218.64c-.26-5.29-4.12-9.39-4.12-14.93,0-2.6.79-5.4,3.37-7.03,3.64-2.31,10.3-2.34,12.41,1.42,1.44,2.56,1.35,6.02.24,8.74-1.16,2.83-3.01,4.99-5.49,7.05-1.76,1.47-4.5,2.61-6.41,4.74Z"/>
            <path class="cls-4" d="m177.67,218.64c-.26-5.29-4.12-9.39-4.12-14.93,0-2.6.79-5.4,3.37-7.03,3.64-2.31,10.3-2.34,12.41,1.42,1.44,2.56,1.35,6.02.24,8.74-1.16,2.83-3.01,4.99-5.49,7.05-1.76,1.47-4.5,2.61-6.41,4.74,0,0,1.91-2.13,0,0Z"/>
          </g>
          <path class="cls-11" d="m184.94,200.33c.59,1.22.19,2.67,0,3.95-.81,3.9-2.15,7.82-4.47,11.1,2.1-3.4,3.39-7.25,4.31-11.13.2-1.27.66-2.68.16-3.92h0Z"/>
          <path class="cls-9" d="m180.16,218.26c-5.94.37-10.84,5.39-17.03,5.43-2.91.02-5.97-.98-7.58-4.3-2.28-4.69,1.03-5.62,3.25-8.47-2.27-2.57-4.27-5.26-.62-7.56,2.98-1.87,6.84-1.79,9.79-.37,3.07,1.48,5.33,3.84,7.42,7.02,1.49,2.26,2.54,5.79,4.76,8.23Z"/>
          <path class="cls-11" d="m160.11,206.49c3.69-2.81,12.99,2.36,15.03,5.93-2.23-3.3-11.34-8.44-15.03-5.93h0Z"/>
          <path class="cls-11" d="m176.7,217.17l.9,1.68c.18.33.49.57.85.67l1.51.39c.55.14,1.14-.08,1.46-.55l.45-.67c.28-.41.31-.95.07-1.39l-.9-1.68c-.18-.33-.49-.57-.85-.67l-1.51-.39c-.55-.14-1.14.08-1.46.55l-.45.67c-.28.41-.31.95-.07,1.39Z"/>
          <path class="cls-11" d="m185.61,239.96c-1.75-.45-2.65-2.29-3.39-3.79-2.05-4.75-3.03-10.29-1.7-15.36-1.3,4.37.42,17.31,5.09,19.14h0Z"/>
        </g>
        <g>
          <path class="cls-9" d="m440.5,97.55c-3.22,2.19-4.88,5.84-8.31,7.99-1.62,1.01-3.53,1.66-5.14.91-.86-.4-1.67-1-1.99-2.01-.46-1.47-1.02-3.73.02-5.19,1.26-1.76,3.42-3.06,5.37-3.51s3.78-.32,5.63.21c1.31.38,2.65,1.4,4.41,1.6Z"/>
          <path class="cls-11" d="m426.46,100.27c1.3-3,7.15-3.9,9.78-2.33-.82-.38-1.73-.54-2.62-.56-2.45.06-5.84.56-7.17,2.88h0Z"/>
          <path class="cls-9" d="m439.62,97.38c-1.18,2.02-2.99,3.52-4.68,5.1-.84.78-1.66,1.6-2.37,2.51-.69.89-.47,1.99-.65,3.06-.15.93-.15,1.84-.02,2.76.18,1.23,1.03,2.22,2.39,1.91,1.27-.29,2.5-.87,3.64-1.55,1.34-.79,2.77-1.46,3.71-2.78,1.35-1.92,1.17-4.18.39-6.07-.6-1.47-1.96-2.96-2.42-4.93Z"/>
          <path class="cls-8" d="m438.48,96.98c3.56.27,6.95-1.62,10.63-1.19,1.73.2,3.45.87,4.1,2.47.54,1.34-.51,2.25-.99,3.57-.28.77-.45,1.52-.68,2.29-.2.65-.79.93-1.39,1.12-1.94.62-4.23.3-5.85-.55s-2.8-2.1-3.75-3.68c-.67-1.12-.97-2.77-2.06-4.03Z"/>
          <path class="cls-11" d="m449.62,103.73c-.77.51-1.77.32-2.6.09-1.72-.49-3.29-1.44-4.61-2.64-.66-.61-1.22-1.32-1.6-2.12,1.36,2.24,6.16,5.65,8.82,4.66h0Z"/>
          <path class="cls-2" d="m450.4,87.86c-.1,1.2-1.08,2.12-1.83,2.99-2.48,2.52-5.4,4.78-8.77,5.95,3.24-1.42,6.09-3.64,8.63-6.08.77-.84,1.78-1.68,1.96-2.86h0Z"/>
          <g>
            <path class="cls-10" d="m437.18,97.89c1.62-2.96.89-6.47,2.73-9.48.87-1.41,2.23-2.67,4.17-2.7,2.74-.04,6.37,2.16,6.26,4.9-.07,1.87-1.27,3.72-2.78,4.83-1.57,1.15-3.29,1.71-5.33,2.01-1.45.21-3.31-.08-5.06.44Z"/>
            <path class="cls-4" d="m437.18,97.89c1.62-2.96.89-6.47,2.73-9.48.87-1.41,2.23-2.67,4.17-2.7,2.74-.04,6.37,2.16,6.26,4.9-.07,1.87-1.27,3.72-2.78,4.83-1.57,1.15-3.29,1.71-5.33,2.01-1.45.21-3.31-.08-5.06.44,0,0,1.75-.52,0,0Z"/>
          </g>
          <path class="cls-11" d="m447.23,90.37c-.07.86-.76,1.53-1.28,2.18-1.73,1.86-3.77,3.55-6.15,4.51,2.24-1.2,4.22-2.85,6.01-4.64.54-.62,1.27-1.21,1.42-2.05h0Z"/>
          <path class="cls-9" d="m438.66,98.52c-3.35-1.77-7.68-.68-11.06-2.72-1.59-.96-2.91-2.52-2.69-4.85.32-3.31,2.43-2.71,4.58-3.52-.38-2.15-.57-4.28,2.18-4.31,2.24-.03,4.31,1.3,5.44,3.06,1.18,1.82,1.61,3.86,1.69,6.28.06,1.73-.55,3.99-.15,6.06Z"/>
          <path class="cls-11" d="m431.69,85.45c.94-.2,1.81.43,2.5,1,1.4,1.22,2.44,2.81,3.13,4.52.34.86.55,1.78.56,2.7-.27-2.64-3.26-8.17-6.19-8.22h0Z"/>
          <path class="cls-11" d="m437.15,96.77l-.07,1.22c-.01.24.07.47.24.65l.69.71c.25.26.64.34.98.18l.47-.22c.29-.13.48-.41.5-.73l.07-1.22c.01-.24-.07-.47-.24-.65l-.69-.71c-.25-.26-.64-.34-.98-.18l-.47.22c-.29.13-.48.41-.5.73Z"/>
          <path class="cls-11" d="m434.4,112.11c-2.14-2.79,1.14-10.08,3.61-12.09-2.16,2.15-5.43,9.32-3.61,12.09h0Z"/>
        </g>
        <g>
          <path class="cls-9" d="m336.46,14.55c-3.22,2.19-4.88,5.84-8.31,7.99-1.62,1.01-3.53,1.66-5.14.91-.86-.4-1.67-1-1.99-2.01-.46-1.47-1.02-3.73.02-5.19,1.26-1.76,3.42-3.06,5.37-3.51,2.02-.47,3.78-.32,5.63.21,1.31.38,2.65,1.4,4.41,1.6Z"/>
          <path class="cls-11" d="m322.41,17.27c1.3-3,7.15-3.9,9.78-2.33-.82-.38-1.73-.54-2.62-.56-2.45.06-5.84.56-7.17,2.88h0Z"/>
          <path class="cls-9" d="m335.58,14.39c-1.18,2.02-2.99,3.52-4.68,5.1-.84.78-1.66,1.6-2.37,2.51s-.47,1.99-.65,3.06c-.15.93-.15,1.84-.02,2.76.18,1.23,1.03,2.22,2.39,1.91,1.27-.29,2.5-.87,3.64-1.55,1.34-.79,2.77-1.46,3.71-2.78,1.35-1.92,1.17-4.18.39-6.07-.6-1.47-1.96-2.96-2.42-4.93Z"/>
          <path class="cls-8" d="m334.43,13.98c3.56.27,6.95-1.62,10.63-1.19,1.73.2,3.45.87,4.1,2.47.54,1.34-.51,2.25-.99,3.57-.28.77-.45,1.52-.68,2.29-.2.65-.79.93-1.39,1.12-1.94.62-4.23.3-5.85-.55s-2.8-2.1-3.75-3.68c-.67-1.12-.97-2.77-2.06-4.03Z"/>
          <path class="cls-11" d="m345.58,20.74c-.77.51-1.77.32-2.6.09-1.72-.49-3.29-1.44-4.61-2.64-.66-.61-1.22-1.32-1.6-2.12,1.36,2.24,6.16,5.65,8.82,4.66h0Z"/>
          <path class="cls-2" d="m346.36,4.86c-.1,1.2-1.08,2.12-1.83,2.99-2.48,2.52-5.4,4.78-8.77,5.95,3.24-1.42,6.09-3.64,8.63-6.08.77-.84,1.78-1.68,1.96-2.86h0Z"/>
          <g>
            <path class="cls-10" d="m333.14,14.89c1.62-2.96.89-6.47,2.73-9.48.87-1.41,2.23-2.67,4.17-2.7,2.74-.04,6.37,2.16,6.26,4.9-.07,1.87-1.27,3.72-2.78,4.83-1.57,1.15-3.29,1.71-5.33,2.01-1.45.21-3.31-.08-5.06.44Z"/>
            <path class="cls-4" d="m333.14,14.89c1.62-2.96.89-6.47,2.73-9.48.87-1.41,2.23-2.67,4.17-2.7,2.74-.04,6.37,2.16,6.26,4.9-.07,1.87-1.27,3.72-2.78,4.83-1.57,1.15-3.29,1.71-5.33,2.01-1.45.21-3.31-.08-5.06.44,0,0,1.75-.52,0,0Z"/>
          </g>
          <path class="cls-11" d="m343.18,7.38c-.07.86-.76,1.53-1.28,2.18-1.73,1.86-3.77,3.55-6.15,4.51,2.24-1.2,4.22-2.85,6.01-4.64.54-.62,1.27-1.21,1.42-2.05h0Z"/>
          <path class="cls-9" d="m334.62,15.52c-3.35-1.77-7.68-.68-11.06-2.72-1.59-.96-2.91-2.52-2.69-4.85.32-3.31,2.43-2.71,4.58-3.52-.38-2.15-.57-4.28,2.18-4.31,2.24-.03,4.31,1.3,5.44,3.06s1.61,3.86,1.69,6.28c.06,1.73-.55,3.99-.15,6.06Z"/>
          <path class="cls-11" d="m327.65,2.46c.94-.2,1.81.43,2.5,1,1.4,1.22,2.44,2.81,3.13,4.52.34.86.55,1.78.56,2.7-.27-2.64-3.26-8.17-6.19-8.22h0Z"/>
          <path class="cls-11" d="m333.1,13.78l-.07,1.22c-.01.24.07.47.24.65l.69.71c.25.26.64.34.98.18l.47-.22c.29-.13.48-.41.5-.73l.07-1.22c.01-.24-.07-.47-.24-.65l-.69-.71c-.25-.26-.64-.34-.98-.18l-.47.22c-.29.13-.48.41-.5.73Z"/>
          <path class="cls-11" d="m330.36,29.11c-2.14-2.79,1.14-10.08,3.61-12.09-2.16,2.15-5.43,9.32-3.61,12.09h0Z"/>
        </g>
        <g>
          <path class="cls-9" d="m310,181.55c-6.66,4.53-10.08,12.11-17.19,16.55-3.34,2.09-7.3,3.45-10.63,1.91-1.78-.83-3.46-2.07-4.12-4.16-.96-3.04-2.11-7.72.04-10.74,2.6-3.64,7.08-6.33,11.1-7.28s7.83-.67,11.66.42c2.72.78,5.49,2.9,9.13,3.3Z"/>
          <path class="cls-11" d="m280.94,187.22c2.44-5.91,15.09-7.93,20.25-4.84-5.2-2.76-17.59-.83-20.25,4.84h0Z"/>
          <path class="cls-9" d="m308.18,181.21c-2.44,4.17-6.19,7.3-9.67,10.56-1.73,1.63-3.43,3.31-4.89,5.19-1.43,1.84-.97,4.12-1.33,6.34-.31,1.92-.31,3.82-.03,5.71.38,2.55,2.15,4.58,4.95,3.94,2.62-.6,5.17-1.81,7.52-3.21,2.77-1.65,5.73-3.02,7.67-5.77,2.8-3.99,2.4-8.66.79-12.56-1.26-3.04-4.07-6.12-5.02-10.2Z"/>
          <path class="cls-8" d="m305.81,180.38c7.37.54,14.37-3.37,21.99-2.49,3.58.41,7.15,1.8,8.49,5.1,1.12,2.77-1.05,4.67-2.05,7.38-.59,1.59-.92,3.15-1.4,4.73-.4,1.34-1.63,1.92-2.88,2.32-4.02,1.29-8.76.64-12.11-1.12-3.49-1.83-5.81-4.35-7.77-7.6-1.4-2.32-2.01-5.73-4.27-8.33Z"/>
          <path class="cls-11" d="m328.89,194.33c-5.09,2.7-16.14-4.82-18.26-9.62,2.32,4.55,13.2,12.03,18.26,9.62h0Z"/>
          <path class="cls-2" d="m330.47,161.48c-.25,2.48-2.3,4.33-3.86,6.11-5.14,5.18-11.16,9.84-18.05,12.41,6.78-2.8,12.71-7.43,17.93-12.52,1.56-1.77,3.64-3.55,3.98-6h0Z"/>
          <g>
            <path class="cls-10" d="m303.13,182.27c3.35-6.13,1.82-13.39,5.63-19.62,1.79-2.93,4.6-5.53,8.63-5.59,5.68-.09,13.19,4.45,12.98,10.12-.14,3.86-2.62,7.7-5.74,10-3.26,2.39-6.81,3.55-11.02,4.16-2.99.44-6.85-.16-10.47.93Z"/>
            <path class="cls-4" d="m303.13,182.27c3.35-6.13,1.82-13.39,5.63-19.62,1.79-2.93,4.6-5.53,8.63-5.59,5.68-.09,13.19,4.45,12.98,10.12-.14,3.86-2.62,7.7-5.74,10-3.26,2.39-6.81,3.55-11.02,4.16-2.99.44-6.85-.16-10.47.93,0,0,3.61-1.09,0,0Z"/>
          </g>
          <path class="cls-11" d="m323.9,166.69c-.19,1.78-1.64,3.12-2.73,4.43-3.6,3.82-7.79,7.3-12.63,9.43,4.72-2.35,8.83-5.8,12.51-9.54,1.1-1.3,2.58-2.57,2.85-4.32h0Z"/>
          <path class="cls-9" d="m306.2,183.56c-6.93-3.66-15.9-1.39-22.89-5.59-3.29-1.98-6.04-5.2-5.57-10.04.66-6.85,5.01-5.61,9.47-7.29-.79-4.45-1.18-8.85,4.5-8.92,4.64-.06,8.93,2.69,11.27,6.31,2.44,3.77,3.35,7.98,3.52,13,.12,3.57-1.12,8.25-.3,12.53Z"/>
          <path class="cls-11" d="m291.74,156.54c1.93-.38,3.7.96,5.09,2.15,4.13,3.82,7.36,9.15,7.75,14.85-.65-5.65-3.82-10.83-7.86-14.72-1.37-1.19-3.05-2.56-4.98-2.27h0Z"/>
          <path class="cls-11" d="m303.06,179.96l-.14,2.52c-.03.49.15.98.5,1.33l1.43,1.48c.52.54,1.33.69,2.02.38l.97-.45c.6-.27,1-.86,1.03-1.51l.14-2.52c.03-.49-.15-.98-.5-1.33l-1.43-1.48c-.52-.54-1.33-.69-2.02-.38l-.97.45c-.6.27-1,.86-1.03,1.51Z"/>
          <path class="cls-11" d="m297.42,211.71c-1.65-1.72-1.38-4.4-1.19-6.59.97-6.74,3.67-13.63,8.62-18.44-4.75,4.97-7.37,11.75-8.46,18.46-.2,2.18-.54,4.8,1.02,6.57h0Z"/>
        </g>
        <g>
          <path class="cls-9" d="m331.58,91.09c-6.52-4.74-14.81-5.39-21.39-10.57-3.1-2.44-5.72-5.7-5.39-9.35.18-1.95.78-3.95,2.52-5.28,2.53-1.93,6.55-4.6,10.12-3.6,4.31,1.21,8.36,4.52,10.61,7.98s3.28,7.14,3.55,11.11c.19,2.82-.87,6.15-.01,9.71Z"/>
          <path class="cls-11" d="m316.41,65.67c6.39.3,12.57,11.52,11.41,17.41.85-5.79-5.2-16.86-11.41-17.41h0Z"/>
          <path class="cls-9" d="m331.29,89.26c-4.75-.88-8.96-3.35-13.21-5.52-2.12-1.08-4.28-2.11-6.54-2.85-2.22-.72-4.21.48-6.42.89-1.91.36-3.69,1-5.38,1.91-2.27,1.22-3.59,3.57-2.03,5.99,1.46,2.26,3.45,4.25,5.57,5.99,2.49,2.05,4.78,4.37,8.02,5.26,4.7,1.28,8.97-.67,12.09-3.51,2.44-2.21,4.38-5.9,7.9-8.17Z"/>
          <path class="cls-8" d="m331.27,86.75c1.99,7.12,8.04,12.38,9.79,19.85.82,3.51.73,7.33-1.93,9.72-2.23,2-4.75.59-7.64.57-1.69-.01-3.28.2-4.93.29-1.39.07-2.36-.88-3.16-1.92-2.57-3.35-3.57-8.03-3.05-11.78.54-3.9,2.13-6.94,4.52-9.89,1.71-2.1,4.72-3.83,6.39-6.84Z"/>
          <path class="cls-11" d="m325.95,113.19c-4.27-3.91-.93-16.79,2.88-20.44-3.51,3.75-6.85,16.46-2.88,20.44h0Z"/>
          <path class="cls-2" d="m357.4,103.56c-2.42.61-4.85-.69-7.06-1.56-6.62-3.09-13.03-7.17-17.78-12.78,4.93,5.43,11.29,9.44,17.85,12.63,2.19.87,4.57,2.22,6.99,1.71h0Z"/>
          <g>
            <path class="cls-10" d="m328.59,84.88c6.9,1.08,13.22-2.82,20.37-1.35,3.36.69,6.76,2.46,8.18,6.22,2.01,5.31.28,13.91-5.13,15.64-3.68,1.17-8.13.15-11.35-2.02-3.35-2.26-5.64-5.21-7.65-8.96-1.43-2.67-2.17-6.5-4.42-9.53Z"/>
            <path class="cls-4" d="m328.59,84.88c6.9,1.08,13.22-2.82,20.37-1.35,3.36.69,6.76,2.46,8.18,6.22,2.01,5.31.28,13.91-5.13,15.64-3.68,1.17-8.13.15-11.35-2.02-3.35-2.26-5.64-5.21-7.65-8.96-1.43-2.67-2.17-6.5-4.42-9.53,0,0,2.25,3.03,0,0Z"/>
          </g>
          <path class="cls-11" d="m350.28,99.14c-1.74.43-3.49-.48-5.1-1.07-4.82-2.1-9.51-4.86-13.15-8.69,3.81,3.64,8.45,6.35,13.21,8.54,1.59.6,3.29,1.55,5.03,1.22h0Z"/>
          <path class="cls-9" d="m328.4,88.2c1.1-7.76-4.07-15.43-2.48-23.43.75-3.76,2.85-7.44,7.56-8.64,6.67-1.7,6.98,2.82,10.06,6.44,3.92-2.25,7.93-4.11,9.92,1.21,1.62,4.34.5,9.31-2.12,12.74-2.73,3.57-6.38,5.85-11.04,7.72-3.32,1.33-8.15,1.74-11.89,3.96Z"/>
          <path class="cls-11" d="m348.93,65.45c1.02,1.69.35,3.81-.3,5.52-2.2,5.18-6.12,10.02-11.35,12.32,5.1-2.53,8.89-7.26,11.2-12.38.65-1.69,1.37-3.74.45-5.46h0Z"/>
          <path class="cls-11" d="m330.73,84.02l-2.41.72c-.47.14-.87.47-1.09.92l-.91,1.84c-.33.68-.2,1.49.33,2.03l.75.76c.46.47,1.14.65,1.77.46l2.41-.72c.47-.14.87-.47,1.09-.92l.91-1.84c.33-.68.2-1.49-.33-2.03l-.75-.76c-.46-.47-1.14-.65-1.77-.46Z"/>
          <path class="cls-11" d="m298.95,89.46c1.06-2.13,3.67-2.79,5.8-3.35,6.67-1.37,14.07-1.16,20.27,1.87-6.29-2.78-13.55-2.96-20.23-1.71-2.12.55-4.7,1.12-5.83,3.19h0Z"/>
        </g>
        <g>
          <path class="cls-6" d="m301.27,36.86c1.2,6.26,5.92,10.85,6.9,17.42.46,3.09.14,6.46-2.23,8.59-1.27,1.14-2.82,2.09-4.69,2.04-2.7-.07-6.76-.42-8.36-2.84-1.93-2.93-2.47-7.05-1.8-10.36s2.22-6.14,4.41-8.76c1.56-1.87,4.18-3.42,5.77-6.09Z"/>
          <path class="cls-2" d="m295.53,60.46c-3.92-3.64-.65-13.91,3.31-16.68-3.67,2.92-6.92,12.98-3.31,16.68h0Z"/>
          <path class="cls-6" d="m300.37,38.16c2.4,2.95,3.53,6.62,4.85,10.13.66,1.75,1.38,3.48,2.34,5.09s2.88,1.82,4.48,2.68c1.39.74,2.87,1.23,4.45,1.52,2.12.38,4.33-.43,4.81-2.74.45-2.15.4-4.41.13-6.57-.32-2.54-.35-5.16-1.82-7.35-2.13-3.18-5.92-4.1-9.53-3.9-2.81.16-6.2,1.49-9.71,1.14Z"/>
          <path class="cls-7" d="m298.89,39.74c3-5.47,2.4-11.82,5.75-17.39,1.58-2.62,3.9-4.97,6.95-5.12,2.56-.13,3.27,2.02,5.04,3.5,1.04.86,2.14,1.53,3.2,2.3.9.66.93,1.74.8,2.8-.4,3.4-2.57,6.84-5.11,8.93s-5.42,3.28-8.65,3.92c-2.3.46-5.17.02-7.99,1.07Z"/>
          <path class="cls-2" d="m317.85,25.83c.2,4.84-9.46,11.02-13.9,11.37,4.24-.6,13.89-6.73,13.9-11.37h0Z"/>
          <path class="cls-2" d="m292.77,16.01c1.82.8,2.6,2.89,3.44,4.55,2.27,5.31,3.78,11.18,3.35,16.98.17-5.8-1.34-11.57-3.5-16.91-.82-1.66-1.52-3.74-3.28-4.62h0Z"/>
          <g>
            <path class="cls-5" d="m299.63,42.1c-4.89-5.52-12.42-7.19-17.26-13.16-2.28-2.81-3.91-6.39-2.7-9.99,1.7-5.08,8.48-9.86,13.92-7.31,3.7,1.73,6.64,5.53,7.88,9.26,1.29,3.89,1.29,7.53.56,11.52-.52,2.84-2.32,6.02-2.4,9.68Z"/>
            <path class="cls-4" d="m299.63,42.1c-4.89-5.52-12.42-7.19-17.26-13.16-2.28-2.81-3.91-6.39-2.7-9.99,1.7-5.08,8.48-9.86,13.92-7.31,3.7,1.73,6.64,5.53,7.88,9.26,1.29,3.89,1.29,7.53.56,11.52-.52,2.84-2.32,6.02-2.4,9.68,0,0,.09-3.66,0,0Z"/>
          </g>
          <path class="cls-2" d="m291.96,14.91c4.47,1.65,7.76,13.86,7.16,18.33.33-4.33-2.96-16.58-7.16-18.33h0Z"/>
          <path class="cls-6" d="m301.52,40.28c-5.28,4.32-6.65,11.74-12.37,15.96-2.69,1.98-6.17,3.23-9.78,1.61-5.11-2.3-2.62-5.29-2.37-9.12-3.75-.56-7.32-1.42-5.39-5.76,1.58-3.54,5.22-6.09,8.87-6.92,3.8-.87,7.4-.46,11.38.73,2.83.84,6.05,3.02,9.67,3.52Z"/>
          <path class="cls-2" d="m275.38,44.2c1.68-4.77,13.38-6.83,17.75-5.31-1.59-.37-3.23-.43-4.85-.32-3.72.36-11.34,1.85-12.9,5.63h0Z"/>
          <path class="cls-2" d="m297.66,41.75l1.92.77c.34.14.72.13,1.06-.01l1.9-.81c.52-.22.86-.73.85-1.3v-.86c-.01-.56-.36-1.07-.88-1.28l-1.92-.77c-.34-.14-.72-.13-1.06.01l-1.9.81c-.52.22-.86.73-.85,1.3v.86c.01.56.36,1.07.88,1.28Z"/>
          <path class="cls-2" d="m320.4,54.34c-1.74.78-3.72,0-5.35-.72-4.91-2.41-9.51-6.34-11.57-11.5,1.72,4.78,11.61,13.87,16.92,12.22h0Z"/>
        </g>
        <g>
          <path class="cls-6" d="m79.57,133.99c.89-4.92-1.27-9.6-.13-14.69.53-2.39,1.72-4.77,4.05-5.65,1.25-.47,2.65-.73,4-.17,1.96.81,4.83,2.21,5.31,4.44.59,2.69-.19,5.85-1.61,8.08-1.48,2.32-3.35,3.86-5.7,5.16-1.67.93-4.02,1.32-5.94,2.82Z"/>
          <path class="cls-2" d="m90.43,118.35c1.54,3.11-1.68,7.51-3.96,9.51-.92.79-2,1.42-3.16,1.75,3.51-1.19,8.65-7.48,7.12-11.26h0Z"/>
          <path class="cls-6" d="m80.59,133.3c-.93-2.83-.71-5.84-.69-8.77,0-1.46-.03-2.93-.28-4.38-.24-1.41-1.59-2.14-2.52-3.22-.81-.93-1.75-1.71-2.82-2.36-1.44-.88-3.29-.9-4.29.64-.94,1.45-1.53,3.11-1.95,4.77-.49,1.95-1.2,3.87-.74,5.89.66,2.92,3.17,4.67,5.87,5.54,2.1.68,4.96.66,7.42,1.9Z"/>
          <path class="cls-7" d="m82.12,132.56c-3.74,3.15-5.09,7.97-9.11,11.09-1.89,1.47-4.26,2.53-6.53,1.79-1.9-.63-1.82-2.4-2.7-3.98-.51-.92-1.13-1.72-1.69-2.59-.47-.73-.19-1.54.2-2.27,1.25-2.37,3.81-4.27,6.25-5.09,2.55-.85,4.89-.87,7.43-.43,1.81.31,3.79,1.44,6.14,1.48Z"/>
          <path class="cls-2" d="m64.33,137.38c1.3-3.68,9.93-5.41,13.37-4.4-3.37-.68-11.91.98-13.37,4.4h0Z"/>
          <path class="cls-2" d="m79.9,151.64c-2.69-3.16-.83-14.15,1.11-17.66-1.73,4.2-2.25,8.84-2.19,13.35.13,1.45.05,3.16,1.08,4.3h0Z"/>
          <g>
            <path class="cls-5" d="m82.25,130.62c2.01,5.42,7.05,8.76,8.9,14.49.87,2.7,1.06,5.77-.84,8.07-2.68,3.24-8.98,4.82-12.24,1.42-2.22-2.31-3.3-5.92-3.15-9s1.18-5.87,2.84-8.58c1.18-1.93,3.39-3.75,4.49-6.4Z"/>
            <path class="cls-4" d="m82.25,130.62c2.01,5.42,7.05,8.76,8.9,14.49.87,2.7,1.06,5.77-.84,8.07-2.68,3.24-8.98,4.82-12.24,1.42-2.22-2.31-3.3-5.92-3.15-9,.15-3.21,1.18-5.87,2.84-8.58,1.18-1.93,3.39-3.75,4.49-6.4,0,0-1.1,2.65,0,0Z"/>
          </g>
          <path class="cls-2" d="m80.19,152.67c-2.85-2.61-1.8-12.21-.06-15.43-1.45,3.72-1.67,7.84-1.29,11.79.22,1.26.32,2.76,1.35,3.64h0Z"/>
          <path class="cls-6" d="m80.35,131.43c5.08-1.67,8.17-6.71,13.55-8.18,2.53-.69,5.42-.62,7.61,1.58,3.09,3.12.43,4.61-.84,7.34,2.58,1.47,4.95,3.1,2.31,5.73-2.15,2.15-5.54,2.98-8.44,2.56s-5.54-1.75-8.11-3.74c-1.83-1.41-3.57-3.91-6.08-5.3Z"/>
          <path class="cls-2" d="m100.58,135.93c-2.7,3.06-11.61,1.27-14.48-1.12,2.95,2.08,11.72,3.89,14.48,1.12h0Z"/>
          <path class="cls-2" d="m83.76,131.6l-1.46-1.36c-.14-.13-.33-.21-.53-.2l-1.99.07c-.3,0-.57.2-.67.48l-.4,1.07c-.11.28-.03.6.19.8l1.46,1.36c.14.13.33.21.53.2l1.99-.07c.3,0,.57-.2.67-.48l.4-1.07c.11-.28.03-.6-.19-.8Z"/>
          <path class="cls-2" d="m70.52,115.81c4.62.2,9.21,9.51,8.93,13.71,0-4.07-4.5-13.29-8.93-13.71h0Z"/>
        </g>
        <g>
          <path class="cls-6" d="m206.11,135.12c3.49-3.27,4.51-8.1,8.28-11.36,1.78-1.53,4.04-2.68,6.34-2.03,1.23.35,2.46.95,3.17,2.15,1.04,1.74,2.45,4.46,1.55,6.44-1.08,2.4-3.48,4.39-5.85,5.29s-4.78,1.05-7.32.72c-1.81-.24-3.84-1.28-6.17-1.22Z"/>
          <path class="cls-2" d="m223.38,129.3c-.61,3.29-5.55,4.8-8.47,5.05-1.16.08-2.35-.05-3.43-.46,3.41,1.07,10.88-.79,11.9-4.59h0Z"/>
          <path class="cls-6" d="m207.29,135.17c.91-2.71,2.79-4.89,4.48-7.14.84-1.12,1.65-2.27,2.29-3.52.62-1.23,0-2.55-.1-3.91-.09-1.18-.37-2.31-.82-3.43-.61-1.5-2.01-2.57-3.66-1.95-1.55.58-2.95,1.52-4.22,2.55-1.49,1.22-3.13,2.29-3.93,4.1-1.16,2.63-.23,5.4,1.35,7.6,1.23,1.72,3.43,3.33,4.62,5.7Z"/>
          <path class="cls-7" d="m208.89,135.47c-4.67.29-8.46,3.22-13.33,3.32-2.29.05-4.72-.48-6.04-2.36-1.11-1.57-.03-2.89.2-4.6.13-1,.11-1.97.18-2.95.05-.84.73-1.29,1.45-1.63,2.32-1.11,5.36-1.11,7.71-.34,2.44.81,4.25,2.13,5.96,3.92,1.21,1.27,2.09,3.27,3.88,4.64Z"/>
          <path class="cls-2" d="m192.47,129.03c3.14-2.09,10.69,1.5,12.78,4.25-2.21-2.44-9.71-6.04-12.78-4.25h0Z"/>
          <path class="cls-2" d="m196.29,148.87c-.25-3.99,7.42-11.33,10.93-12.93-3.73,2.24-6.77,5.51-9.31,9.01-.72,1.19-1.77,2.46-1.63,3.92h0Z"/>
          <g>
            <path class="cls-5" d="m210.09,134.06c-1.54,5.31.42,10.76-1.43,16.22-.87,2.57-2.48,5.04-5.25,5.72-3.91.96-9.65-1.42-10.22-5.9-.38-3.04.84-6.43,2.71-8.71s4.26-3.83,7.08-4.97c2.01-.81,4.75-.94,7.1-2.36Z"/>
            <path class="cls-4" d="m210.09,134.06c-1.54,5.31.42,10.76-1.43,16.22-.87,2.57-2.48,5.04-5.25,5.72-3.91.96-9.65-1.42-10.22-5.9-.38-3.04.84-6.43,2.71-8.71,1.95-2.37,4.26-3.83,7.08-4.97,2.01-.81,4.75-.94,7.1-2.36,0,0-2.36,1.41,0,0Z"/>
          </g>
          <path class="cls-2" d="m195.92,149.82c-.69-3.67,5.56-10.39,8.76-11.89-3.24,2.03-5.75,5.08-7.72,8.32-.55,1.09-1.33,2.3-1.04,3.57h0Z"/>
          <path class="cls-6" d="m208.18,133.6c4.85,1.62,10.11-.49,15.08,1.45,2.34.91,4.52,2.62,4.94,5.56.59,4.16-2.3,3.78-4.83,5.16,1.15,2.6,2.03,5.21-1.49,5.73-2.88.42-5.96-.87-7.95-2.85-2.07-2.06-3.25-4.51-4.1-7.51-.6-2.13-.51-5.04-1.65-7.54Z"/>
          <path class="cls-2" d="m221.14,148.6c-3.84.82-9.65-5.64-10.48-9.13,1.06,3.24,6.83,9.69,10.48,9.13h0Z"/>
          <path class="cls-2" d="m210.66,135.46l-.28-1.52c-.05-.27-.21-.51-.43-.67l-1.27-.88c-.35-.24-.81-.25-1.16-.02l-.54.35c-.36.23-.54.65-.46,1.07l.28,1.52c.05.27.21.51.43.67l1.27.88c.35.24.81.25,1.16.02l.54-.35c.36-.23.54-.65.46-1.07Z"/>
          <path class="cls-2" d="m209.53,115.99c3.45,2.83,1.66,12.53-.97,15.63,2.32-3.17,4.13-12.74.97-15.63h0Z"/>
        </g>
      </g>
      <path class="cls-3" d="m2.99,197.49c.63-7.51,4.35-14.72,10.11-19.6"/>
    </g>
  </g>
</svg>